<svg width="29" height="30" viewBox="0 0 29 30" fill="none" xmlns="http://www.w3.org/2000/svg">
<circle cx="14.5" cy="15" r="14.5" fill="#EA973D"/>
<path d="M18.4767 14.9277C19.4568 14.6506 20.1716 13.9628 20.3041 12.6079C20.4878 10.7568 19.0376 9.83731 17.0892 9.27207L17.5867 6.75236L16.0506 6.44881L15.5654 8.9021C15.1612 8.82224 14.7476 8.74875 14.3359 8.67592L14.8234 6.20667L13.2887 5.90325L12.7907 8.42221C12.4567 8.36327 12.1288 8.30517 11.8098 8.24215L11.8113 8.23469L9.69263 7.81514L9.36929 9.45298C9.36929 9.45298 10.5079 9.65584 10.4851 9.67283C11.107 9.79617 11.2388 10.197 11.2357 10.5199L10.669 13.3904L9.87228 17.4223C9.80628 17.6123 9.62935 17.9017 9.19434 17.8164C9.21069 17.8377 8.07693 17.5954 8.07693 17.5954L7.41033 19.3666L9.40906 19.7615C9.7814 19.8355 10.1462 19.9136 10.5046 19.9874L10.0024 22.5359L11.5367 22.8395L12.0346 20.318C12.455 20.41 12.8617 20.4942 13.2598 20.5723L12.7635 23.0819L14.2996 23.3854L14.8031 20.8417C17.4145 21.2038 19.3505 20.9115 20.0538 18.5343C20.6202 16.6205 19.8733 15.5687 18.4767 14.9277ZM14.0163 10.4861C14.8827 10.6573 17.6618 10.9202 17.3051 12.7276C16.9623 14.4602 14.2784 13.7196 13.4112 13.5482L14.0163 10.4861ZM12.4379 18.4702L13.1057 15.0941C14.1467 15.2995 17.4706 15.6458 17.0785 17.6324C16.7025 19.5375 13.4797 18.6753 12.4379 18.4702Z" fill="white"/>
</svg>
