<svg width="98" height="110" viewBox="0 0 98 110" fill="none" xmlns="http://www.w3.org/2000/svg">
<path d="M94.6919 64.7434V66.7819C94.6919 68.005 93.8764 68.8205 92.6533 68.8205H85.3145V71.8783H93.6727C95.9152 71.8783 97.7499 70.0436 97.7499 67.8011V64.7434C97.7499 63.9278 97.1383 63.1125 96.1191 63.1125C95.3036 63.1123 94.6919 63.724 94.6919 64.7434Z" fill="#087EC1"/>
<path d="M40.2607 102.661C39.8529 106.739 36.3874 110 32.1063 110H31.9024C27.4175 110 23.748 106.331 23.748 101.846V97.157C28.6406 99.8072 34.3488 101.642 40.2607 102.661Z" fill="#087EC1"/>
<path d="M14.3068 51.2886C19.29 48.4071 24.6721 46.5547 29.6553 45.9374L18.6922 34.6175C15.3036 38.1163 13.709 42.4385 13.709 46.9666C13.9081 48.2012 14.1075 49.8477 14.3068 51.2886Z" fill="#40596B"/>
<path d="M2.14058 61.8892C-0.713528 64.7434 -0.713528 75.7516 2.14058 78.6058C3.56754 80.0327 10.295 78.6058 10.295 78.6058V61.8892C10.0911 61.8892 3.56754 60.4623 2.14058 61.8892Z" fill="#087EC1"/>
<path d="M73.083 97.157V101.846C73.083 106.331 69.4135 110 64.9286 110H64.7247C60.4436 110 56.9781 106.739 56.5703 102.661C62.6861 101.642 68.1904 99.8073 73.083 97.157Z" fill="#087EC1"/>
<path d="M48.5014 103.477C72.1199 103.477 91.2665 88.7109 91.2665 70.4966C91.2665 52.2824 72.1199 37.5168 48.5014 37.5168C24.8829 37.5168 5.73633 52.2824 5.73633 70.4966C5.73633 88.7109 24.8829 103.477 48.5014 103.477Z" fill="#2D9CDB"/>
<path d="M18.4217 63.6108C19.8228 63.6108 20.9586 62.4749 20.9586 61.0738C20.9586 59.6727 19.8228 58.5369 18.4217 58.5369C17.0206 58.5369 15.8848 59.6727 15.8848 61.0738C15.8848 62.4749 17.0206 63.6108 18.4217 63.6108Z" fill="#40596B"/>
<path d="M68.4966 35.9933C76.5029 35.9933 82.9933 29.5029 82.9933 21.4966C82.9933 13.4904 76.5029 7 68.4966 7C60.4904 7 54 13.4904 54 21.4966C54 29.5029 60.4904 35.9933 68.4966 35.9933Z" fill="#FFD15C"/>
<path d="M68.4975 32.3691C74.5022 32.3691 79.37 27.5014 79.37 21.4967C79.37 15.492 74.5022 10.6242 68.4975 10.6242C62.4928 10.6242 57.625 15.492 57.625 21.4967C57.625 27.5014 62.4928 32.3691 68.4975 32.3691Z" fill="#F8B64C"/>
<path d="M71.3103 20.7076C71.925 20.3948 72.3096 19.8438 72.2197 18.9258C72.0987 17.6713 71.0146 17.2507 69.6461 17.1309L69.6458 15.3908H68.5854L68.5852 17.0851C68.3062 17.0851 68.0218 17.0906 67.7387 17.0962L67.7384 15.391L66.679 15.3909L66.6788 17.1306C66.4492 17.1352 66.2238 17.1397 66.0036 17.1397V17.1346L64.541 17.134L64.5412 18.265C64.5412 18.265 65.3243 18.2503 65.3114 18.2646C65.7407 18.2649 65.8809 18.514 65.9212 18.729L65.9215 20.7113V23.4958C65.9026 23.6308 65.8231 23.8464 65.5229 23.8468C65.5365 23.8588 64.7515 23.8466 64.7515 23.8466L64.5412 25.1114H65.9209C66.178 25.1117 66.4306 25.1157 66.6784 25.1177L66.6793 26.8774L67.7384 26.8777L67.7381 25.1364C68.0295 25.1424 68.3108 25.1449 68.5855 25.1446L68.5852 26.8777H69.6455L69.6461 25.1209C71.4285 25.0186 72.6763 24.57 72.8314 22.8977C72.9564 21.5513 72.3222 20.9503 71.3103 20.7076ZM67.764 18.3414C68.362 18.3414 70.2428 18.1511 70.2431 19.3992C70.2428 20.5959 68.3626 20.4561 67.764 20.4561V18.3414ZM67.7635 23.8553L67.764 21.5237C68.4825 21.5235 70.7362 21.3171 70.7365 22.689C70.7368 24.0046 68.4825 23.8548 67.7635 23.8553Z" fill="white"/>
<path d="M67 48C72.5228 48 77 43.5228 77 38C77 32.4772 72.5228 28 67 28C61.4772 28 57 32.4772 57 38C57 43.5228 61.4772 48 67 48Z" fill="#018DEA"/>
<path d="M67 45.5C71.1421 45.5 74.5 42.1421 74.5 38C74.5 33.8579 71.1421 30.5 67 30.5C62.8579 30.5 59.5 33.8579 59.5 38C59.5 42.1421 62.8579 45.5 67 45.5Z" fill="#4CB5FC"/>
<path d="M63.7559 40.9685C63.7559 40.8398 63.792 40.7166 63.8142 40.5906C63.867 40.2743 63.9281 39.958 63.9795 39.6417C63.9906 39.5731 64.017 39.5591 64.0822 39.5591C64.9156 39.5619 65.7489 39.5591 66.5809 39.5605C66.9572 39.5605 67.3295 39.5339 67.692 39.4247C68.3211 39.2358 68.7003 38.8033 68.8795 38.1791C68.9906 37.7872 69.0892 37.3911 69.1114 36.9824C69.1295 36.6479 69.0878 36.3246 68.8559 36.0586C68.6878 35.8655 68.4642 35.7675 68.2225 35.7059C67.9767 35.643 67.7267 35.622 67.4739 35.6192C67.4003 35.6192 67.3253 35.6192 67.2517 35.6192C66.4239 35.6178 65.5947 35.6164 64.767 35.615C64.6767 35.615 64.6781 35.615 64.6934 35.5268C64.7697 35.0985 64.8461 34.6702 64.9225 34.2419C64.9225 34.2321 64.9225 34.2195 64.9225 34.2083C66.0614 34.2083 67.2003 34.2083 68.3392 34.2083C68.3503 34.2293 68.3711 34.2209 68.3892 34.2223C68.6572 34.2419 68.9211 34.2783 69.1809 34.3483C69.5892 34.4575 69.96 34.6338 70.2545 34.9515C70.5795 35.3015 70.7184 35.7311 70.7711 36.1972C70.7795 36.2714 70.7711 36.3484 70.7975 36.4211C70.7975 36.4449 70.7975 36.4673 70.7975 36.4911C70.7947 36.5051 70.7906 36.5177 70.7906 36.5317C70.7934 36.883 70.7586 37.2301 70.7003 37.5744C70.6059 38.1399 70.4517 38.6871 70.1836 39.1966C69.8864 39.7621 69.4795 40.2211 68.9184 40.5332C68.4795 40.7768 68.0086 40.9055 67.5114 40.9433C67.435 40.9489 67.3572 40.9419 67.2822 40.9699C66.1072 40.9685 64.9322 40.9685 63.7559 40.9685Z" fill="white"/>
<path d="M62.5195 38.2672C62.5723 38.0965 62.6001 37.9201 62.6445 37.748C62.6709 37.6472 62.6931 37.545 62.7279 37.4457C62.8445 37.1182 63.0793 36.9432 63.4168 36.8956C63.4973 36.8844 63.5779 36.8816 63.6584 36.8816C64.6515 36.8816 65.6445 36.883 66.6376 36.8802C66.7056 36.8802 66.7154 36.897 66.7001 36.96C66.6501 37.1629 66.6084 37.3687 66.557 37.5716C66.4348 38.0489 66.189 38.2519 65.7001 38.2896C65.6584 38.2924 65.6168 38.2938 65.5751 38.2938C64.5723 38.2938 63.5709 38.2938 62.5681 38.2938C62.5515 38.2938 62.5362 38.2952 62.5195 38.2952C62.5195 38.2854 62.5195 38.277 62.5195 38.2672Z" fill="white"/>
<path d="M47.5014 46.9394C57.109 46.9394 64.8974 39.151 64.8974 29.5434C64.8974 19.9359 57.109 12.1475 47.5014 12.1475C37.8939 12.1475 30.1055 19.9359 30.1055 29.5434C30.1055 39.151 37.8939 46.9394 47.5014 46.9394Z" fill="#CC2E2E"/>
<path d="M47.5021 42.5906C54.7077 42.5906 60.549 36.7493 60.549 29.5436C60.549 22.338 54.7077 16.4966 47.5021 16.4966C40.2964 16.4966 34.4551 22.338 34.4551 29.5436C34.4551 36.7493 40.2964 42.5906 47.5021 42.5906Z" fill="#A10000"/>
<path d="M43.2877 25.9626H40.5783C40.3855 25.9626 40.3145 26.0337 40.3145 26.2265V32.9036C40.3145 33.0964 40.3855 33.1675 40.5783 33.1675H41.0248C41.2277 33.1675 41.2988 33.0964 41.2988 32.9036V30.5494H43.2877C44.7287 30.5494 45.6217 29.697 45.6217 28.2662C45.6217 26.8252 44.7185 25.9626 43.2877 25.9626ZM43.1964 29.6361H41.2988V26.8759H43.1964C44.0691 26.8759 44.5968 27.3935 44.5968 28.2662C44.5968 29.1389 44.0691 29.6361 43.1964 29.6361Z" fill="white"/>
<path d="M53.6886 25.9626H53.303C53.0899 25.9626 53.029 26.0032 52.9377 26.1757L50.6138 30.316L48.2799 26.1656C48.1886 26.0032 48.1277 25.9626 47.9044 25.9626H47.5493C47.3564 25.9626 47.2854 26.0337 47.2854 26.2265V32.9036C47.2854 33.0964 47.3564 33.1675 47.5493 33.1675H47.9349C48.1378 33.1675 48.1987 33.0964 48.1987 32.9036V29.2403C48.1987 28.6416 48.1581 28.0531 48.0363 27.3326H48.0972C48.3408 28.0429 48.5437 28.4793 48.8583 29.0171L50.1673 31.3308C50.2587 31.483 50.3196 31.5236 50.4819 31.5236H50.7356C50.898 31.5236 50.969 31.4728 51.0502 31.3308L52.3389 29.0374C52.6434 28.4996 52.8971 28.0125 53.1508 27.3326H53.2015C53.0797 28.0429 53.0188 28.6721 53.0188 29.2403V32.9036C53.0188 33.0964 53.0797 33.1675 53.2827 33.1675H53.6886C53.8814 33.1675 53.9524 33.0964 53.9524 32.9036V26.2265C53.9524 26.0337 53.8814 25.9626 53.6886 25.9626Z" fill="white"/>
<path d="M50.5 21C56.299 21 61 16.299 61 10.5C61 4.70101 56.299 0 50.5 0C44.701 0 40 4.70101 40 10.5C40 16.299 44.701 21 50.5 21Z" fill="#EDF9FF"/>
<path d="M50.5 18.375C54.8492 18.375 58.375 14.8492 58.375 10.5C58.375 6.15076 54.8492 2.625 50.5 2.625C46.1508 2.625 42.625 6.15076 42.625 10.5C42.625 14.8492 46.1508 18.375 50.5 18.375Z" fill="#B9DFF0"/>
<path d="M47.9805 10.3991C48.041 10.2725 48.1198 10.1562 48.1917 10.0364C48.6119 9.33731 49.0344 8.63932 49.4557 7.94019C49.8039 7.36195 50.1533 6.78372 50.5027 6.20662C50.5096 6.19407 50.513 6.17811 50.5301 6.17126C50.5461 6.18153 50.5381 6.19864 50.5404 6.21118C50.5199 6.22715 50.5278 6.24996 50.5278 6.26935C50.5278 6.49175 50.5278 6.713 50.5278 6.9354C50.5278 7.70981 50.5278 8.48421 50.5267 9.25861C50.3611 9.31906 50.2047 9.40118 50.0449 9.47303C49.3986 9.765 48.7535 10.0604 48.1072 10.3535C48.0672 10.3717 48.0296 10.4014 47.9805 10.3991Z" fill="#338BB4"/>
<path d="M50.5277 9.25861C50.5277 8.48421 50.5277 7.70981 50.5289 6.9354C50.5289 6.713 50.5289 6.49175 50.5289 6.26935C50.5289 6.24996 50.5209 6.22715 50.5414 6.21118C50.5666 6.22373 50.5791 6.24768 50.5928 6.26935C50.7572 6.54193 50.9228 6.81565 51.0872 7.08823C51.2573 7.36994 51.4275 7.65164 51.5976 7.93334C51.7849 8.24356 51.9733 8.55492 52.1594 8.86514C52.1765 8.89365 52.1913 8.92444 52.2073 8.9541C52.2085 8.96208 52.2096 8.97006 52.2199 8.97234L52.2188 8.9712C52.2188 8.99173 52.2165 9.0134 52.2462 9.01454L52.2439 9.0134C52.2439 9.02139 52.2462 9.02595 52.2541 9.02937L52.253 9.02823C52.2519 9.04876 52.2507 9.07043 52.2804 9.07271L52.2793 9.07157C52.277 9.08297 52.2747 9.09552 52.2941 9.0921L52.2953 9.09438C52.2838 9.11719 52.293 9.12745 52.3158 9.12859L52.3135 9.12745C52.3124 9.13544 52.3158 9.14114 52.3227 9.14342L52.3215 9.14228C52.3204 9.16281 52.3192 9.18448 52.3489 9.18676L52.3466 9.18562C52.3455 9.1936 52.3489 9.19931 52.3569 9.20159L52.3558 9.20045C52.3535 9.22326 52.3558 9.24379 52.3855 9.24721C52.4631 9.37494 52.5419 9.50268 52.6195 9.63042C52.7349 9.82088 52.8502 10.0113 52.9655 10.203C52.9975 10.2566 53.0237 10.3147 53.0614 10.3649C53.0534 10.3706 53.0523 10.3786 53.0523 10.3877C53.034 10.3832 53.0146 10.382 52.9975 10.3752C52.8582 10.3124 52.7189 10.2497 52.5796 10.1858C52.4334 10.1186 52.2895 10.049 52.1423 9.98511C51.9082 9.88361 51.6787 9.77298 51.4435 9.67147C51.2128 9.57225 50.9867 9.46048 50.7584 9.35669C50.6819 9.32248 50.6042 9.29169 50.5277 9.25861Z" fill="#003868"/>
<path d="M53.0524 10.3889C53.0524 10.3797 53.0536 10.3718 53.0616 10.3661C53.073 10.3832 53.0844 10.4014 53.097 10.4208C52.8937 10.5406 52.6916 10.6592 52.4895 10.7789C51.8501 11.1564 51.2118 11.5339 50.5724 11.9114C50.5519 11.924 50.5313 11.9514 50.5039 11.9194C50.5347 11.9137 50.5279 11.8898 50.5279 11.8704C50.5279 11.0002 50.5279 10.13 50.5279 9.25977C50.6044 9.29284 50.682 9.32363 50.7574 9.35785C50.9858 9.46278 51.2118 9.57455 51.4425 9.67263C51.6765 9.77299 51.906 9.88476 52.1413 9.98627C52.2886 10.0501 52.4324 10.1197 52.5786 10.187C52.7179 10.2509 52.8572 10.3136 52.9965 10.3763C53.0136 10.3832 53.0342 10.3843 53.0524 10.3889C53.0536 10.39 53.0559 10.3911 53.057 10.3911C53.0547 10.3911 53.0536 10.39 53.0524 10.3889Z" fill="#00183A"/>
<path d="M50.5274 9.25861C50.5274 10.1288 50.5274 10.999 50.5274 11.8692C50.5274 11.8897 50.5331 11.9126 50.5034 11.9183H50.5046C50.5034 11.9114 50.5011 11.9057 50.4943 11.9137C50.3607 11.8293 50.218 11.7575 50.0855 11.6696C50.0239 11.6286 49.9576 11.5909 49.8891 11.559C49.856 11.543 49.8332 11.5122 49.7966 11.5008C49.7886 11.4689 49.7658 11.4609 49.7361 11.4643L49.7373 11.4655C49.7304 11.4335 49.7087 11.4267 49.679 11.4313L49.6779 11.4278L49.679 11.4313C49.6745 11.3902 49.6448 11.3902 49.614 11.3913L49.6151 11.3925C49.6128 11.3845 49.6071 11.3822 49.5991 11.3822L49.6002 11.3845C49.6025 11.3537 49.5854 11.3549 49.5649 11.364C49.566 11.34 49.5466 11.348 49.5352 11.3457C49.5237 11.3263 49.5123 11.307 49.4849 11.3161C49.4815 11.2727 49.4472 11.2807 49.4198 11.2762L49.421 11.2773C49.4153 11.2442 49.389 11.2431 49.3628 11.2431L49.3639 11.2442C49.3582 11.2408 49.3525 11.2362 49.3468 11.2328C49.1618 11.1256 48.9757 11.0184 48.7918 10.9112C48.6617 10.8348 48.5315 10.7584 48.4013 10.6808C48.2666 10.6021 48.133 10.5223 47.9994 10.4424C47.9857 10.4345 47.9446 10.4299 47.9823 10.398C48.0303 10.4003 48.0679 10.3706 48.109 10.3523C48.753 10.0604 49.3981 9.76499 50.0456 9.47416C50.2054 9.40117 50.3618 9.31905 50.5274 9.25861Z" fill="#003D6E"/>
<path d="M50.5427 14.4856C50.5416 14.4947 50.5427 14.5084 50.537 14.5118C50.5176 14.5243 50.5164 14.5015 50.5096 14.4935C50.4194 14.3681 50.3303 14.2438 50.2413 14.1183C49.9261 13.6758 49.6121 13.2321 49.2981 12.7896C48.8654 12.1806 48.4326 11.5716 47.9999 10.9625C47.9919 10.9523 47.9873 10.9397 47.9805 10.9283L47.9839 10.9249C48.2248 11.0652 48.4657 11.2055 48.7055 11.3469C49.072 11.5624 49.4374 11.7791 49.8039 11.9958C50.046 12.1384 50.2881 12.2798 50.5301 12.4224C50.5301 13.0873 50.5301 13.7522 50.5313 14.4171C50.5301 14.4399 50.5199 14.4662 50.5427 14.4856Z" fill="#338BB4"/>
<path d="M50.5403 14.4856C50.5174 14.4662 50.5277 14.4388 50.5277 14.416C50.5266 13.7511 50.5266 13.0862 50.5266 12.4212C50.619 12.3802 50.7001 12.3197 50.788 12.2718C50.9308 12.1943 51.0632 12.0985 51.2082 12.0266C51.2573 12.0027 51.303 11.9685 51.3509 11.9399C51.5176 11.8384 51.6855 11.7381 51.8556 11.6411C51.9013 11.6149 51.947 11.5887 51.9926 11.5624C52.0223 11.5659 52.0463 11.5579 52.0532 11.5248L52.052 11.5259C52.0646 11.5282 52.0748 11.5271 52.0737 11.5111V11.5134C52.0817 11.5157 52.0874 11.5123 52.0897 11.5043L52.0886 11.5054C52.1102 11.5066 52.1308 11.5077 52.1331 11.478L52.1319 11.4792C52.1445 11.4826 52.1548 11.4837 52.1525 11.4655L52.1548 11.4644C52.1822 11.4746 52.1993 11.4655 52.205 11.437L52.2039 11.4381C52.2244 11.4393 52.245 11.4393 52.2484 11.4108L52.2473 11.4119C52.2598 11.4142 52.2701 11.4142 52.269 11.3971L52.2724 11.4016C52.2724 11.4016 52.2678 11.3982 52.269 11.3982C52.2895 11.4062 52.3066 11.4073 52.3055 11.3777L52.3044 11.3788C52.3192 11.3834 52.3283 11.3788 52.3306 11.3629C52.39 11.3264 52.4494 11.2899 52.5099 11.2545C52.6537 11.1712 52.7976 11.088 52.9415 11.0047C52.9472 11.0013 52.9529 10.9968 52.9586 10.9933L52.9575 10.9945C52.9769 11.0036 53.0089 10.966 53.0203 11.0104L53.0214 11.0093C53.0077 11.0104 53.0054 11.0207 53.0054 11.031L53.0066 11.0298C53.0031 11.0344 52.9997 11.0401 52.9951 11.0447L52.9974 11.0424C52.9894 11.0435 52.9849 11.0481 52.9872 11.0572H52.9883C52.9632 11.0549 52.9586 11.0697 52.9632 11.0903L52.9643 11.0891C52.9495 11.0903 52.9483 11.0994 52.9483 11.1108L52.9495 11.1097C52.9461 11.1142 52.9426 11.1199 52.9381 11.1245L52.9403 11.1222C52.9323 11.1233 52.9278 11.1279 52.9301 11.137L52.9312 11.1382C52.9049 11.1348 52.9015 11.1507 52.9061 11.1712L52.9072 11.169C52.8924 11.1701 52.8912 11.1792 52.8912 11.1906L52.8924 11.1895C52.8844 11.1918 52.8821 11.1963 52.881 11.2043L52.8833 11.202C52.8753 11.2032 52.8707 11.2077 52.873 11.2169V11.218C52.8456 11.2146 52.8433 11.2294 52.849 11.2499L52.8501 11.2488C52.8353 11.2488 52.833 11.2579 52.8342 11.2705L52.8353 11.2693C52.8319 11.2739 52.8284 11.2796 52.8239 11.2842L52.8262 11.2819C52.8182 11.283 52.8136 11.2876 52.817 11.2967V11.2978C52.7999 11.2944 52.7999 11.3058 52.801 11.3172L52.8022 11.3161C52.7942 11.3172 52.7896 11.3229 52.7908 11.3309L52.793 11.3298C52.7771 11.3286 52.7759 11.3389 52.7771 11.3514L52.7782 11.3503C52.7702 11.3526 52.7668 11.3583 52.7668 11.3651L52.7691 11.3629C52.7554 11.364 52.7531 11.3743 52.7531 11.3845L52.7542 11.3834C52.7223 11.3845 52.7165 11.4039 52.72 11.4301L52.7211 11.429C52.7131 11.4313 52.7097 11.4358 52.7097 11.4438L52.712 11.4415C52.6971 11.4427 52.696 11.4518 52.696 11.4632L52.6971 11.4621C52.6937 11.4666 52.6903 11.4723 52.6857 11.4769L52.688 11.4746C52.68 11.4758 52.6754 11.4803 52.6777 11.4894C52.6777 11.4894 52.68 11.4883 52.6789 11.4883C52.6629 11.4872 52.6617 11.4974 52.6629 11.5088L52.664 11.5077C52.6378 11.5066 52.6389 11.5237 52.64 11.5419L52.6412 11.5408C52.6378 11.5453 52.6343 11.551 52.6298 11.5556L52.6321 11.5533C52.6229 11.5545 52.6195 11.559 52.6218 11.5681H52.6229C52.5967 11.5659 52.5932 11.5807 52.5978 11.6012L52.5989 11.6001C52.5841 11.6001 52.583 11.6103 52.583 11.6217L52.5841 11.6206C52.5807 11.6252 52.5772 11.6309 52.5727 11.6354L52.575 11.6332C52.567 11.6343 52.5624 11.6389 52.5658 11.648V11.6491C52.5384 11.6457 52.5361 11.6605 52.5419 11.6811L52.543 11.6799C52.5281 11.6799 52.5259 11.6902 52.527 11.7016L52.5281 11.7004C52.5202 11.7027 52.5167 11.7073 52.5167 11.7153L52.519 11.713C52.5053 11.7141 52.5042 11.7244 52.503 11.7347L52.5042 11.7335C52.4859 11.7347 52.4779 11.7426 52.4859 11.7609V11.762C52.4562 11.7529 52.4574 11.7734 52.4585 11.7917L52.4596 11.7905C52.4482 11.7951 52.4471 11.8042 52.4471 11.8145L52.4482 11.8134C52.4448 11.8179 52.4414 11.8236 52.4379 11.8282L52.4402 11.8259C52.4322 11.827 52.4277 11.8316 52.43 11.8407H52.4311C52.406 11.8384 52.4014 11.8533 52.406 11.8738L52.4071 11.8727C52.3923 11.8727 52.3911 11.8829 52.3911 11.8943L52.3923 11.8932C52.3888 11.8977 52.3854 11.9035 52.3809 11.908L52.3831 11.9057C52.3751 11.9069 52.3706 11.9114 52.374 11.9206V11.9217C52.3477 11.9183 52.3443 11.9342 52.3489 11.9548L52.35 11.9536C52.3352 11.9536 52.334 11.9639 52.334 11.9753L52.3352 11.9742C52.3272 11.9764 52.3249 11.981 52.3238 11.989L52.326 11.9867C52.3123 11.9878 52.3112 11.9981 52.3101 12.0084L52.3112 12.0072C52.2929 12.0084 52.2861 12.0164 52.2918 12.0346L52.2929 12.0335C52.2781 12.0335 52.2758 12.0426 52.277 12.0551L52.2781 12.054C52.2701 12.0563 52.2667 12.062 52.2667 12.0688L52.269 12.0665C52.261 12.0677 52.2564 12.0722 52.2598 12.0814V12.0825C52.2427 12.0791 52.2427 12.0905 52.2438 12.1019L52.245 12.0996C52.2324 12.1019 52.2313 12.1122 52.2301 12.1224V12.1213C52.2267 12.1259 52.2221 12.1304 52.2187 12.135L52.2199 12.1338C52.2119 12.1361 52.2084 12.1407 52.2084 12.1487L52.2107 12.1464C52.1959 12.1475 52.1947 12.1578 52.1947 12.168L52.1959 12.1669C52.1776 12.168 52.1696 12.176 52.1776 12.1943V12.1931C52.1616 12.192 52.1605 12.2023 52.1616 12.2148L52.1628 12.2137C52.1548 12.216 52.1514 12.2205 52.1514 12.2285L52.1536 12.2262C52.1388 12.2274 52.1376 12.2365 52.1376 12.2479L52.1388 12.2467C52.1354 12.2513 52.1319 12.257 52.1274 12.2616L52.1297 12.2593C52.1217 12.2604 52.1171 12.265 52.1205 12.2741H52.1217C52.1057 12.2718 52.1045 12.2821 52.1057 12.2935L52.1068 12.2924C52.0988 12.2946 52.0954 12.2992 52.0954 12.3072L52.0977 12.3049C52.0828 12.3049 52.0817 12.3152 52.0817 12.3266L52.0828 12.3254C52.0794 12.33 52.076 12.3357 52.0714 12.3403L52.0737 12.338C52.0657 12.3391 52.0611 12.3437 52.0634 12.3528H52.0646C52.0349 12.3494 52.036 12.3699 52.036 12.3893C51.9538 12.5068 51.8739 12.6254 51.7905 12.7417C51.5028 13.1477 51.2139 13.5526 50.9262 13.9586C50.8097 14.1229 50.6933 14.286 50.5768 14.4491C50.5665 14.4662 50.5608 14.4833 50.5403 14.4856Z" fill="#013767"/>
<path d="M53.0198 11.0082C53.0096 10.9637 52.9776 11.0025 52.957 10.9922C52.9913 10.9626 53.0324 10.9443 53.0724 10.9238L53.0712 10.9226C53.0689 10.9603 53.0404 10.9819 53.0198 11.0082Z" fill="#00183A"/>
<path d="M49.6133 11.3936C49.6441 11.3925 49.6738 11.3925 49.6784 11.4336C49.6567 11.4199 49.635 11.4062 49.6133 11.3936Z" fill="#00183A"/>
<path d="M49.4199 11.2785C49.4473 11.283 49.4816 11.2751 49.485 11.3184C49.4622 11.3047 49.4405 11.2922 49.4199 11.2785Z" fill="#00183A"/>
<path d="M49.7344 11.4655C49.7641 11.4621 49.7869 11.47 49.7949 11.502C49.7755 11.4906 49.7549 11.478 49.7344 11.4655Z" fill="#00183A"/>
<path d="M52.0566 11.5248C52.0486 11.5579 52.0258 11.5658 51.9961 11.5624C52.0121 11.5442 52.0338 11.5339 52.0566 11.5248Z" fill="#00183A"/>
<path d="M49.6777 11.4324C49.7063 11.4267 49.7291 11.4336 49.736 11.4666C49.712 11.4632 49.696 11.4472 49.6777 11.4324Z" fill="#00183A"/>
<path d="M49.3613 11.2442C49.3876 11.2454 49.4127 11.2454 49.4196 11.2784C49.3944 11.2784 49.3807 11.2556 49.3613 11.2442Z" fill="#00183A"/>
<path d="M52.2065 11.437C52.2008 11.4655 52.1837 11.4746 52.1562 11.4644C52.1734 11.4552 52.1905 11.4461 52.2065 11.437Z" fill="#00183A"/>
<path d="M52.7216 11.429C52.7182 11.4027 52.7239 11.3833 52.7558 11.3822C52.7478 11.4005 52.7376 11.4164 52.7216 11.429Z" fill="#00183A"/>
<path d="M49.4844 11.3172C49.5118 11.3081 49.5232 11.3275 49.5346 11.3469C49.5186 11.3378 49.5015 11.3275 49.4844 11.3172Z" fill="#00183A"/>
<path d="M52.3857 9.24723C52.3572 9.24381 52.3538 9.22328 52.356 9.20047C52.3709 9.21302 52.3789 9.23012 52.3857 9.24723Z" fill="#00183A"/>
<path d="M52.0352 12.3927C52.0352 12.3733 52.034 12.3528 52.0637 12.3562C52.0557 12.3688 52.0511 12.3848 52.0352 12.3927Z" fill="#00183A"/>
<path d="M52.1344 11.478C52.1321 11.5077 52.1115 11.5065 52.0898 11.5054C52.1013 11.4906 52.1172 11.4849 52.1344 11.478Z" fill="#00183A"/>
<path d="M52.2466 9.01685C52.2169 9.01571 52.218 8.99404 52.2192 8.97351C52.234 8.98378 52.2397 9.00088 52.2466 9.01685Z" fill="#00183A"/>
<path d="M52.2817 9.07387C52.2521 9.07159 52.2532 9.05106 52.2543 9.02939C52.2692 9.04193 52.2749 9.0579 52.2817 9.07387Z" fill="#00183A"/>
<path d="M52.2477 11.4108C52.2442 11.4393 52.2237 11.4381 52.2031 11.4381C52.218 11.429 52.2328 11.4199 52.2477 11.4108Z" fill="#00183A"/>
<path d="M52.3061 11.3765C52.3072 11.4062 52.2901 11.405 52.2695 11.3971C52.2821 11.3914 52.2935 11.3834 52.3061 11.3765Z" fill="#00183A"/>
<path d="M49.5645 11.3651C49.585 11.356 49.6021 11.3549 49.5998 11.3857C49.5884 11.3788 49.577 11.372 49.5645 11.3651Z" fill="#00183A"/>
<path d="M52.3482 9.18791C52.3185 9.18677 52.3196 9.1651 52.3208 9.14343C52.3356 9.15484 52.3413 9.17195 52.3482 9.18791Z" fill="#00183A"/>
<path d="M52.5994 11.6023C52.5948 11.5818 52.5982 11.567 52.6245 11.5693C52.6165 11.5807 52.6085 11.5909 52.5994 11.6023Z" fill="#00183A"/>
<path d="M52.5436 11.6822C52.5378 11.6617 52.5401 11.6457 52.5675 11.6503C52.5595 11.6605 52.5515 11.6719 52.5436 11.6822Z" fill="#00183A"/>
<path d="M52.908 11.169C52.9034 11.1485 52.9068 11.1336 52.9331 11.1359C52.9251 11.1473 52.9171 11.1576 52.908 11.169Z" fill="#00183A"/>
<path d="M52.6391 11.5419C52.638 11.5237 52.6369 11.5065 52.6631 11.5077C52.6585 11.5214 52.6517 11.5339 52.6391 11.5419Z" fill="#00183A"/>
<path d="M52.459 11.7928C52.459 11.7735 52.4578 11.7541 52.4864 11.7632C52.4807 11.7757 52.4738 11.7883 52.459 11.7928Z" fill="#00183A"/>
<path d="M52.85 11.2488C52.8443 11.2283 52.8477 11.2135 52.874 11.2169C52.866 11.2272 52.858 11.2386 52.85 11.2488Z" fill="#00183A"/>
<path d="M52.3147 9.12974C52.2908 9.12859 52.2828 9.11719 52.2942 9.09552C52.301 9.10693 52.3079 9.11833 52.3147 9.12974Z" fill="#00183A"/>
<path d="M52.4039 11.8761C52.3993 11.8556 52.4039 11.8407 52.429 11.843C52.421 11.8533 52.4119 11.8647 52.4039 11.8761Z" fill="#00183A"/>
<path d="M52.3474 11.9559C52.3428 11.9354 52.3463 11.9206 52.3725 11.9228C52.3645 11.9342 52.3565 11.9445 52.3474 11.9559Z" fill="#00183A"/>
<path d="M52.9645 11.0891C52.9599 11.0686 52.9645 11.0538 52.9896 11.056C52.9816 11.0663 52.9724 11.0777 52.9645 11.0891Z" fill="#00183A"/>
<path d="M52.1789 12.1954C52.1709 12.1772 52.1789 12.1692 52.1971 12.168C52.1903 12.1772 52.1846 12.1863 52.1789 12.1954Z" fill="#00183A"/>
<path d="M52.4876 11.762C52.4797 11.7438 52.4865 11.7358 52.5059 11.7346C52.4991 11.7438 52.4934 11.7529 52.4876 11.762Z" fill="#00183A"/>
<path d="M52.291 12.0357C52.2853 12.0175 52.2922 12.0095 52.3104 12.0084C52.3036 12.0175 52.2967 12.0266 52.291 12.0357Z" fill="#00183A"/>
<path d="M49.5332 11.3469C49.5446 11.3503 49.564 11.3412 49.5629 11.3651C49.5538 11.3594 49.5435 11.3526 49.5332 11.3469Z" fill="#00183A"/>
<path d="M52.3309 11.3617C52.3298 11.3788 52.3195 11.3822 52.3047 11.3777C52.3138 11.372 52.3218 11.3674 52.3309 11.3617Z" fill="#00183A"/>
<path d="M52.8033 11.3161C52.8021 11.3047 52.801 11.2933 52.8193 11.2967C52.8136 11.3024 52.8079 11.3093 52.8033 11.3161Z" fill="#00183A"/>
<path d="M52.3105 12.0095C52.3105 11.9981 52.3117 11.989 52.3265 11.9878C52.3208 11.9947 52.3163 12.0027 52.3105 12.0095Z" fill="#00183A"/>
<path d="M52.3887 11.8954C52.3887 11.884 52.3898 11.8738 52.4047 11.8738C52.4001 11.8818 52.3944 11.8886 52.3887 11.8954Z" fill="#00183A"/>
<path d="M52.7773 11.3492C52.7773 11.3377 52.7773 11.3275 52.7933 11.3275C52.7876 11.3343 52.7819 11.3423 52.7773 11.3492Z" fill="#00183A"/>
<path d="M52.9492 11.1085C52.9492 11.0971 52.9504 11.0869 52.9652 11.0869C52.9606 11.0948 52.9549 11.1017 52.9492 11.1085Z" fill="#00183A"/>
<path d="M52.8359 11.2693C52.8359 11.2579 52.8371 11.2477 52.8519 11.2477C52.8474 11.2545 52.8416 11.2613 52.8359 11.2693Z" fill="#00183A"/>
<path d="M52.1624 12.2159C52.1613 12.2045 52.1624 12.1942 52.1784 12.1942C52.1727 12.2022 52.1681 12.2091 52.1624 12.2159Z" fill="#00183A"/>
<path d="M52.332 11.9764C52.332 11.965 52.3332 11.9547 52.348 11.9547C52.3434 11.9616 52.3377 11.9684 52.332 11.9764Z" fill="#00183A"/>
<path d="M52.4473 11.8156C52.4473 11.8054 52.4484 11.7951 52.4598 11.7917C52.4575 11.8008 52.4587 11.8122 52.4473 11.8156Z" fill="#00183A"/>
<path d="M52.1387 12.249C52.1387 12.2376 52.1398 12.2274 52.1547 12.2274C52.1489 12.2353 52.1444 12.2422 52.1387 12.249Z" fill="#00183A"/>
<path d="M52.2776 12.0563C52.2765 12.0449 52.2787 12.0346 52.2936 12.0346C52.2879 12.0415 52.2822 12.0483 52.2776 12.0563Z" fill="#00183A"/>
<path d="M52.2934 9.09325C52.2752 9.09667 52.2763 9.08527 52.2786 9.07272C52.2832 9.07957 52.2877 9.08641 52.2934 9.09325Z" fill="#00183A"/>
<path d="M52.2697 11.397C52.2697 11.4141 52.2595 11.4141 52.248 11.4119C52.2549 11.4073 52.2617 11.4027 52.2697 11.397Z" fill="#00183A"/>
<path d="M53.0078 11.0287C53.0078 11.0173 53.009 11.0081 53.0238 11.007C53.0181 11.015 53.0135 11.0218 53.0078 11.0287Z" fill="#00183A"/>
<path d="M52.1058 12.2958C52.1046 12.2844 52.1058 12.2741 52.1218 12.2764C52.1172 12.2832 52.1115 12.2889 52.1058 12.2958Z" fill="#00183A"/>
<path d="M52.2446 12.103C52.2434 12.0916 52.2434 12.0802 52.2605 12.0837C52.256 12.0894 52.2503 12.0962 52.2446 12.103Z" fill="#00183A"/>
<path d="M52.2285 12.1236C52.2297 12.1133 52.2308 12.1031 52.2434 12.1008C52.2377 12.1088 52.2331 12.1156 52.2285 12.1236Z" fill="#00183A"/>
<path d="M52.6992 11.4621C52.6992 11.4507 52.7004 11.4404 52.7152 11.4404C52.7095 11.4484 52.7049 11.4553 52.6992 11.4621Z" fill="#00183A"/>
<path d="M52.082 12.3289C52.082 12.3175 52.0832 12.3072 52.098 12.3072C52.0934 12.3152 52.0877 12.322 52.082 12.3289Z" fill="#00183A"/>
<path d="M52.5039 11.7358C52.5039 11.7255 52.505 11.7153 52.5199 11.7141C52.5142 11.721 52.5096 11.729 52.5039 11.7358Z" fill="#00183A"/>
<path d="M52.1534 11.4655C52.1556 11.4838 52.1454 11.4826 52.1328 11.4792C52.1397 11.4746 52.1465 11.4701 52.1534 11.4655Z" fill="#00183A"/>
<path d="M52.5276 11.7027C52.5265 11.6913 52.5287 11.681 52.5436 11.681C52.5379 11.6879 52.5322 11.6947 52.5276 11.7027Z" fill="#00183A"/>
<path d="M52.8926 11.1895C52.8926 11.1781 52.8937 11.1678 52.9086 11.1678C52.904 11.1747 52.8983 11.1815 52.8926 11.1895Z" fill="#00183A"/>
<path d="M52.6644 11.5088C52.6632 11.4963 52.6644 11.4871 52.6804 11.4883C52.6747 11.4951 52.6701 11.502 52.6644 11.5088Z" fill="#00183A"/>
<path d="M52.1973 12.1692C52.1973 12.1578 52.1984 12.1487 52.2133 12.1475C52.2075 12.1544 52.203 12.1623 52.1973 12.1692Z" fill="#00183A"/>
<path d="M52.5859 11.6229C52.5859 11.6115 52.5871 11.6012 52.6019 11.6012C52.5974 11.6081 52.5916 11.6149 52.5859 11.6229Z" fill="#00183A"/>
<path d="M52.0764 11.5111C52.0764 11.5271 52.0661 11.5282 52.0547 11.5259C52.0615 11.5214 52.0684 11.5168 52.0764 11.5111Z" fill="#00183A"/>
<path d="M52.2196 8.97464C52.2093 8.97236 52.2082 8.96437 52.207 8.95639C52.2173 8.95753 52.2173 8.96665 52.2196 8.97464Z" fill="#00183A"/>
<path d="M52.7539 11.3822C52.7539 11.3708 52.755 11.3617 52.7699 11.3606C52.7642 11.3674 52.7596 11.3754 52.7539 11.3822Z" fill="#00183A"/>
<path d="M52.6237 11.5693C52.6214 11.5601 52.6249 11.5556 52.634 11.5544C52.6294 11.559 52.6272 11.5636 52.6237 11.5693Z" fill="#00183A"/>
<path d="M52.6328 11.5556C52.6362 11.551 52.6397 11.5453 52.6442 11.5408C52.6397 11.5465 52.6362 11.551 52.6328 11.5556Z" fill="#00183A"/>
<path d="M47.9798 10.9293C47.9748 10.9268 47.9723 10.923 47.9773 10.918C47.9798 10.9205 47.9811 10.923 47.9836 10.9255L47.9798 10.9293Z" fill="#338BB4"/>
<path d="M52.5742 11.6366C52.5776 11.632 52.5811 11.6263 52.5856 11.6218C52.5811 11.6263 52.5776 11.6309 52.5742 11.6366Z" fill="#00183A"/>
<path d="M52.5656 11.6491C52.5622 11.64 52.5667 11.6366 52.5747 11.6343C52.5725 11.6388 52.569 11.6434 52.5656 11.6491Z" fill="#00183A"/>
<path d="M52.0922 11.5042C52.0899 11.5122 52.0842 11.5156 52.0762 11.5134C52.0819 11.5099 52.0864 11.5077 52.0922 11.5042Z" fill="#00183A"/>
<path d="M52.6799 11.4895C52.6788 11.4803 52.6822 11.4758 52.6902 11.4746C52.6868 11.4792 52.6833 11.4838 52.6799 11.4895Z" fill="#00183A"/>
<path d="M52.5176 11.7164C52.5176 11.7084 52.521 11.7038 52.529 11.7016C52.5244 11.7061 52.521 11.7107 52.5176 11.7164Z" fill="#00183A"/>
<path d="M52.6875 11.4758C52.6909 11.4712 52.6944 11.4655 52.6989 11.4609C52.6955 11.4666 52.6921 11.4712 52.6875 11.4758Z" fill="#00183A"/>
<path d="M52.2544 9.03165C52.2464 9.02937 52.2441 9.02367 52.2441 9.01569C52.2476 9.02025 52.251 9.02595 52.2544 9.03165Z" fill="#00183A"/>
<path d="M53.0748 10.9255C53.0773 10.923 53.0798 10.9205 53.0835 10.918C53.0835 10.9205 53.0835 10.9243 53.0835 10.9268C53.081 10.9255 53.0773 10.9243 53.0748 10.923C53.0735 10.923 53.0748 10.9255 53.0748 10.9255Z" fill="#00183A"/>
<path d="M49.5977 11.3834C49.6056 11.3834 49.6102 11.3856 49.6136 11.3936C49.6079 11.3902 49.6022 11.3868 49.5977 11.3834Z" fill="#00183A"/>
<path d="M52.4355 11.8293C52.439 11.8247 52.4424 11.819 52.4458 11.8145C52.4435 11.8202 52.4401 11.8247 52.4355 11.8293Z" fill="#00183A"/>
<path d="M52.4283 11.843C52.426 11.8339 52.4306 11.8293 52.4386 11.8282C52.4352 11.8327 52.4317 11.8373 52.4283 11.843Z" fill="#00183A"/>
<path d="M52.7676 11.3629C52.7676 11.3549 52.771 11.3503 52.779 11.3481C52.7744 11.3526 52.771 11.3572 52.7676 11.3629Z" fill="#00183A"/>
<path d="M52.7932 11.3286C52.792 11.3206 52.7955 11.3149 52.8046 11.3138C52.8012 11.3195 52.7966 11.324 52.7932 11.3286Z" fill="#00183A"/>
<path d="M52.3789 11.9091C52.3823 11.9046 52.3858 11.8989 52.3903 11.8943C52.3869 11.9 52.3835 11.9046 52.3789 11.9091Z" fill="#00183A"/>
<path d="M50.4941 11.9152C50.5029 11.9065 50.5041 11.9127 50.5054 11.9202C50.5016 11.919 50.4979 11.9165 50.4941 11.9152Z" fill="#00183A"/>
<path d="M52.3722 11.9228C52.3688 11.9137 52.3734 11.9092 52.3814 11.908C52.378 11.9126 52.3757 11.9171 52.3722 11.9228Z" fill="#00183A"/>
<path d="M52.3219 9.14454C52.3139 9.14226 52.3116 9.13655 52.3128 9.12857C52.3162 9.13427 52.3185 9.13998 52.3219 9.14454Z" fill="#00183A"/>
<path d="M52.8195 11.2955C52.8161 11.2864 52.8207 11.283 52.8286 11.2807C52.8264 11.2853 52.8229 11.2898 52.8195 11.2955Z" fill="#00183A"/>
<path d="M52.3242 11.9901C52.3242 11.9821 52.3276 11.9776 52.3356 11.9753C52.3311 11.9798 52.3276 11.9844 52.3242 11.9901Z" fill="#00183A"/>
<path d="M52.8242 11.283C52.8276 11.2785 52.8311 11.2728 52.8356 11.2682C52.8311 11.2728 52.8276 11.2773 52.8242 11.283Z" fill="#00183A"/>
<path d="M52.356 9.20161C52.348 9.19932 52.3457 9.19362 52.3457 9.18564C52.3491 9.19134 52.3526 9.19704 52.356 9.20161Z" fill="#00183A"/>
<path d="M49.3457 11.234C49.3514 11.2374 49.3571 11.242 49.3628 11.2454C49.3571 11.242 49.3514 11.2374 49.3457 11.234Z" fill="#00183A"/>
<path d="M52.2676 12.07C52.2676 12.062 52.271 12.0574 52.279 12.0551C52.2744 12.0597 52.271 12.0643 52.2676 12.07Z" fill="#00183A"/>
<path d="M52.259 12.0825C52.2555 12.0734 52.2601 12.07 52.2681 12.0677C52.2658 12.0723 52.2624 12.0768 52.259 12.0825Z" fill="#00183A"/>
<path d="M52.8757 11.2157C52.8734 11.2066 52.8768 11.2031 52.886 11.2009C52.8825 11.2054 52.8791 11.21 52.8757 11.2157Z" fill="#00183A"/>
<path d="M52.8828 11.2032C52.8828 11.1952 52.8862 11.1906 52.8942 11.1884C52.8897 11.1929 52.8862 11.1975 52.8828 11.2032Z" fill="#00183A"/>
<path d="M52.2188 12.1361C52.2222 12.1315 52.2267 12.127 52.2302 12.1224C52.2267 12.127 52.2233 12.1315 52.2188 12.1361Z" fill="#00183A"/>
<path d="M52.2109 12.1498C52.2109 12.1418 52.2144 12.1372 52.2224 12.1349C52.2178 12.1395 52.2144 12.1441 52.2109 12.1498Z" fill="#00183A"/>
<path d="M52.9323 11.1359C52.93 11.1268 52.9335 11.1222 52.9426 11.1211C52.938 11.1256 52.9358 11.1302 52.9323 11.1359Z" fill="#00183A"/>
<path d="M52.9395 11.1233C52.9429 11.1188 52.9463 11.1131 52.9509 11.1085C52.9463 11.1131 52.9429 11.1176 52.9395 11.1233Z" fill="#00183A"/>
<path d="M52.9889 11.0561C52.9866 11.0469 52.9912 11.0424 52.9991 11.0412C52.9957 11.0458 52.9923 11.0504 52.9889 11.0561Z" fill="#00183A"/>
<path d="M52.1504 12.2296C52.1504 12.2217 52.1538 12.2171 52.1618 12.2148C52.1584 12.2194 52.1538 12.2251 52.1504 12.2296Z" fill="#00183A"/>
<path d="M52.9961 11.0424C52.9995 11.0378 53.0029 11.0321 53.0075 11.0275C53.0041 11.0332 52.9995 11.0378 52.9961 11.0424Z" fill="#00183A"/>
<path d="M52.1289 12.2627C52.1323 12.2582 52.1358 12.2525 52.1403 12.2479C52.1369 12.2536 52.1335 12.2582 52.1289 12.2627Z" fill="#00183A"/>
<path d="M52.1218 12.2764C52.1195 12.2673 52.1229 12.2627 52.1309 12.2616C52.1275 12.2662 52.1252 12.2707 52.1218 12.2764Z" fill="#00183A"/>
<path d="M52.9605 10.9922C52.9548 10.9956 52.9491 11.0001 52.9434 11.0036C52.9491 11.0001 52.9548 10.9956 52.9605 10.9922Z" fill="#00183A"/>
<path d="M52.0957 12.3095C52.0957 12.3015 52.0991 12.2969 52.1071 12.2946C52.1037 12.2992 52.1003 12.3049 52.0957 12.3095Z" fill="#00183A"/>
<path d="M52.0723 12.3437C52.0757 12.3391 52.0791 12.3334 52.0837 12.3289C52.0791 12.3334 52.0757 12.338 52.0723 12.3437Z" fill="#00183A"/>
<path d="M52.065 12.3562C52.0628 12.3471 52.0673 12.3425 52.0753 12.3414C52.0719 12.346 52.0685 12.3505 52.065 12.3562Z" fill="#00183A"/>
<path d="M52.7109 11.4427C52.7109 11.4347 52.7144 11.4301 52.7224 11.4278C52.7189 11.4324 52.7144 11.4369 52.7109 11.4427Z" fill="#00183A"/>
<path d="M53.0508 10.3889C53.052 10.3901 53.0545 10.3914 53.0558 10.3914C53.0533 10.3914 53.052 10.3901 53.0508 10.3889Z" fill="#003868"/>
<path d="M26 47C33.1797 47 39 41.1797 39 34C39 26.8203 33.1797 21 26 21C18.8203 21 13 26.8203 13 34C13 41.1797 18.8203 47 26 47Z" fill="#F8F8F8"/>
<path d="M26 43.75C31.3848 43.75 35.75 39.3848 35.75 34C35.75 28.6152 31.3848 24.25 26 24.25C20.6152 24.25 16.25 28.6152 16.25 34C16.25 39.3848 20.6152 43.75 26 43.75Z" fill="#E7E7E7"/>
<path d="M24.1089 37.7792C23.5321 37.7792 22.9554 37.7768 22.3786 37.7768C22.3362 37.7768 22.2915 37.7792 22.2491 37.7745C22.0255 37.7557 21.9407 37.6523 21.9737 37.4338C22.0537 36.891 22.1361 36.3505 22.2209 35.8101C22.3951 34.6728 22.5716 33.5378 22.7458 32.4006C22.8942 31.4442 23.033 30.4878 23.2096 29.5385C23.2779 29.1743 23.3838 29.0897 23.7558 29.0827C23.7958 29.1226 23.8382 29.1273 23.8782 29.0803C24.269 29.0803 24.6598 29.0803 25.0506 29.0803C25.0765 29.125 25.1189 29.1085 25.1565 29.1085C25.6745 29.1085 26.1947 29.1085 26.7127 29.1085C26.7503 29.1085 26.7927 29.1203 26.821 29.0827C27.2941 29.0874 27.7579 29.1461 28.2052 29.3012C29.2293 29.6513 29.6107 30.4126 29.5165 31.3995C29.5094 31.4771 29.5142 31.557 29.4788 31.6298C29.3776 31.6134 29.2929 31.5476 29.1963 31.517C28.855 31.4089 28.5018 31.3596 28.1487 31.3526C27.2518 31.3361 26.3525 31.3455 25.4555 31.3479C25.2695 31.3479 25.1377 31.4583 25.0859 31.6322C25.0365 31.7967 25.0082 31.9658 24.9823 32.135C24.9235 32.518 24.8693 32.9034 24.8081 33.2864C24.7351 33.7493 24.6574 34.2146 24.5845 34.6775C24.5798 34.7033 24.5774 34.7339 24.6033 34.7527C24.5892 34.7973 24.568 34.842 24.5609 34.8866C24.4879 35.3566 24.4173 35.8289 24.3443 36.2988C24.2714 36.7946 24.2054 37.2881 24.1089 37.7792Z" fill="#002E8A"/>
<path d="M24.1093 37.7791C24.2058 37.288 24.2717 36.7922 24.347 36.2987C24.42 35.8288 24.4906 35.3565 24.5636 34.8865C24.5707 34.8419 24.5919 34.7972 24.606 34.7526C24.6884 34.6092 24.8179 34.5411 24.9756 34.5129C25.1357 34.4824 25.2958 34.4918 25.4559 34.4941C25.9502 34.4988 26.4446 34.4918 26.9319 34.4001C27.5346 34.2873 28.0808 34.0523 28.514 33.6082C29.046 33.0607 29.3497 32.3958 29.4862 31.6509C29.9853 31.947 30.2372 32.4005 30.2725 32.9621C30.3243 33.8103 30.1266 34.5998 29.5616 35.2531C29.0978 35.7912 28.4928 36.0919 27.7794 36.1695C27.4993 36.2 27.2168 36.1953 26.9343 36.2118C26.8472 36.2165 26.7624 36.2282 26.6824 36.2588C26.5717 36.2987 26.5082 36.3763 26.4917 36.4914C26.3881 37.1634 26.2845 37.8331 26.1857 38.5052C26.1433 38.7918 25.9855 38.9328 25.6983 38.9328C25.244 38.9328 24.7896 38.9352 24.3329 38.9352C24.2858 38.9352 24.2387 38.9352 24.1917 38.9281C24.0198 38.8999 23.9562 38.813 23.9821 38.6415C24.0245 38.3501 24.0669 38.0658 24.1093 37.7791Z" fill="#019DE3"/>
<path d="M29.4899 31.6485C29.3534 32.3934 29.0497 33.0584 28.5177 33.6059C28.0845 34.0523 27.5383 34.285 26.9356 34.3978C26.4483 34.4894 25.9539 34.4965 25.4596 34.4918C25.2995 34.4894 25.1394 34.48 24.9793 34.5106C24.8192 34.5388 24.6921 34.6069 24.6097 34.7502C24.5838 34.7314 24.5862 34.7009 24.5909 34.675C24.6662 34.2121 24.7415 33.7469 24.8145 33.284C24.8757 32.901 24.9299 32.5156 24.9887 32.1326C25.0146 31.9634 25.0429 31.7942 25.0923 31.6297C25.1464 31.4558 25.2759 31.3454 25.4619 31.3454C26.3589 31.3431 27.2582 31.3337 28.1551 31.3501C28.5082 31.3572 28.8614 31.4065 29.2027 31.5146C29.2992 31.5451 29.3816 31.6109 29.4852 31.6274C29.4852 31.6344 29.4876 31.6415 29.4899 31.6485Z" fill="#001E6D"/>
<path d="M26.8231 29.0849C26.7948 29.1225 26.7525 29.1108 26.7148 29.1108C26.1969 29.1108 25.6766 29.1108 25.1587 29.1108C25.121 29.1108 25.0786 29.1272 25.0527 29.0826C25.2246 29.0802 25.3964 29.0755 25.5683 29.0732C25.9356 29.0708 26.3052 29.0732 26.6724 29.0732C26.7219 29.0732 26.7736 29.0638 26.8231 29.0849Z" fill="#3556A0"/>
<path d="M23.8783 29.0802C23.8383 29.1272 23.7982 29.1225 23.7559 29.0826C23.7982 29.0661 23.8383 29.0685 23.8783 29.0802Z" fill="#3556A0"/>
<path d="M61.5726 45.4899H34.9077C34.0934 45.4899 33.2793 46.1695 33.2793 47.302C33.2793 48.2082 33.89 49.1141 34.9077 49.1141H61.5726C62.3869 49.1141 62.9974 48.4345 62.9974 47.302C62.9974 46.3961 62.3867 45.4899 61.5726 45.4899Z" fill="#087EC1"/>
</svg>
