<svg width="167" height="119" viewBox="0 0 167 119" fill="none" xmlns="http://www.w3.org/2000/svg">
    <g filter="url(#filter0_d)">
        <rect x="80.6172" width="82.3662" height="52.4801" rx="5" fill="url(#paint0_linear)"/>
        <path d="M124.043 20.3471V19.5821C124.043 18.6896 124.043 18.0522 123.98 17.6697C123.853 17.0959 123.662 16.6497 123.345 16.3947C123.027 16.1397 122.519 15.9485 121.821 15.9485C121.376 15.9485 120.932 16.076 120.487 16.331C119.471 16.8409 118.773 17.7972 118.392 19.0721L113.693 18.6259C113.693 17.6059 114.01 16.5222 114.709 15.5022C115.344 14.4823 116.296 13.6535 117.566 13.0161C118.9 12.3786 120.424 11.9961 122.202 11.9961C123.916 11.9961 125.377 12.3786 126.583 13.0161C127.472 13.526 128.234 14.291 128.742 15.1835C129.123 15.9485 129.377 16.586 129.377 17.2234V26.5944C129.377 27.1681 129.504 27.7419 129.885 28.2518C130.139 28.6981 130.457 29.1443 130.901 29.5268L131.409 29.973L127.79 33.5429C126.139 32.013 125.186 31.0567 124.932 30.5468C124.234 31.6942 123.218 32.523 121.948 33.0329C120.678 33.5429 119.344 33.7342 118.011 33.5429C116.614 33.3517 115.534 32.7779 114.709 31.8217C113.756 30.8018 113.312 29.463 113.312 27.8056C113.312 25.0007 114.709 22.9608 117.503 21.6858C119.281 20.9208 121.44 20.4746 124.043 20.3471ZM124.043 25.8294V23.2795C122.646 23.3432 121.44 23.5982 120.551 24.0445C119.281 24.6819 118.709 25.6382 118.709 26.9769C118.709 27.7419 118.963 28.3793 119.471 28.8893C119.979 29.3993 120.614 29.5905 121.376 29.5905C122.138 29.5905 122.71 29.2718 123.218 28.6343C123.726 27.9968 124.043 27.1044 124.043 25.8294ZM132.679 36.2841C132.933 36.0291 132.997 35.7741 132.87 35.5829C132.743 35.4554 132.616 35.3916 132.362 35.5191C128.806 37.2403 125.377 38.1328 122.202 38.1328C119.598 38.1965 117.058 37.6865 114.518 36.6666C113.058 36.1566 111.216 35.1366 108.93 33.7342L108.676 33.6067C108.486 33.4792 108.359 33.4792 108.232 33.6067C108.105 33.7342 108.105 33.9254 108.359 34.1167C108.994 34.9454 109.883 35.7741 111.026 36.6028C112.423 37.7503 113.947 38.6428 115.598 39.2802C117.566 40.1727 119.535 40.5552 121.567 40.5552C123.599 40.5552 125.504 40.2365 127.345 39.599C128.679 39.089 129.949 38.4515 131.092 37.6865C131.854 37.1766 132.362 36.6666 132.679 36.2841ZM135.219 36.4116C135.41 35.9016 135.537 35.3916 135.664 34.8179C135.727 34.2441 135.727 33.8617 135.6 33.6704C135.473 33.5429 135.092 33.4154 134.457 33.3517C133.822 33.2879 133.251 33.2879 132.743 33.3517C132.171 33.4154 131.6 33.5429 131.028 33.7979C130.457 34.0529 130.203 34.3079 130.33 34.4354C130.33 34.4991 130.393 34.4991 130.457 34.4991L131.409 34.4354C133.06 34.3079 134.013 34.3716 134.267 34.6266C134.394 34.8816 134.33 35.5191 134.076 36.4753C133.886 37.1128 133.695 37.6865 133.441 38.1328C133.314 38.3878 133.314 38.5153 133.441 38.579C133.568 38.6428 133.695 38.579 133.886 38.3878C134.394 38.0053 134.838 37.3041 135.219 36.4116Z" fill="white"/>
        <rect x="37.5039" y="25.9688" width="82.3662" height="52.4801" rx="5" fill="url(#paint1_linear)"/>
        <path d="M59.0767 43.1797C59.2436 43.199 59.4111 43.2184 59.578 43.2378C61.2353 43.4336 62.7218 44.0497 64.0248 45.0929C65.6755 46.4143 66.762 48.1112 67.2 50.1837C67.8132 53.0853 67.1835 55.7115 65.2926 58.0003C64.0854 59.4611 62.54 60.413 60.7069 60.8853C60.0331 61.059 59.3477 61.1364 58.6502 61.1464C57.3075 61.1652 56.026 60.9025 54.82 60.3184C52.4123 59.1519 50.8272 57.2685 50.0399 54.706C50.0321 54.6805 50.0272 54.6545 50.0162 54.6103C50.1974 54.686 50.3644 54.7557 50.5319 54.826C51.4591 55.2137 52.3858 55.6031 53.3142 55.9881C53.3924 56.0202 53.4271 56.0638 53.4464 56.1452C53.696 57.1878 54.6007 57.9776 55.6431 58.0672C56.8701 58.1729 57.9803 57.3963 58.296 56.1966C58.3549 55.972 58.3615 55.7325 58.3836 55.4991C58.3891 55.4405 58.3973 55.4018 58.448 55.3647C59.4089 54.6728 60.3681 53.9781 61.329 53.2867C61.372 53.2557 61.4337 53.238 61.4871 53.238C63.162 53.2297 64.5934 51.947 64.7923 50.2728C64.9984 48.5371 63.9025 46.9469 62.2259 46.5487C60.4452 46.1261 58.61 47.2843 58.2243 49.0819C58.1725 49.3236 58.1648 49.5748 58.1334 49.8214C58.1279 49.8662 58.118 49.9166 58.0938 49.9525C57.4205 50.9448 56.7445 51.9354 56.0712 52.9277C56.0365 52.9786 56.0023 52.9963 55.9401 52.9952C55.4459 52.9874 54.9842 53.1086 54.566 53.3763C54.4905 53.425 54.4332 53.4272 54.3533 53.394C52.8354 52.7551 51.3159 52.1191 49.7969 51.483C49.7688 51.4714 49.7396 51.4636 49.7109 51.4537C49.7109 51.3923 49.7109 51.3309 49.7109 51.2695C49.7175 51.2512 49.7264 51.2335 49.7297 51.2147C49.7809 50.8917 49.814 50.5654 49.8845 50.2468C50.3242 48.2495 51.3175 46.5797 52.874 45.2594C54.2189 44.12 55.7726 43.4468 57.5235 43.2378C57.6943 43.2173 57.8651 43.199 58.0359 43.1797C58.383 43.1797 58.7296 43.1797 59.0767 43.1797Z" fill="white"/>
        <path d="M107.451 49.8377C107.441 49.8764 107.429 49.9146 107.42 49.9533C107.309 50.393 106.923 50.6646 106.466 50.6248C106.013 50.585 105.691 50.2597 105.653 49.8023C105.617 49.3869 105.808 49.0346 106.152 48.8786C106.514 48.7143 106.942 48.7912 107.206 49.0678C107.325 49.1917 107.394 49.3416 107.43 49.5081C107.435 49.5302 107.444 49.5506 107.451 49.5722C107.451 49.6602 107.451 49.7492 107.451 49.8377ZM107.291 49.7144C107.293 49.2697 106.984 48.9489 106.551 48.9472C106.123 48.9455 105.806 49.2647 105.802 49.6978C105.799 50.148 106.109 50.4727 106.544 50.4754C106.975 50.4782 107.288 50.1585 107.291 49.7144Z" fill="white"/>
        <path d="M101.415 53.6091C101.51 53.3962 101.596 53.2048 101.681 53.0129C102.277 51.6683 102.874 50.3242 103.467 48.9785C103.502 48.9 103.542 48.8756 103.625 48.8767C103.985 48.8812 104.346 48.8789 104.707 48.8789C104.743 48.8789 104.779 48.8789 104.821 48.8789C104.821 51.0737 104.821 53.2568 104.821 55.4449C104.39 55.4449 103.963 55.4449 103.522 55.4449C103.522 54.1269 103.522 52.8093 103.522 51.4918C103.514 51.4902 103.506 51.4885 103.498 51.4869C103.439 51.6146 103.378 51.7418 103.319 51.8702C102.814 52.9642 102.307 54.0583 101.805 55.1534C101.767 55.2364 101.724 55.269 101.631 55.2646C101.447 55.2558 101.264 55.2585 101.08 55.2635C101.009 55.2657 100.974 55.2419 100.944 55.1756C100.397 53.9803 99.8478 52.7861 99.299 51.5919C99.2891 51.5709 99.2786 51.5499 99.25 51.53C99.25 52.832 99.25 54.1346 99.25 55.4427C98.8076 55.4427 98.3806 55.4427 97.9453 55.4427C97.9453 53.2585 97.9453 51.0731 97.9453 48.8773C98.0985 48.8773 98.2478 48.8773 98.3965 48.8773C98.645 48.8773 98.893 48.8806 99.1409 48.8751C99.218 48.8734 99.2522 48.9016 99.2836 48.9702C99.975 50.4807 100.67 51.9902 101.363 53.5002C101.376 53.5289 101.39 53.556 101.415 53.6091Z" fill="white"/>
        <path d="M89.0767 50.0582C88.0723 50.0582 87.0767 50.0582 86.0751 50.0582C86.0751 50.5488 86.0751 51.0322 86.0751 51.5272C86.9313 51.5272 87.7897 51.5272 88.6552 51.5272C88.6552 51.9288 88.6552 52.3187 88.6552 52.717C87.7963 52.717 86.9401 52.717 86.0768 52.717C86.0768 53.2314 86.0768 53.7375 86.0768 54.2546C87.0751 54.2546 88.0729 54.2546 89.0778 54.2546C89.0778 54.6556 89.0778 55.0461 89.0778 55.4427C87.6216 55.4427 86.1688 55.4427 84.7109 55.4427C84.7109 53.2546 84.7109 51.072 84.7109 48.8828C86.1677 48.8828 87.6178 48.8828 89.0767 48.8828C89.0767 49.27 89.0767 49.6566 89.0767 50.0582Z" fill="white"/>
        <path d="M96.5553 55.4488C96.0721 55.4488 95.6065 55.4472 95.1409 55.4505C95.0737 55.451 95.0638 55.4107 95.0484 55.3659C94.9239 55.0019 94.7972 54.6385 94.6759 54.2735C94.6522 54.2021 94.6214 54.1734 94.541 54.1739C93.7625 54.1772 92.9834 54.1772 92.2049 54.1745C92.13 54.1739 92.1002 54.1988 92.0776 54.2685C91.957 54.6374 91.8324 55.0047 91.7046 55.3714C91.6936 55.4035 91.6501 55.4461 91.6214 55.4466C91.1763 55.451 90.7305 55.4494 90.2854 55.4488C90.2793 55.4488 90.2732 55.4444 90.2578 55.4383C90.3102 55.2951 90.3614 55.1518 90.4143 55.0085C91.1542 53.0096 91.8953 51.0112 92.6319 49.0106C92.6705 48.9061 92.7162 48.8729 92.8253 48.8751C93.1922 48.8823 93.5597 48.8817 93.9266 48.8757C94.0225 48.874 94.0677 48.9022 94.1024 48.9935C94.877 51.0378 95.6544 53.0804 96.4318 55.1241C96.4715 55.2276 96.5112 55.3321 96.5553 55.4488ZM94.26 53.0699C93.9602 52.1982 93.6655 51.3403 93.3614 50.457C93.0627 51.3442 92.774 52.2032 92.4826 53.0699C93.0804 53.0699 93.6605 53.0699 94.26 53.0699Z" fill="white"/>
        <path d="M72.529 53.8148C72.8849 54.0012 73.254 54.1356 73.643 54.2109C74.0705 54.2933 74.5014 54.3325 74.9234 54.1965C75.0639 54.1511 75.2044 54.0682 75.3113 53.9669C75.5559 53.7352 75.5377 53.3414 75.2661 53.1411C75.0992 53.0184 74.9036 52.9276 74.7091 52.8519C74.3267 52.7031 73.9328 52.5836 73.5504 52.4354C73.2028 52.301 72.8805 52.119 72.621 51.8413C72.2931 51.4907 72.1841 51.0642 72.2044 50.5974C72.2441 49.682 72.8237 49.0725 73.724 48.8667C74.6815 48.6482 75.6072 48.7699 76.4788 49.2395C76.5504 49.2782 76.6171 49.3258 76.6854 49.3706C76.7019 49.3817 76.7162 49.396 76.7394 49.4154C76.5476 49.7567 76.357 50.0963 76.1774 50.4154C75.9129 50.2982 75.6656 50.1693 75.405 50.078C75.0154 49.9414 74.611 49.8877 74.2017 49.9829C73.9289 50.0465 73.708 50.1826 73.6391 50.4807C73.5829 50.7218 73.6452 50.927 73.8441 51.0814C74.0683 51.255 74.3366 51.3375 74.5961 51.4365C75.0397 51.6063 75.4903 51.7611 75.9229 51.9558C76.3256 52.1367 76.6589 52.4149 76.8165 52.8497C77.0452 53.478 76.9476 54.5024 76.1465 55.0726C75.7796 55.3337 75.368 55.4758 74.9278 55.5278C73.9851 55.6395 73.0876 55.4803 72.243 55.0394C72.2221 55.0284 72.2028 55.0134 72.1807 55.0046C72.1119 54.978 72.1053 54.9382 72.1312 54.8696C72.254 54.5483 72.3708 54.2247 72.4898 53.9022C72.5009 53.874 72.5146 53.8469 72.529 53.8148Z" fill="white"/>
        <path d="M79.8876 50.0587C79.2204 50.0587 78.572 50.0587 77.918 50.0587C77.918 49.6638 77.918 49.2772 77.918 48.8828C79.6805 48.8828 81.4391 48.8828 83.2039 48.8828C83.2039 49.2744 83.2039 49.6616 83.2039 50.0593C82.5526 50.0593 81.9047 50.0593 81.2452 50.0593C81.2452 51.8597 81.2452 53.6495 81.2452 55.4433C80.7885 55.4433 80.3444 55.4433 79.8876 55.4433C79.8876 53.6528 79.8876 51.8635 79.8876 50.0587Z" fill="white"/>
        <path d="M63.7071 49.8526C63.7071 51.101 62.7066 52.1098 61.4697 52.1093C60.2455 52.1087 59.2411 51.0893 59.2422 49.8493C59.2433 48.6026 60.2488 47.5848 61.478 47.5859C62.7099 47.5865 63.7071 48.6009 63.7071 49.8526ZM61.4884 48.1529C60.575 48.1512 59.813 48.9007 59.8102 49.8056C59.8069 50.7575 60.5391 51.523 61.4416 51.539C62.3375 51.5551 63.1419 50.8371 63.1518 49.8631C63.1606 48.9184 62.4124 48.1545 61.4884 48.1529Z" fill="white"/>
        <path d="M54.1914 56.3619C54.2972 56.405 54.3936 56.4438 54.4895 56.4836C54.7462 56.5909 55.0024 56.6993 55.2597 56.806C55.9793 57.1053 56.7809 56.7817 57.0779 56.0737C57.3798 55.353 57.0558 54.5344 56.344 54.2274C55.9765 54.0687 55.6063 53.9177 55.2338 53.7617C55.5831 53.5626 56.3357 53.5526 56.8999 53.9232C57.593 54.3784 57.9197 55.2396 57.6944 56.0522C57.4768 56.8392 56.7605 57.4095 55.9815 57.4432C55.0487 57.4831 54.4008 56.8752 54.1914 56.3619Z" fill="white"/>
        <path d="M106.394 49.8011C106.394 49.9156 106.394 50.024 106.394 50.1385C106.344 50.1385 106.302 50.1385 106.254 50.1385C106.254 49.8431 106.254 49.5483 106.254 49.2491C106.394 49.2491 106.535 49.2408 106.674 49.2518C106.767 49.2596 106.835 49.3193 106.862 49.4161C106.89 49.5196 106.871 49.6114 106.797 49.6894C106.776 49.7115 106.751 49.7292 106.721 49.7546C106.785 49.8791 106.85 50.0046 106.916 50.1313C106.756 50.1639 106.756 50.1639 106.688 50.0262C106.671 49.993 106.654 49.9593 106.637 49.9261C106.567 49.785 106.567 49.785 106.394 49.8011ZM106.398 49.6556C106.507 49.6412 106.626 49.6977 106.691 49.5793C106.712 49.5417 106.708 49.462 106.682 49.4322C106.605 49.3453 106.499 49.3874 106.399 49.3851C106.398 49.4781 106.398 49.5583 106.398 49.6556Z" fill="white"/>
        <rect x="4" y="57.8477" width="82.3662" height="52.4801" rx="5" fill="url(#paint2_linear)"/>
        <path d="M52.7332 84.772C52.6683 85.5542 52.7982 86.3364 53.1877 87.1185C53.7721 88.7481 54.9407 89.9865 56.6938 90.7687C56.1744 92.4633 55.3303 94.0277 54.2915 95.5268C52.8631 97.4823 51.4347 98.5251 50.0712 98.5251C49.422 98.5251 48.6428 98.3296 47.7339 97.9385C46.695 97.5474 45.786 97.3519 45.0719 97.3519C44.2927 97.3519 43.3838 97.6126 42.28 98.0037C41.371 98.3948 40.6568 98.5251 40.2023 98.5251C39.2284 98.5903 38.1896 98.0689 37.1508 96.9608C36.3067 96.1786 35.4627 95.0054 34.6835 93.5714C34.0343 92.3982 33.5149 91.3553 33.1902 90.3776C32.541 88.5525 32.2812 86.7926 32.2812 85.0979C32.2812 83.2729 32.6059 81.6434 33.385 80.2746C34.0343 79.0361 34.9433 78.0584 36.1119 77.4066C37.2806 76.7548 38.4493 76.4289 39.7478 76.3637C40.3971 76.3637 41.5009 76.6245 42.9293 77.1459C43.8382 77.537 44.4226 77.6673 44.6823 77.6673C44.942 77.6673 45.4614 77.537 46.3055 77.2111C47.0846 76.9504 47.7339 76.6896 48.2533 76.5593C49.0324 76.3637 49.8115 76.2985 50.4608 76.2985C52.928 76.5593 54.746 77.537 55.9796 79.2317C53.7721 80.5353 52.6683 82.4255 52.7332 84.772ZM49.0324 74.0172V74.0824C47.604 75.7119 46.1107 76.4289 44.5524 76.2985C44.3577 74.6039 44.8771 73.0395 46.1756 71.6055C46.695 71.0189 47.3443 70.4975 48.1883 70.0412C48.9675 69.6501 49.8115 69.3894 50.5906 69.3242C50.7205 71.0841 50.2011 72.6484 49.0324 74.0172Z" fill="#2D9CDB"/>
    </g>
    <defs>
        <filter id="filter0_d" x="0" y="0" width="166.983" height="118.328" filterUnits="userSpaceOnUse" color-interpolation-filters="sRGB">
            <feFlood flood-opacity="0" result="BackgroundImageFix"/>
            <feColorMatrix in="SourceAlpha" type="matrix" values="0 0 0 0 0 0 0 0 0 0 0 0 0 0 0 0 0 0 127 0"/>
            <feOffset dy="4"/>
            <feGaussianBlur stdDeviation="2"/>
            <feColorMatrix type="matrix" values="0 0 0 0 0 0 0 0 0 0 0 0 0 0 0 0 0 0 0.1 0"/>
            <feBlend mode="normal" in2="BackgroundImageFix" result="effect1_dropShadow"/>
            <feBlend mode="normal" in="SourceGraphic" in2="effect1_dropShadow" result="shape"/>
        </filter>
        <linearGradient id="paint0_linear" x1="80.756" y1="8.94783" x2="162.956" y2="36.3405" gradientUnits="userSpaceOnUse">
            <stop stop-color="#323643"/>
            <stop offset="1" stop-color="#898B91"/>
        </linearGradient>
        <linearGradient id="paint1_linear" x1="37.4502" y1="43.7278" x2="116.084" y2="74.5526" gradientUnits="userSpaceOnUse">
            <stop stop-color="#156C9D"/>
            <stop offset="1" stop-color="#3B6882"/>
        </linearGradient>
        <linearGradient id="paint2_linear" x1="10.2722" y1="64.869" x2="82.106" y2="108.547" gradientUnits="userSpaceOnUse">
            <stop stop-color="white"/>
            <stop offset="1" stop-color="#E4E4E4"/>
        </linearGradient>
    </defs>
</svg>
