<svg width="18" height="18" viewBox="0 0 18 18" fill="none" xmlns="http://www.w3.org/2000/svg">
<path fill-rule="evenodd" clip-rule="evenodd" d="M8.09844 5.4C8.09844 4.9032 8.50164 4.5 8.99844 4.5C9.49524 4.5 9.89844 4.9032 9.89844 5.4V9.9C9.89844 10.3968 9.49524 10.8 8.99844 10.8C8.50164 10.8 8.09844 10.3968 8.09844 9.9V5.4ZM8.09844 12.6C8.09844 12.1032 8.50164 11.7 8.99844 11.7C9.49524 11.7 9.89844 12.1032 9.89844 12.6C9.89844 13.0968 9.49524 13.5 8.99844 13.5C8.50164 13.5 8.09844 13.0968 8.09844 12.6ZM9 16.2C5.0301 16.2 1.8 12.9699 1.8 9C1.8 5.0301 5.0301 1.8 9 1.8C12.9699 1.8 16.2 5.0301 16.2 9C16.2 12.9699 12.9699 16.2 9 16.2ZM9 0C4.0293 0 0 4.0293 0 9C0 13.9707 4.0293 18 9 18C13.9707 18 18 13.9707 18 9C18 4.0293 13.9707 0 9 0Z" fill="#9DA8B6"/>
</svg>
