<?xml version="1.0" encoding="utf-8"?>
<!-- Generator: Adobe Illustrator 22.0.0, SVG Export Plug-In . SVG Version: 6.00 Build 0)  -->
<svg version="1.1" id="Layer_1" xmlns="http://www.w3.org/2000/svg" xmlns:xlink="http://www.w3.org/1999/xlink" x="0px" y="0px"
	 viewBox="0 0 1220 234" style="enable-background:new 0 0 1220 234;" xml:space="preserve">
<style type="text/css">
	.st0{fill:#293177;}
	.st1{fill:#2B4EA2;}
</style>
<g>
	<g>
		<polygon class="st0" points="251.4,1 153,93.1 148.8,97.3 129.7,116.3 11.5,233.5 11.5,1 115.5,102.4 121.2,107.9 134.6,95.9 
			140.2,91.4 		"/>
		<polygon class="st1" points="258.3,33.5 258.3,235 152.9,132.2 152.9,132.2 164.4,120.8 175,110.9 		"/>
	</g>
	<g>
		<path class="st0" d="M358,188.2h-24.6V42.5h38.4l44,91.5l44-91.5h38.1v145.7h-24.6V74.4l-50.9,101.1h-13.8L358,74.4V188.2z"/>
		<path class="st0" d="M534.4,55.2c-2.9-2.9-4.4-6.4-4.4-10.4c0-4,1.5-7.5,4.4-10.4c2.9-2.9,6.4-4.4,10.4-4.4c4,0,7.5,1.5,10.4,4.4
			c2.9,2.9,4.4,6.4,4.4,10.4c0,4-1.5,7.5-4.4,10.4c-2.9,2.9-6.4,4.4-10.4,4.4C540.8,59.6,537.3,58.2,534.4,55.2z M556.3,188.2h-23.3
			V77.3h23.3V188.2z"/>
		<path class="st0" d="M646.1,99.2c-11.5,0-20.2,3.8-26.1,11.3c-5.8,7.5-8.8,17.6-8.8,30.2v47.5h-23.3V77.3h23.3v22.3
			c3.8-6.9,8.9-12.6,15.3-17.1c6.5-4.4,13.3-6.7,20.5-6.9l0.2,23.6C646.9,99.2,646.5,99.2,646.1,99.2z"/>
		<path class="st0" d="M757.4,188.2h-21.3v-14.8c-9.2,11-21.5,16.5-36.9,16.5c-11.5,0-21.1-3.3-28.7-9.8
			c-7.6-6.5-11.4-15.2-11.4-26.2c0-10.9,4-19.1,12.1-24.5c8.1-5.4,19-8.1,32.7-8.1h30.2v-4.2c0-14.7-8.2-22.1-24.6-22.1
			c-10.3,0-21,3.8-32.1,11.3l-10.4-14.6C680.6,81,695.9,75.7,713,75.7c13.1,0,23.7,3.3,32,9.9c8.3,6.6,12.4,17,12.4,31.2V188.2z
			 M734.1,147v-9.4h-26.3c-16.8,0-25.2,5.3-25.2,15.8c0,5.4,2.1,9.6,6.3,12.4c4.2,2.8,10,4.3,17.4,4.3c7.4,0,13.9-2.1,19.5-6.3
			C731.3,159.7,734.1,154.1,734.1,147z"/>
		<path class="st0" d="M838.7,188.2H812L773.7,77.3h24.2l27.5,83.8l27.5-83.8h24.2l27.5,83.8l27.5-83.8h24.2l-38.4,110.9h-26.7
			L865,112.4L838.7,188.2z"/>
		<path class="st0" d="M1078,143h-86.9c0.6,8.1,4.2,14.6,11,19.5c6.8,4.9,14.6,7.4,23.3,7.4c13.9,0,24.5-4.4,31.7-13.1l13.3,14.6
			c-12,12.4-27.5,18.6-46.7,18.6c-15.6,0-28.8-5.2-39.7-15.5c-10.9-10.4-16.4-24.2-16.4-41.7c0-17.4,5.6-31.3,16.7-41.6
			c11.1-10.3,24.2-15.4,39.3-15.4c15.1,0,27.9,4.6,38.5,13.7c10.6,9.1,15.8,21.6,15.8,37.6V143z M991.1,124.7h63.6
			c0-9.3-2.9-16.5-8.8-21.5c-5.8-5-13-7.5-21.6-7.5c-8.5,0-16.2,2.6-23,7.8C994.5,108.7,991.1,115.8,991.1,124.7z"/>
		<path class="st0" d="M1161,75.7c14.9,0,27.6,5.1,38.1,15.4c10.6,10.3,15.8,24,15.8,41.1c0,17.1-5.2,31-15.7,41.7
			c-10.5,10.7-22.7,16.1-36.7,16.1c-14,0-26.5-6.1-37.6-18.3v16.7h-23.3V33.6h23.3v63.2C1134.1,82.7,1146.1,75.7,1161,75.7z
			 M1124.5,133c0,10.6,3.2,19.2,9.6,26c6.4,6.7,14.2,10.1,23.3,10.1c9.2,0,17.2-3.3,24-10c6.8-6.7,10.2-15.3,10.2-26
			s-3.3-19.5-10-26.5c-6.7-7-14.7-10.5-24-10.5c-9.3,0-17.2,3.5-23.6,10.5C1127.7,113.7,1124.5,122.4,1124.5,133z"/>
	</g>
</g>
</svg>
