<svg width="29" height="29" viewBox="0 0 29 29" fill="none" xmlns="http://www.w3.org/2000/svg">
<circle cx="14.5" cy="14.5" r="14.5" fill="#00D67D"/>
<path d="M9.57383 16.4573L9.52745 19.6168L8.44629 19.6009L8.42765 20.8707L12.264 20.927L12.2827 19.6572L11.2015 19.6413L11.2479 16.4819L9.57383 16.4573Z" fill="white"/>
<path d="M18.5466 12.8213L18.593 9.66178L19.6742 9.67765L19.6928 8.40788L15.8564 8.35156L15.8378 9.62133L16.919 9.6372L16.8726 12.7967L18.5466 12.8213Z" fill="white"/>
<path d="M16.8181 16.5626L16.7981 17.9222L16.0532 16.5514L14.1323 16.5232L16.5591 20.989L18.4271 21.0165L18.4921 16.5872L16.8181 16.5626Z" fill="white"/>
<path d="M11.3034 12.7136L11.3233 11.354L12.0683 12.7248L13.9891 12.753L11.5623 8.28719L9.69434 8.25977L9.62931 12.689L11.3034 12.7136Z" fill="white"/>
<path d="M20.431 13.1273L8.01514 12.9451L7.99466 14.3401L20.4105 14.5224L20.431 13.1273Z" fill="white"/>
<path d="M20.4051 14.9401L7.98926 14.7578L7.96878 16.1529L20.3846 16.3351L20.4051 14.9401Z" fill="white"/>
</svg>
