<svg width="35" height="35" viewBox="0 0 35 35" fill="none" xmlns="http://www.w3.org/2000/svg">
<path d="M29.3415 30.0834C35.8267 23.5981 35.8267 13.0934 29.3415 6.6081C22.8562 0.122821 12.3514 0.122821 5.86616 6.6081C-0.619123 13.0934 -0.619123 23.5981 5.86616 30.0834C12.3514 36.5587 22.8662 36.5587 29.3415 30.0834Z" fill="#FFC82C"/>
<path opacity="0.2" d="M29.4421 30.1435C35.9273 23.6583 35.9273 13.1535 29.4421 6.66822C22.9568 0.18294 12.452 0.18294 5.96674 6.66822C-0.518537 13.1535 -0.518537 23.6583 5.96674 30.1435C12.452 36.6188 22.9568 36.6188 29.4421 30.1435Z" fill="black"/>
<path d="M28.3393 28.3393C34.8246 21.854 34.8246 11.3492 28.3393 4.86396C21.854 -1.62132 11.3492 -1.62132 4.86396 4.86396C-1.62132 11.3492 -1.62132 21.854 4.86396 28.3393C11.3492 34.8145 21.854 34.8145 28.3393 28.3393Z" fill="#FFD55F"/>
<path opacity="0.3" d="M15.3186 4.21252C18.5963 3.89177 21.864 4.86406 24.4401 6.9189C27.0161 8.97374 28.6801 11.9508 29.091 15.2185C29.091 15.0982 29.081 14.9779 29.061 14.8576C28.7402 11.5197 27.0963 8.45251 24.5102 6.31748C21.9241 4.18245 18.5963 3.17007 15.2584 3.50084C11.9206 3.81158 8.84333 5.45545 6.71832 8.04154C4.59331 10.6276 3.57091 13.9555 3.90168 17.2933C3.91171 17.4136 3.93176 17.5339 3.94178 17.6542C3.71124 14.3765 4.77374 11.1388 6.89875 8.62291C9.02375 6.11701 12.0409 4.53328 15.3186 4.21252Z" fill="black"/>
<path d="M23.4177 19.3782C23.2473 17.614 22.295 16.5515 21.002 16.2007C21.844 15.5491 22.3351 14.4666 22.1948 13.0633C22.0244 11.3292 20.9418 10.1865 19.0674 9.95597L18.8569 7.81091L16.8823 8.00136L17.0727 9.99606L15.9501 10.1063L15.7596 8.11162L13.785 8.30207L13.9754 10.2968L12.1712 10.4772L10.9182 10.5975L11.1087 12.5721L12.3616 12.4418L13.2938 22.0745L11.9106 22.2149L12.101 24.1995L13.4843 24.0592L15.2885 23.8888L15.5191 26.2043L17.4937 26.0138L17.2632 23.6983L18.3858 23.5881L18.6063 25.9035L20.591 25.7131L20.3605 23.3174C22.5757 22.7862 23.6081 21.3929 23.4177 19.3782ZM14.8675 12.2113L17.5438 11.9507C19.0273 11.8103 19.9395 12.3416 20.0598 13.6046C20.18 14.8675 19.3982 15.5491 17.9047 15.6995L14.8575 15.9902L14.4966 12.2514L14.8675 12.2113ZM18.9171 21.5332L15.6794 21.854L15.4489 21.874L15.068 17.9548L18.5362 17.614C20.15 17.4536 21.0922 17.9749 21.2225 19.328C21.3628 20.6913 20.5409 21.3829 18.9171 21.5332Z" fill="#C28F00"/>
<path d="M22.4551 19.4684C22.2847 17.7042 21.3324 16.6417 20.0394 16.2909C20.8813 15.6394 21.3725 14.5568 21.2322 13.1535C21.0618 11.4194 19.9792 10.2767 18.1048 10.0462L17.8943 7.90112L15.9096 8.09157L16.1001 10.0863L14.9774 10.1965L14.777 8.20183L12.7923 8.39228L12.9827 10.387L11.1785 10.5574L9.92554 10.6777L10.116 12.6523L11.3689 12.532L12.3212 22.1547L10.9279 22.285L11.1183 24.2697L12.5116 24.1294L14.3159 23.9489L14.5364 26.2644L16.5211 26.0739L16.3006 23.7585L17.4232 23.6482L17.6437 25.9637L19.6284 25.7732L19.3979 23.3776C21.6131 22.8864 22.6455 21.4831 22.4551 19.4684ZM13.9049 12.3015L16.5812 12.0409C18.0747 11.9005 18.9769 12.4418 19.0971 13.6948C19.2174 14.9577 18.4356 15.6394 16.9421 15.7897L13.9049 16.0804L13.5441 12.3316L13.9049 12.3015ZM17.9545 21.6335L14.7168 21.9442L14.4863 21.9643L14.1054 18.045L17.5736 17.7042C19.1974 17.5438 20.1296 18.0651 20.2599 19.4183C20.3902 20.7815 19.5783 21.4731 17.9545 21.6335Z" fill="#F8B700"/>
<path d="M14.2157 34.594C14.0052 34.3334 13.8248 34.0527 13.6744 33.752C13.494 33.4614 13.3537 33.1606 13.2334 32.8499C13.4439 33.1105 13.6243 33.3912 13.7747 33.6919C13.9451 33.9826 14.0954 34.2833 14.2157 34.594Z" fill="#263238"/>
<path d="M11.4894 33.722C11.2889 33.4714 11.1185 33.2008 10.9681 32.9101C10.7977 32.6395 10.6474 32.3488 10.5371 32.0581C10.7376 32.3087 10.908 32.5793 11.0583 32.87C11.2388 33.1306 11.3791 33.4213 11.4894 33.722Z" fill="#263238"/>
<path d="M8.99399 32.5191C8.79352 32.2685 8.62312 31.9979 8.47276 31.7072C8.30236 31.4365 8.15201 31.1459 8.04175 30.8452C8.24222 31.0957 8.41262 31.3664 8.56298 31.6571C8.73338 31.9377 8.87371 32.2284 8.99399 32.5191Z" fill="#263238"/>
<path d="M17.1125 34.9448C16.902 34.6842 16.7215 34.4036 16.5712 34.1029C16.3908 33.8222 16.2404 33.5215 16.1201 33.2108C16.3306 33.4714 16.511 33.752 16.6614 34.0527C16.8418 34.3334 16.9922 34.6341 17.1125 34.9448Z" fill="#263238"/>
<path d="M19.7892 34.7945C19.5787 34.5339 19.3983 34.2532 19.2479 33.9525C19.0675 33.6719 18.9172 33.3712 18.7969 33.0604C19.0074 33.321 19.1878 33.6017 19.3381 33.9024C19.5086 34.1831 19.6689 34.4838 19.7892 34.7945Z" fill="#263238"/>
<path d="M22.4152 34.2231C22.2047 33.9625 22.0243 33.6818 21.8739 33.3811C21.6935 33.1005 21.5431 32.7997 21.4229 32.489C21.6333 32.7496 21.8138 33.0303 21.9641 33.331C22.1446 33.6117 22.2949 33.9124 22.4152 34.2231Z" fill="#263238"/>
<path d="M24.8212 33.3411C24.6107 33.0805 24.4303 32.7999 24.2799 32.4992C24.0995 32.2185 23.9491 31.9178 23.8289 31.6071C24.0394 31.8677 24.2098 32.1584 24.3701 32.449C24.5506 32.7297 24.7009 33.0304 24.8212 33.3411Z" fill="#263238"/>
<path d="M27.1264 31.9978C26.9159 31.7372 26.7355 31.4565 26.5851 31.1558C26.4047 30.8752 26.2543 30.5745 26.134 30.2637C26.3445 30.5243 26.525 30.805 26.6753 31.1057C26.8557 31.3864 27.0061 31.6771 27.1264 31.9978Z" fill="#263238"/>
<path d="M29.121 30.344C28.9105 30.0833 28.7301 29.8027 28.5797 29.502C28.3993 29.2213 28.2489 28.9206 28.1287 28.6099C28.3392 28.8705 28.5196 29.1511 28.6699 29.4518C28.8504 29.7325 29.0007 30.0332 29.121 30.344Z" fill="#263238"/>
<path d="M30.705 28.6099C30.4945 28.3493 30.3141 28.0687 30.1637 27.768C29.9833 27.4873 29.8329 27.1866 29.7126 26.8759C29.9231 27.1365 30.1036 27.4171 30.2539 27.7178C30.4243 27.9985 30.5747 28.2992 30.705 28.6099Z" fill="#263238"/>
<path d="M32.1383 26.6052C31.9278 26.3446 31.7474 26.0639 31.5971 25.7632C31.4166 25.4825 31.2663 25.1818 31.146 24.8711C31.3565 25.1317 31.5369 25.4124 31.6873 25.7131C31.8677 25.9937 32.0181 26.2944 32.1383 26.6052Z" fill="#263238"/>
<path d="M33.3009 24.3298C33.0904 24.0692 32.91 23.7885 32.7597 23.4878C32.5792 23.2071 32.4289 22.9064 32.3086 22.5957C32.5191 22.8563 32.6895 23.147 32.8499 23.4377C33.0303 23.7183 33.1807 24.009 33.3009 24.3298Z" fill="#263238"/>
<path d="M34.0426 21.7737C33.8321 21.5131 33.6517 21.2324 33.5014 20.9317C33.3209 20.6511 33.1706 20.3503 33.0503 20.0396C33.2608 20.3002 33.4412 20.5809 33.5916 20.8816C33.772 21.1623 33.9223 21.463 34.0426 21.7737Z" fill="#263238"/>
<path d="M34.3935 19.0575C34.1529 18.7267 33.9324 18.3859 33.752 18.0251C33.5415 17.6843 33.3511 17.3234 33.1907 16.9425C33.4312 17.2633 33.6518 17.6141 33.8322 17.9749C34.0527 18.3258 34.2432 18.6866 34.3935 19.0575Z" fill="#263238"/>
<path d="M34.0227 15.2383C33.7821 14.9076 33.5616 14.5668 33.3811 14.2059C33.1707 13.8651 32.9802 13.5042 32.8198 13.1234C33.0604 13.4541 33.2809 13.7949 33.4714 14.1558C33.6919 14.5066 33.8723 14.8675 34.0227 15.2383Z" fill="#263238"/>
<g opacity="0.2">
<path opacity="0.2" d="M5.88626 11.1789L19.368 9.85574L21.3627 11.9407L21.3727 11.9507H21.3928L25.4624 11.5297L26.555 11.4094L26.8356 11.3793H26.8958C26.8958 11.3994 26.9058 11.4094 26.9058 11.4295C26.9359 11.4896 26.976 11.5397 27.0361 11.5798C27.0962 11.6199 27.1664 11.6299 27.2265 11.6199C27.2967 11.6099 27.3568 11.5898 27.407 11.5397C27.4571 11.4996 27.4972 11.4395 27.5072 11.3693C27.5172 11.3192 27.5172 11.2591 27.5072 11.2089C27.4872 11.1588 27.4671 11.1087 27.427 11.0686C27.407 11.0385 27.3769 11.0185 27.3368 11.0085C27.2967 10.9984 27.2666 10.9884 27.2366 10.9884C27.1864 10.9884 27.1664 10.9984 27.1664 11.0085C27.1664 11.0185 27.2767 11.0085 27.3568 11.1187C27.3769 11.1488 27.3969 11.1789 27.407 11.219C27.417 11.2591 27.417 11.2991 27.407 11.3292C27.3969 11.3693 27.3669 11.4094 27.3368 11.4395C27.3067 11.4695 27.2566 11.4896 27.2165 11.4896C27.1764 11.4896 27.1263 11.4896 27.0862 11.4595C27.0461 11.4395 27.016 11.4094 26.996 11.3693C26.9759 11.3392 26.9659 11.2991 26.9659 11.2591C26.9659 11.219 26.9759 11.1889 26.996 11.1488C27.0662 11.0285 27.1764 11.0185 27.1664 10.9984C27.1564 10.9784 27.1363 10.9784 27.0962 10.9984C27.0261 11.0085 26.9659 11.0486 26.9258 11.1087C26.9058 11.1488 26.8857 11.1889 26.8757 11.229C26.8657 11.2691 26.8657 11.3192 26.8857 11.3593H26.8356L26.555 11.3793L25.4724 11.4796L21.4028 11.8605L19.4181 9.76553L19.3981 9.74548H19.368L5.87623 11.0486L0.784235 11.5497C0.774211 11.5898 0.764188 11.6299 0.744141 11.66L5.88626 11.1789Z" fill="white"/>
<path opacity="0.2" d="M27.0263 8.01134L29.1513 10.1764L29.1714 10.1965H29.1914L31.7875 9.92585C31.7875 9.9058 31.7675 9.88575 31.7575 9.86571L29.2014 10.0962L27.0865 7.9111L27.0664 7.89105H27.0363L25.3424 8.05143L19.0676 8.67289L17.1631 8.87337L16.6419 8.93351C16.5817 8.93351 16.5216 8.94353 16.4614 8.96358C16.5216 8.9736 16.5917 8.9736 16.6519 8.96358L17.1731 8.92349L19.0776 8.75308L25.3524 8.16169L27.0263 8.01134Z" fill="white"/>
<path opacity="0.2" d="M13.4243 15.5192L14.7474 16.0705H14.7675L16.9927 15.87L17.5841 15.8099H17.6242C17.6242 15.86 17.6443 15.9101 17.6843 15.9402C17.7244 15.9702 17.7645 15.9903 17.8147 15.9903C17.8648 15.9903 17.9149 15.9702 17.945 15.9301C17.975 15.89 17.9951 15.8499 17.9951 15.7998C17.9951 15.7497 17.975 15.6996 17.945 15.6695C17.9149 15.6294 17.8648 15.6094 17.8147 15.6094C17.7645 15.6094 17.7144 15.6294 17.6843 15.6595C17.6443 15.6896 17.6242 15.7397 17.6242 15.7898H17.5841L16.9927 15.8299L14.7775 16.0003L13.4644 15.429L3.96201 16.3411L0.644197 16.6619L0.00268555 16.3411C0.00268555 16.3812 0.00268555 16.4213 0.00268555 16.4614L0.614126 16.7621H0.634174H0.654221L3.98206 16.4413L13.4243 15.5192Z" fill="white"/>
<path opacity="0.2" d="M14.6371 14.6671L13.3942 14.2862H13.3742L12.5723 14.3664C12.5322 13.8551 12.4821 13.374 12.452 12.9029V12.8528H12.4019L8.74326 13.2638L7.72085 13.3941L7.61059 13.4141C7.61059 13.374 7.59055 13.3339 7.55045 13.3038C7.52038 13.2738 7.47026 13.2537 7.43017 13.2638C7.39007 13.2738 7.33995 13.2838 7.30988 13.3139C7.27981 13.3439 7.25977 13.384 7.25977 13.4342C7.25977 13.4742 7.27981 13.5244 7.30988 13.5544C7.33995 13.5845 7.38005 13.6046 7.43017 13.6046C7.48028 13.6046 7.52038 13.5945 7.55045 13.5645C7.58052 13.5344 7.60057 13.4943 7.61059 13.4542H7.72085L8.74326 13.364L12.3518 13.0031C12.3919 13.4642 12.432 13.9554 12.472 14.4666V14.5167H12.5222L13.3641 14.4365L14.6071 14.8174H14.6171H14.6271L16.1808 14.6671L23.1773 13.9654L24.4703 14.6771H24.4803L25.7934 14.5368L26.1443 14.4967H26.1643C26.1944 14.5568 26.2345 14.6069 26.2946 14.647C26.3548 14.6771 26.4249 14.6971 26.4851 14.6871C26.5552 14.6771 26.6154 14.657 26.6655 14.6069C26.7156 14.5668 26.7557 14.5067 26.7657 14.4365C26.7757 14.3864 26.7757 14.3263 26.7657 14.2761C26.7557 14.226 26.7256 14.1759 26.6855 14.1358C26.6354 14.0857 26.5653 14.0556 26.4951 14.0556C26.445 14.0556 26.4249 14.0656 26.4249 14.0757C26.4249 14.0857 26.5352 14.0757 26.6154 14.1859C26.6354 14.216 26.6555 14.2461 26.6655 14.2862C26.6755 14.3263 26.6755 14.3563 26.6555 14.3964C26.6454 14.4365 26.6154 14.4766 26.5853 14.5067C26.5552 14.5368 26.5051 14.5568 26.465 14.5568C26.4249 14.5568 26.3748 14.5568 26.3347 14.5267C26.2946 14.5067 26.2645 14.4766 26.2445 14.4365C26.2244 14.4064 26.2144 14.3663 26.2144 14.3263C26.2144 14.2862 26.2244 14.2561 26.2445 14.216C26.3147 14.0957 26.4249 14.0857 26.4149 14.0656C26.4049 14.0456 26.3948 14.0456 26.3447 14.0656C26.2746 14.0857 26.2144 14.1258 26.1743 14.1759C26.1443 14.216 26.1242 14.2661 26.1242 14.3162C26.1142 14.3664 26.1242 14.4165 26.1443 14.4666H26.1242L25.7734 14.4967L24.4703 14.6069L23.1773 13.8752H23.1672L16.1708 14.5368L14.6371 14.6671Z" fill="white"/>
<path opacity="0.2" d="M7.31985 27.1866C7.26974 27.1365 7.19957 27.1064 7.1294 27.1064C7.07929 27.1064 7.05924 27.1164 7.05924 27.1265C7.05924 27.1365 7.1695 27.1265 7.24969 27.2367C7.26974 27.2668 7.28978 27.2969 7.29981 27.337C7.30983 27.377 7.30983 27.4071 7.29981 27.4472C7.28978 27.4873 7.25971 27.5274 7.22964 27.5575C7.19957 27.5875 7.14945 27.6076 7.10936 27.6076C7.06926 27.6076 7.01914 27.6076 6.97905 27.5775C6.93896 27.5575 6.90889 27.5274 6.88884 27.4873C6.86879 27.4572 6.85877 27.4171 6.85877 27.377C6.85877 27.337 6.86879 27.3069 6.88884 27.2668C6.94898 27.1465 7.06926 27.1365 7.05924 27.1164C7.04922 27.0964 7.02917 27.0964 6.98907 27.1164C6.91891 27.1365 6.85877 27.1766 6.81867 27.2267C6.7886 27.2668 6.76855 27.3269 6.76855 27.377C6.76855 27.4272 6.76855 27.4873 6.79863 27.5374C6.8287 27.5976 6.86879 27.6477 6.92893 27.6878C6.98907 27.7179 7.05924 27.7379 7.11938 27.7279C7.18955 27.7179 7.24969 27.6978 7.29981 27.6477C7.34992 27.6076 7.39002 27.5475 7.40004 27.4773V27.4673H7.45016L7.70075 27.4472L8.63295 27.377L11.8906 27.0763H11.9407L11.9508 27.0463L12.893 25.0415V25.0215V25.0015C12.8629 24.7007 12.8328 24.39 12.8028 24.0793C12.6725 22.7361 12.5422 21.4731 12.4319 20.3906V20.3705L12.4119 20.3605L10.8482 19.3381H10.8381H10.8281L9.30453 19.5085L8.89356 19.5586H8.83342C8.8234 19.4885 8.79333 19.4183 8.74321 19.3682C8.69309 19.3181 8.62292 19.288 8.55276 19.288C8.50264 19.288 8.48259 19.298 8.48259 19.308C8.48259 19.3181 8.59285 19.308 8.67304 19.4183C8.69309 19.4484 8.71314 19.4784 8.72316 19.5185C8.73318 19.5586 8.73318 19.5987 8.71314 19.6288C8.70311 19.6689 8.67304 19.699 8.64297 19.729C8.6129 19.7591 8.57281 19.7691 8.52269 19.7791C8.48259 19.7791 8.4425 19.7791 8.4024 19.7591C8.36231 19.7391 8.33224 19.709 8.31219 19.6689C8.29214 19.6388 8.28212 19.5987 8.28212 19.5586C8.28212 19.5185 8.29214 19.4885 8.31219 19.4484C8.38236 19.3281 8.49262 19.3181 8.48259 19.298C8.47257 19.278 8.46255 19.288 8.41243 19.298C8.34226 19.3181 8.28212 19.3582 8.24203 19.4083C8.21196 19.4484 8.19191 19.5085 8.19191 19.5586C8.19191 19.6087 8.19191 19.6689 8.22198 19.719C8.25205 19.7791 8.29214 19.8293 8.35229 19.8694C8.41243 19.8994 8.48259 19.9195 8.54273 19.9095C8.6129 19.8994 8.67304 19.8794 8.72316 19.8293C8.77328 19.7791 8.81337 19.729 8.8234 19.6589C8.8234 19.6288 8.8234 19.5987 8.8234 19.5686H8.88354L9.29451 19.5386L10.8081 19.4083L12.3317 20.4307C12.4319 21.5032 12.5522 22.7662 12.6825 24.0993C12.7126 24.4101 12.7426 24.7108 12.7727 25.0115L11.8606 26.9561L8.62292 27.3169L7.70075 27.4272L7.45016 27.4572H7.40004C7.41007 27.4071 7.40004 27.357 7.39002 27.3169C7.38 27.2668 7.34992 27.2267 7.31985 27.1866Z" fill="white"/>
<path opacity="0.2" d="M24.731 22.4153C24.7711 22.4153 24.8112 22.3953 24.8412 22.3552C24.8713 22.3251 24.8813 22.285 24.8813 22.2449L25.3625 22.2048L27.1467 22.0444H27.1567L29.0211 20.5008L32.8 20.1399C32.8 20.0998 32.82 20.0597 32.8301 20.0197L29.001 20.4006H28.981H28.971L27.1166 21.9642L25.3424 22.1547L24.8613 22.2148C24.8513 22.1848 24.8412 22.1547 24.8212 22.1346C24.8011 22.1146 24.7711 22.0945 24.741 22.0845C24.7109 22.0745 24.6809 22.0745 24.6508 22.0845C24.6207 22.0945 24.5906 22.1146 24.5706 22.1447C24.5506 22.1747 24.5405 22.2048 24.5405 22.2349C24.5405 22.2649 24.5405 22.295 24.5606 22.3251C24.5806 22.3552 24.6007 22.3752 24.6307 22.3953C24.6608 22.4053 24.6909 22.4153 24.731 22.4153Z" fill="white"/>
<path opacity="0.2" d="M16.1208 33.1306C16.1208 33.0704 16.1208 33.0003 16.1108 32.9101C16.0908 32.6495 16.0607 32.3087 16.0306 31.9077C15.9605 31.0557 15.8502 29.8829 15.7299 28.5899C15.6898 28.1789 15.6497 27.788 15.6096 27.4171V27.3971L15.5896 27.377L13.6851 25.8334C13.645 25.5227 13.6149 25.2621 13.5949 25.0716C13.5749 24.9413 13.5648 24.8611 13.5548 24.821C13.5749 24.821 13.5949 24.821 13.6149 24.821C13.635 24.821 13.655 24.811 13.6751 24.801C13.6951 24.7909 13.7152 24.7809 13.7252 24.7609C13.7352 24.7408 13.7453 24.7208 13.7553 24.7007C13.7653 24.6807 13.7653 24.6606 13.7653 24.6406C13.7653 24.6205 13.7553 24.6005 13.7453 24.5804C13.7352 24.5604 13.7152 24.5403 13.7052 24.5303C13.6851 24.5203 13.6651 24.5103 13.645 24.5003C13.625 24.4902 13.6049 24.4902 13.5748 24.5003C13.5548 24.5003 13.5348 24.5103 13.5147 24.5203C13.4947 24.5303 13.4746 24.5504 13.4646 24.5604C13.4546 24.5704 13.4445 24.6005 13.4345 24.6205C13.4245 24.6406 13.4245 24.6606 13.4345 24.6907C13.4345 24.7208 13.4546 24.7508 13.4646 24.7709C13.4846 24.7909 13.5047 24.811 13.5348 24.821C13.5348 24.8511 13.5348 24.9413 13.5448 25.0816C13.5648 25.2721 13.5749 25.5427 13.6049 25.8534V25.8735H13.6149L15.4994 27.4472C15.5295 27.8181 15.5696 28.199 15.6096 28.5899C15.74 29.8829 15.8602 31.0557 15.9504 31.9077C16.0006 32.3187 16.0407 32.6595 16.0607 32.9101C16.0707 33.0003 16.0808 33.0704 16.0908 33.1306C16.0507 33.1406 16.0206 33.1607 15.9905 33.1907H16.2512C16.2311 33.1707 16.2111 33.1607 16.191 33.1506C16.171 33.1306 16.1509 33.1206 16.1208 33.1306Z" fill="white"/>
<path opacity="0.2" d="M8.40283 8.6529C8.41286 8.68297 8.42288 8.71304 8.44293 8.74311C8.46297 8.76316 8.49304 8.78321 8.52312 8.79323C8.55319 8.80325 8.58326 8.80325 8.61333 8.79323C8.6434 8.78321 8.67347 8.76316 8.69352 8.74311C8.71356 8.71304 8.72359 8.68297 8.72359 8.6529C8.72359 8.62283 8.72359 8.59276 8.70354 8.56269C8.68349 8.53262 8.66345 8.51257 8.63337 8.49252C8.6033 8.47247 8.57323 8.47247 8.54316 8.47247C8.52311 8.47247 8.50307 8.4825 8.48302 8.49252C8.46297 8.50254 8.44293 8.52259 8.4329 8.53261C8.42288 8.55266 8.41286 8.57271 8.40283 8.59276C8.40283 8.6128 8.40283 8.63285 8.40283 8.6529Z" fill="white"/>
<path opacity="0.2" d="M21.5733 23.7184L21.904 23.6783H21.9642C21.9642 23.6883 21.9642 23.6983 21.9642 23.7084C21.9642 23.7485 21.9942 23.7886 22.0243 23.8186C22.0544 23.8487 22.1045 23.8587 22.1446 23.8587C22.1847 23.8487 22.2248 23.8287 22.2549 23.7986C22.2849 23.7685 22.295 23.7184 22.2849 23.6783C22.2849 23.6382 22.2649 23.5981 22.2248 23.568C22.1947 23.538 22.1546 23.5279 22.1045 23.5279C22.0644 23.5279 22.0343 23.548 22.0143 23.568C21.9942 23.5881 21.9742 23.6282 21.9642 23.6583H21.904L21.5733 23.6783L20.3403 23.7585L16.1906 24.0592C16.1304 23.5981 16.0803 23.117 16.0101 22.6258C15.9901 22.4855 15.9801 22.3552 15.96 22.2249L17.4435 20.591L17.4636 20.571V20.5509C17.4135 20.0197 17.3633 19.5185 17.3132 19.0574V19.0474L17.2932 19.0374L16.792 18.6264L16.782 18.6164H16.7619L14.8775 18.8168L14.3663 18.877H14.3061C14.2961 18.8068 14.266 18.7367 14.2159 18.6865C14.1658 18.6364 14.0956 18.6063 14.0255 18.6063C13.9754 18.6063 13.9553 18.6164 13.9553 18.6264C13.9553 18.6364 14.0656 18.6264 14.1458 18.7367C14.1858 18.7767 14.1959 18.8369 14.1959 18.897H14.1758H14.2159C14.2159 18.9171 14.2159 18.9271 14.2159 18.9472C14.2059 18.9872 14.1758 19.0273 14.1458 19.0574C14.1157 19.0875 14.0656 19.1075 14.0255 19.1075C13.9854 19.1075 13.9353 19.1075 13.8952 19.0775C13.8551 19.0574 13.825 19.0273 13.805 18.9872C13.7849 18.9572 13.7749 18.9171 13.7749 18.877C13.7749 18.8369 13.7849 18.7968 13.805 18.7667C13.8751 18.6464 13.9854 18.6364 13.9754 18.6164C13.9653 18.5963 13.9453 18.6063 13.9052 18.6164C13.835 18.6364 13.7749 18.6765 13.7348 18.7266C13.7047 18.7667 13.6847 18.8168 13.6847 18.877C13.6746 18.9271 13.6847 18.9872 13.7147 19.0374C13.7448 19.0975 13.7849 19.1476 13.845 19.1877C13.9052 19.2178 13.9754 19.2378 14.0355 19.2278C14.0956 19.2178 14.1658 19.1977 14.2159 19.1476C14.266 19.1075 14.3061 19.0474 14.3162 18.9772C14.3162 18.9472 14.3162 18.9271 14.3162 18.897H14.3763L14.8975 18.8569L16.7619 18.6966L17.223 19.0775C17.2631 19.5185 17.3132 20.0097 17.3633 20.5309L15.8598 22.1647L15.8397 22.1848V22.2048C15.8598 22.3452 15.8698 22.4855 15.8899 22.6258C15.95 23.137 16.0202 23.6282 16.0803 24.1093V24.1594H16.1304L20.3203 23.8186L21.5733 23.7184Z" fill="white"/>
<path opacity="0.2" d="M19.0977 23.1971C19.0075 22.1146 18.9072 20.9719 18.817 19.8192L18.7769 19.338V19.318L18.7569 19.2979L17.1631 17.9247L17.1431 17.9047H17.123L7.25978 18.877H7.24975H7.23973L1.24561 22.9064C1.24561 22.9265 1.26565 22.9566 1.27568 22.9766L7.27982 18.9772L17.113 18.0249L18.6767 19.3581C18.6867 19.5084 18.6967 19.6588 18.7168 19.8092C18.817 20.9819 18.9072 22.1447 19.0075 23.2372V23.2974H19.0676L32.2286 22.1547C32.2386 22.1246 32.2487 22.0945 32.2587 22.0645L19.0977 23.1971Z" fill="white"/>
<path opacity="0.2" d="M18.8674 17.0627C18.9075 17.3935 18.9576 17.8545 19.0178 18.4259V18.4459L19.0278 18.456C19.7495 19.0173 20.7118 19.759 21.8344 20.6311L21.8545 20.6411H21.8745L25.5933 20.2803L32.0385 19.6387L32.9306 19.5385C32.9306 19.5185 32.9306 19.4984 32.9306 19.4784L32.0184 19.5586L25.5732 20.17L21.8745 20.5308L19.088 18.4058C19.0078 17.8345 18.9476 17.3834 18.8975 17.0627C18.8775 16.9123 18.8574 16.792 18.8474 16.7018C18.8374 16.6617 18.8374 16.6216 18.8273 16.5815C18.8173 16.6216 18.8173 16.6617 18.8273 16.7119C18.8374 16.792 18.8474 16.9123 18.8674 17.0627Z" fill="white"/>
<path opacity="0.2" d="M22.0347 12.7725H22.0147H22.0046L21.0323 13.4541L17.9852 13.7849L17.1131 13.8851L16.9026 13.9152C16.8926 13.8551 16.8625 13.7949 16.8124 13.7448C16.7623 13.6947 16.6921 13.6646 16.6219 13.6646C16.5718 13.6646 16.5518 13.6746 16.5518 13.6847C16.5518 13.6947 16.662 13.6847 16.7422 13.7949C16.7723 13.835 16.7923 13.8851 16.7923 13.9352C16.7923 13.9553 16.7923 13.9854 16.7923 14.0054C16.7823 14.0455 16.7523 14.0856 16.7222 14.1157C16.6921 14.1457 16.642 14.1658 16.6019 14.1658C16.5618 14.1658 16.5117 14.1658 16.4716 14.1357C16.4315 14.1157 16.4014 14.0856 16.3814 14.0455C16.3613 14.0154 16.3513 13.9753 16.3513 13.9352C16.3513 13.8951 16.3613 13.8651 16.3814 13.825C16.4515 13.7047 16.5618 13.6947 16.5518 13.6746C16.5418 13.6546 16.5217 13.6546 16.4816 13.6746C16.4115 13.6947 16.3513 13.7348 16.3112 13.7849C16.2811 13.825 16.2611 13.8751 16.2511 13.9352C16.241 13.9854 16.2511 14.0455 16.2811 14.0956C16.3112 14.1558 16.3613 14.2059 16.4115 14.246C16.4616 14.2861 16.5418 14.2961 16.6019 14.2861C16.6721 14.276 16.7322 14.256 16.7823 14.2059C16.8324 14.1658 16.8725 14.1056 16.8826 14.0355C16.8926 14.0054 16.8926 13.9653 16.8826 13.9352L17.0931 13.9252L17.9651 13.8551L21.0123 13.5744H21.0524H21.0624L22.0347 12.9028L23.6485 12.7725L28.6503 12.3615L30.1639 12.2212L30.5548 12.1811C30.5648 12.2212 30.5848 12.2613 30.6149 12.2813C30.645 12.3014 30.6851 12.3214 30.7252 12.3114C30.7452 12.3114 30.7653 12.3014 30.7853 12.2914C30.8054 12.2813 30.8254 12.2713 30.8354 12.2513C30.8455 12.2312 30.8555 12.2112 30.8655 12.1911C30.8755 12.1711 30.8755 12.151 30.8755 12.131C30.8655 12.0909 30.8455 12.0508 30.8154 12.0308C30.7853 12.0007 30.7452 11.9907 30.6951 11.9907C30.655 11.9907 30.6149 12.0107 30.5848 12.0408C30.5548 12.0709 30.5448 12.1109 30.5448 12.151L30.1538 12.1711L28.6302 12.2713L23.6285 12.6522L22.0347 12.7725Z" fill="white"/>
<path opacity="0.2" d="M13.7651 29.3918C13.715 28.9308 13.6749 28.4797 13.6348 28.0587V28.0286L13.6147 28.0186L12.5823 27.3771L12.5623 27.3671H12.5422L10.1666 27.6177L9.49504 27.6978L9.41485 27.7079C9.40482 27.6678 9.38478 27.6277 9.35471 27.5976C9.32463 27.5675 9.27452 27.5575 9.23442 27.5675C9.19433 27.5776 9.15423 27.5976 9.12416 27.6277C9.09409 27.6578 9.08407 27.7079 9.09409 27.748C9.09409 27.7881 9.11414 27.8282 9.14421 27.8582C9.17428 27.8883 9.21437 27.8983 9.26449 27.8983C9.30459 27.8983 9.34468 27.8783 9.37475 27.8482C9.40482 27.8181 9.41485 27.778 9.41485 27.7279H9.49504L10.1666 27.6778L12.5322 27.4673L13.5245 28.0988C13.5646 28.5198 13.6047 28.9608 13.6548 29.4019C13.7952 30.755 13.9155 31.998 14.0157 33.0003L14.1059 33.0104C14.0157 32.008 13.8954 30.755 13.7651 29.3918Z" fill="white"/>
<path opacity="0.2" d="M15.3587 32.1682L15.3788 32.1482V32.1281C15.1984 30.354 15.038 28.68 14.8976 27.2266V27.2066L14.8776 27.1965C14.3564 26.7755 13.8752 26.3746 13.4242 26.0037C13.2939 24.7508 13.1836 23.7284 13.1134 23.0067C13.0733 22.6558 13.0433 22.3752 13.0232 22.1847C13.0232 22.0945 13.0032 22.0344 12.9932 21.9742C13.0032 21.9742 13.0132 21.9742 13.0232 21.9742C13.0433 21.9742 13.0633 21.9642 13.0834 21.9542C13.1034 21.9442 13.1235 21.9241 13.1335 21.9141C13.1435 21.894 13.1535 21.874 13.1636 21.8539C13.1736 21.8339 13.1736 21.8138 13.1636 21.7838C13.1636 21.7437 13.1335 21.7036 13.1034 21.6735C13.0733 21.6434 13.0232 21.6334 12.9831 21.6334C12.943 21.6334 12.9029 21.6535 12.8729 21.6835C12.8428 21.7136 12.8228 21.7537 12.8228 21.7938C12.8228 21.8339 12.8328 21.874 12.8628 21.9041C12.8929 21.9341 12.923 21.9542 12.9631 21.9642C12.9631 22.0243 12.9631 22.0945 12.9831 22.1747C13.0032 22.3651 13.0232 22.6458 13.0533 23.0067C13.1134 23.7284 13.2137 24.7608 13.3239 26.0238V26.0438L13.344 26.0538L14.7874 27.2466C14.9277 28.7001 15.0881 30.354 15.2585 32.1081L15.0981 32.2986L14.4767 33.0603L14.617 33.0804L15.1883 32.3787L15.3587 32.1682Z" fill="white"/>
<path opacity="0.2" d="M30.5849 24.841L22.2954 25.6329L20.4811 25.8133H20.441L20.431 25.8534L19.8596 27.9984V28.0085C20.0501 29.8628 20.2104 31.4867 20.3408 32.7797L20.4109 32.7597C20.2906 31.4766 20.1403 29.8528 19.9699 28.0085C20.1603 27.3369 20.3508 26.6352 20.5412 25.9135L22.3154 25.7431L30.5949 24.9212L30.9858 24.8811L31.036 24.8009L30.5849 24.841Z" fill="white"/>
<path opacity="0.2" d="M20.15 18.1653V18.1853L20.17 18.2053L20.7614 18.6263L22.4053 19.7891L22.4254 19.7991H22.4454L26.6754 19.3681L27.9083 19.2278L28.1889 19.1877C28.199 19.2278 28.219 19.2678 28.2491 19.2879C28.2791 19.318 28.3192 19.328 28.3694 19.318C28.3894 19.318 28.4095 19.3079 28.4295 19.2979C28.4495 19.2879 28.4696 19.2779 28.4796 19.2578C28.4896 19.2378 28.4997 19.2177 28.5097 19.1977C28.5197 19.1776 28.5197 19.1576 28.5197 19.1375C28.5097 19.0974 28.4896 19.0574 28.4596 19.0373C28.4295 19.0072 28.3894 18.9972 28.3493 18.9972C28.3092 18.9972 28.2691 19.0173 28.239 19.0473C28.209 19.0774 28.1889 19.1175 28.1889 19.1576L27.9083 19.1776L26.6754 19.2779L22.4654 19.6588L20.8416 18.5061L20.2703 18.1051C20.14 16.8321 20.0197 15.6393 19.9194 14.6169V14.5668H19.8693L17.203 14.8474L16.4613 14.9376L16.3611 14.9477C16.351 14.9276 16.331 14.9076 16.3109 14.8875C16.2608 14.8374 16.1907 14.8073 16.1205 14.8073C16.0704 14.8073 16.0503 14.8174 16.0503 14.8274C16.0503 14.8374 16.1606 14.8274 16.2408 14.9376C16.2408 14.9477 16.2408 14.9477 16.2408 14.9577C16.2207 14.9577 16.2007 14.9677 16.1806 14.9677C16.2007 14.9677 16.2207 14.9677 16.2508 14.9677C16.2709 14.9978 16.2809 15.0279 16.2809 15.0579C16.2809 15.088 16.2809 15.1281 16.2709 15.1582C16.2608 15.1983 16.2308 15.2384 16.2007 15.2684C16.1706 15.2985 16.1205 15.3185 16.0804 15.3185C16.0403 15.3185 15.9902 15.3185 15.9501 15.2885C15.91 15.2684 15.8799 15.2384 15.8599 15.1983C15.8398 15.1682 15.8298 15.1281 15.8298 15.088C15.8298 15.0479 15.8398 15.0178 15.8599 14.9777C15.93 14.8575 16.0403 14.8474 16.0303 14.8274C16.0203 14.8073 16.0002 14.8073 15.9601 14.8274C15.89 14.8374 15.8298 14.8775 15.7897 14.9376C15.7596 14.9777 15.7396 15.0279 15.7396 15.088C15.7296 15.1381 15.7396 15.1983 15.7697 15.2484C15.7997 15.3085 15.8398 15.3586 15.9 15.3987C15.9601 15.4288 16.0303 15.4489 16.0904 15.4388C16.1606 15.4288 16.2207 15.4088 16.2709 15.3586C16.321 15.3185 16.3611 15.2584 16.3711 15.1882C16.3911 15.1181 16.3811 15.0379 16.341 14.9777H16.4312L17.183 14.9176L19.8092 14.6871C19.9194 15.7295 20.0297 16.9023 20.15 18.1653Z" fill="white"/>
<path opacity="0.2" d="M32.8603 15.8799L31.2866 14.5868L31.2665 14.5668H31.2465L31.1061 14.5768L24.3302 15.2584L23.2476 14.647H23.2376H23.2175L21.8142 14.7873H21.7942L21.7842 14.7973L20.3809 16.5314L20.4911 17.5839C20.5011 17.6941 20.5112 17.7844 20.5212 17.8545C20.5212 17.8846 20.5312 17.9147 20.5412 17.9447C20.5412 17.9147 20.5412 17.8846 20.5412 17.8545C20.5412 17.7844 20.5312 17.6941 20.5212 17.5839C20.5011 17.3333 20.4711 16.9925 20.431 16.5414L21.8443 14.8474L23.1975 14.7372L24.28 15.3586H24.2901H24.3101L31.1162 14.7071L31.2364 14.6971L32.8101 15.9901L32.8302 16.0102H32.8502L33.191 15.9801C33.191 15.94 33.191 15.9099 33.191 15.8698L32.8603 15.8799Z" fill="white"/>
<path opacity="0.2" d="M11.2389 1.92698L11.2589 1.94702L12.9229 3.31024C13.0832 4.93406 13.2336 6.37746 13.3539 7.5402V7.56025L13.3739 7.57027L14.9176 8.33207L15.8698 8.22181L16.1304 8.20176C16.1605 8.20176 16.1906 8.19174 16.2106 8.18171C16.1805 8.18171 16.1505 8.18171 16.1304 8.18171L15.8798 8.20176L14.9276 8.28195L13.424 7.52015C13.3238 6.34739 13.1935 4.90399 13.0431 3.28017V3.26012L13.0231 3.24007L11.3592 1.86684C11.3291 1.53606 11.289 1.20528 11.2589 0.884521L11.1487 0.924616C11.1788 1.24537 11.2088 1.57615 11.2389 1.90693V1.92698Z" fill="white"/>
<path opacity="0.2" d="M13.9854 3.15994L13.9753 3.17999V3.20004L14.2761 6.0267C14.3161 6.35748 14.3462 6.62811 14.3663 6.83861C14.3763 6.93885 14.3863 7.02906 14.4064 7.12929C14.4164 7.02906 14.4164 6.93885 14.4064 6.83861C14.3863 6.63814 14.3663 6.3675 14.3462 6.0267C14.2861 5.32504 14.1959 4.35275 14.0956 3.22008L15.6393 1.33564L16.4712 0.323258L16.4913 0.303211V0.283164C16.4913 0.182928 16.4712 0.092715 16.4612 0.00250244H16.3409L16.361 0.27314L15.539 1.26548L13.9854 3.15994Z" fill="white"/>
<path opacity="0.2" d="M15.8901 3.08988C15.9101 3.05981 15.9201 3.01972 15.9201 2.98965C15.9201 2.95957 15.9001 2.9295 15.8801 2.89943C15.86 2.86936 15.8299 2.85934 15.7999 2.84931C15.7698 2.83929 15.7397 2.83929 15.6996 2.84931C15.6696 2.85934 15.6395 2.87939 15.6194 2.89943C15.5994 2.9295 15.5894 2.95957 15.5793 2.98965C15.5793 3.01972 15.5793 3.05981 15.5994 3.07986C15.6194 3.10993 15.6395 3.12998 15.6696 3.15002C15.6996 3.17007 15.7297 3.17007 15.7598 3.17007C15.7999 3.17007 15.8299 3.15002 15.86 3.11995C15.9001 3.16005 15.9602 3.21016 16.0304 3.27031C16.2108 3.43068 16.4714 3.6512 16.7722 3.91182C16.7922 4.15238 16.8223 4.413 16.8423 4.67361C16.9025 5.27503 16.9626 5.81631 17.0127 6.20723C17.0328 6.41772 17.0628 6.63824 17.113 6.83871C17.123 6.62822 17.123 6.4077 17.0929 6.1972C17.0628 5.80628 17.0227 5.25498 16.9626 4.65357C16.9325 4.3729 16.9025 4.11229 16.8824 3.8617L16.8924 3.85168L16.8724 3.84165C16.5516 3.59106 16.281 3.37054 16.0805 3.22019C16.0003 3.17007 15.9302 3.11995 15.8901 3.08988Z" fill="white"/>
<path opacity="0.2" d="M17.8447 7.36983V7.38988L17.8547 7.3999L18.7168 8.29201L18.7368 8.31205H18.7669L23.8088 7.8209L26.4249 7.57031H26.445L26.465 7.55026L28.4397 4.95414C28.4196 4.93409 28.3895 4.90402 28.3595 4.87395L26.3748 7.46005L23.7987 7.72066L18.7769 8.21182L17.9449 7.34979C17.6442 4.3828 17.3936 1.84682 17.2132 0.0626164V0.022522H17.1531V0.0626164C17.3235 1.85684 17.564 4.39282 17.8447 7.36983Z" fill="white"/>
<path opacity="0.2" d="M19.9496 9.17408L18.7568 9.27432L14.8075 9.64519C14.7874 9.47479 14.7774 9.29436 14.7573 9.11394V9.07384V9.04377L14.7273 9.02373L13.1836 8.15167H13.1636H13.1435L9.97607 8.47243L9.06392 8.57266L8.82335 8.60274C8.79328 8.60274 8.76321 8.61276 8.74316 8.62278C8.77323 8.62278 8.80331 8.62278 8.83338 8.62278L9.07394 8.61276L9.99612 8.54259L13.1435 8.26193L14.6371 9.11394V9.12396C14.6571 9.32444 14.6771 9.52491 14.6972 9.71536V9.7755H14.7573L18.7568 9.36453L19.9496 9.2242L20.2703 9.1841C20.3104 9.1841 20.3505 9.17408 20.3806 9.16406C20.3405 9.15403 20.3004 9.15403 20.2703 9.16406L19.9496 9.17408Z" fill="white"/>
<path opacity="0.2" d="M5.47559 4.2827L6.52807 5.33518L6.54811 5.35523H6.57818L9.43492 5.06455C9.50508 5.67599 9.5552 6.17717 9.59529 6.54804C9.61534 6.68837 9.62536 6.79863 9.63539 6.89887C9.63539 6.89887 9.61534 6.89887 9.61534 6.90889C9.61534 6.91891 9.61534 6.90889 9.63539 6.91891V6.96903C9.63539 7.01915 9.64541 7.06927 9.66546 7.10936C9.66546 7.05925 9.66546 7.00913 9.66546 6.95901V6.91891C9.7256 6.92894 9.77572 6.96903 9.81581 7.01915C9.83586 7.04922 9.85591 7.07929 9.86593 7.11939C9.87595 7.15948 9.87595 7.19958 9.85591 7.22965C9.84588 7.26974 9.81581 7.30984 9.78574 7.33991C9.75567 7.36998 9.70555 7.39002 9.66546 7.39002C9.62536 7.39002 9.57525 7.39002 9.53515 7.35995C9.49506 7.33991 9.46499 7.30984 9.44494 7.26974C9.42489 7.23967 9.41487 7.19958 9.41487 7.15948C9.41487 7.11939 9.42489 7.08932 9.44494 7.04922C9.5151 6.92894 9.62536 6.91892 9.61534 6.89887C9.60532 6.87882 9.58527 6.87882 9.54517 6.89887C9.48503 6.91892 9.42489 6.95901 9.3848 7.01915C9.35473 7.05925 9.33468 7.11939 9.33468 7.16951C9.32466 7.21962 9.33468 7.27976 9.36475 7.32988C9.39482 7.39002 9.44494 7.44014 9.49506 7.48024C9.54517 7.52033 9.62536 7.53036 9.68551 7.52033C9.74565 7.51031 9.81581 7.49026 9.86593 7.44014C9.91605 7.40005 9.95614 7.33991 9.96617 7.26974C9.97619 7.21962 9.97619 7.15948 9.96617 7.10936C9.95614 7.05925 9.92607 7.00913 9.88598 6.96903C9.83586 6.91891 9.76569 6.88884 9.69553 6.88884H9.66546C9.66546 6.78861 9.64541 6.67835 9.64541 6.53802C9.61534 6.15712 9.56522 5.64592 9.5151 5.01443V4.97433H9.47501L6.59823 5.23495L5.5658 4.20251L5.47559 4.2827Z" fill="white"/>
</g>
</svg>
