<svg width="36" height="23" viewBox="0 0 36 23" fill="none" xmlns="http://www.w3.org/2000/svg">
<path d="M0 2.75938C0 1.87625 0.715916 1.16034 1.59904 1.16034H33.1535C34.0366 1.16034 34.7525 1.87626 34.7525 2.75938V20.7753C34.7525 21.6584 34.0366 22.3743 33.1535 22.3743H1.59904C0.715916 22.3743 0 21.6584 0 20.7753V2.75938Z" fill="#131313"/>
<mask id="mask0" mask-type="alpha" maskUnits="userSpaceOnUse" x="0" y="1" width="25" height="22">
<path d="M0 2.75938C0 1.87625 0.715916 1.16034 1.59904 1.16034H22.7064C23.5895 1.16034 24.3054 1.87626 24.3054 2.75938V20.7753C24.3054 21.6584 23.5895 22.3743 22.7064 22.3743H1.59904C0.715915 22.3743 0 21.6584 0 20.7753V2.75938Z" fill="#131313"/>
</mask>
<g mask="url(#mask0)">
<g opacity="0.45">
<path d="M8.37524 19.1819C8.34428 18.8568 8.31332 18.5471 8.28235 18.1756C8.65392 18.1446 8.91711 18.1136 9.1803 18.1136C10.8059 18.1136 12.4315 18.0827 14.0416 18.1136C17.5251 18.2065 20.4202 15.9926 21.5659 13.0356C23.1915 8.7935 20.993 4.31922 17.138 2.80199C16.0543 2.39946 14.9706 2.18271 13.8404 2.18271C10.0473 2.18271 6.25422 2.18271 2.46114 2.18271C2.24439 2.18271 2.02765 2.16723 1.82638 2.18271C1.22258 2.24464 1.14517 2.32205 1.11421 2.92585C1.09873 3.11163 1.11421 3.29741 1.11421 3.4832C1.11421 10.4036 1.11421 17.3086 1.11421 24.229C1.11421 24.5851 1.11421 24.9412 1.11421 25.3592C0.71168 25.3592 0.433005 25.3592 0.169812 25.3592C-0.0314534 24.5851 -0.0624174 2.35301 0.123366 1.28476C0.417523 1.2538 0.742644 1.17639 1.06776 1.17639C5.48012 1.17639 9.87699 1.20735 14.2893 1.16091C18.2992 1.11446 21.8136 3.93217 22.8199 7.60139C23.8262 11.2242 22.9747 14.4754 20.1725 17.0918C18.8256 18.3459 17.138 19.0271 15.3576 19.1509C13.0663 19.3057 10.7595 19.1819 8.37524 19.1819Z" fill="#2C2C2C"/>
<path d="M2.24463 25.328C2.24463 17.9741 2.24463 10.6666 2.24463 3.31271C2.55427 3.28174 2.81746 3.25078 3.08065 3.25078C6.87373 3.25078 10.6668 3.2353 14.4599 3.25078C17.1228 3.25078 19.7083 5.29439 20.6062 7.67861C21.1016 9.01006 21.1481 10.357 20.8694 11.642C20.343 14.0417 18.9496 15.8531 16.519 16.6736C15.9461 16.8594 15.3424 16.9987 14.7386 17.0142C12.8188 17.0607 10.8836 17.0297 8.96379 17.0297C8.66963 17.0297 8.31355 17.0762 8.25162 16.6427C8.18969 16.2866 8.40644 15.9924 8.79349 15.9615C9.13409 15.9305 9.45921 15.946 9.79982 15.946C11.3325 15.946 12.8652 15.915 14.3825 15.946C16.7512 16.0079 18.8103 14.3513 19.4915 12.3696C20.6681 8.8862 19.3677 6.37813 16.6119 4.81445C16.0855 4.5203 15.4043 4.36548 14.8005 4.35C11.1313 4.30355 7.46204 4.31903 3.79282 4.31903C3.66897 4.31903 3.56059 4.35 3.32836 4.38096C3.2974 4.75253 3.26644 5.13957 3.26644 5.52662C3.26644 11.673 3.26644 17.8193 3.26644 23.9656C3.26644 24.1824 3.28192 24.3991 3.26644 24.6004C3.21999 25.3435 3.15806 25.39 2.24463 25.328Z" fill="#2C2C2C"/>
<path d="M5.32503 25.3435C4.93798 25.3435 4.65931 25.3435 4.30322 25.3435C4.30322 18.7172 4.30322 12.1529 4.30322 5.5111C4.64383 5.48014 4.96895 5.41821 5.29407 5.41821C8.2666 5.41821 11.2391 5.48014 14.1962 5.38725C16.6733 5.30984 18.7324 7.36894 18.9956 9.64478C19.2278 11.6265 18.1905 14.0881 15.7753 14.7229C15.1406 14.8932 14.4594 15.0015 13.8091 15.017C12.3384 15.0635 10.8676 15.0325 9.39678 15.0325C9.08714 15.0325 8.79299 15.0325 8.51431 15.0325C8.0963 14.1036 8.20467 13.9333 9.08714 13.9178C10.7437 13.9023 12.4003 13.8714 14.0414 13.9333C15.8682 13.9952 17.3081 12.8495 17.757 11.3478C18.1905 9.87701 17.8035 8.35978 16.3946 7.21412C15.7599 6.68773 15.0012 6.4555 14.1962 6.4555C11.5333 6.44002 8.8704 6.44002 6.2075 6.4555C5.94431 6.4555 5.68112 6.51743 5.32503 6.56387C5.32503 12.8341 5.32503 19.0578 5.32503 25.3435Z" fill="#2C2C2C"/>
<path d="M8.32892 12.6949C8.28248 11.8434 8.34441 11.7505 9.04109 11.7505C10.6667 11.735 12.2768 11.7505 13.9024 11.735C14.2121 11.735 14.5217 11.735 14.8159 11.6731C15.2648 11.5802 15.59 11.317 15.6519 10.837C15.6828 10.5274 15.7138 10.2333 15.6983 9.92361C15.6519 8.96373 15.2494 8.59217 14.2275 8.57668C12.6639 8.5612 11.1002 8.57668 9.552 8.57668C8.91724 8.57668 8.28248 8.57668 7.55483 8.57668C7.52386 9.04114 7.4929 9.42819 7.4929 9.81524C7.4929 14.5527 7.4929 19.3057 7.4929 24.0431C7.4929 24.2599 7.50838 24.4766 7.4929 24.6779C7.44645 25.3436 7.33808 25.421 6.48657 25.3127C6.48657 19.414 6.48657 13.4999 6.48657 7.52391C6.78073 7.49295 7.01296 7.46198 7.24519 7.46198C9.53652 7.46198 11.8278 7.47747 14.1347 7.46198C15.2494 7.4465 16.0389 7.91096 16.5808 8.87084C17.2465 10.0475 16.7666 11.9982 15.59 12.6484C15.4197 12.7413 15.1874 12.8033 14.9862 12.8033C12.8497 12.8187 10.6977 12.8033 8.56115 12.8033C8.49923 12.7878 8.45278 12.7413 8.32892 12.6949Z" fill="#2C2C2C"/>
</g>
</g>
<path d="M2.6299 20.0408C2.83458 20.0408 2.98041 19.9371 3.01239 19.7261H2.90877C2.88575 19.8745 2.78213 19.9499 2.63246 19.9499C2.43546 19.9499 2.31777 19.8092 2.31777 19.5764V19.5662C2.31777 19.3359 2.44441 19.1888 2.63374 19.1888C2.78981 19.1888 2.8704 19.2604 2.89342 19.3999H3.00344C2.98425 19.2016 2.82307 19.1005 2.63246 19.1005C2.38429 19.1005 2.20264 19.2963 2.20264 19.5674V19.5777C2.20264 19.8591 2.3651 20.0408 2.6299 20.0408Z" fill="#C0CCDA"/>
<path d="M3.35425 20.0408C3.45275 20.0408 3.51287 20.0075 3.56276 19.9448V20.0293H3.66894V19.5879C3.66894 19.4011 3.55253 19.3487 3.4246 19.3487C3.2954 19.3487 3.17388 19.405 3.1598 19.5572H3.26598C3.27621 19.4753 3.32738 19.437 3.41949 19.437C3.52183 19.437 3.56276 19.4817 3.56276 19.5879V19.6365H3.46682C3.2954 19.6365 3.13166 19.689 3.13166 19.8438C3.13166 19.9806 3.23016 20.0408 3.35425 20.0408ZM3.36448 19.9563C3.2711 19.9563 3.23784 19.9128 3.23784 19.8438C3.23784 19.7453 3.33634 19.712 3.47066 19.712H3.56276V19.7952C3.56276 19.8988 3.47705 19.9563 3.36448 19.9563Z" fill="#C0CCDA"/>
<path d="M3.8775 20.0293H3.98368V19.6621C3.98368 19.4971 4.06939 19.4549 4.20371 19.4485V19.3487C4.08346 19.3525 4.02589 19.405 3.98368 19.4805V19.3602H3.8775V20.0293Z" fill="#C0CCDA"/>
<path d="M4.59174 20.0408C4.68896 20.0408 4.78234 19.9794 4.82072 19.9141V20.0293H4.9269V19.0404H4.82072V19.4677C4.78234 19.4024 4.71326 19.3487 4.60197 19.3487C4.41776 19.3487 4.28984 19.4933 4.28984 19.6979V19.7082C4.28984 19.9167 4.41648 20.0408 4.59174 20.0408ZM4.60325 19.9525C4.49068 19.9525 4.39985 19.8719 4.39985 19.703V19.6928C4.39985 19.5304 4.47916 19.437 4.6122 19.437C4.74269 19.437 4.82456 19.5176 4.82456 19.689V19.6992C4.82456 19.8706 4.72733 19.9525 4.60325 19.9525Z" fill="#C0CCDA"/>
<path d="M5.48797 20.0293H5.59926V19.6225H6.08025V20.0293H6.19155V19.1146H6.08025V19.5291H5.59926V19.1146H5.48797V20.0293Z" fill="#C0CCDA"/>
<path d="M6.69361 19.9525C6.55801 19.9525 6.47486 19.8527 6.47486 19.7005V19.6903C6.47486 19.5367 6.55929 19.437 6.69361 19.437C6.82665 19.437 6.91236 19.5367 6.91236 19.6915V19.7005C6.91236 19.8514 6.82793 19.9525 6.69361 19.9525ZM6.69233 20.0408C6.88293 20.0408 7.02237 19.9013 7.02237 19.6992V19.689C7.02237 19.4881 6.88293 19.3487 6.69361 19.3487C6.50428 19.3487 6.36484 19.4894 6.36484 19.6903V19.7005C6.36484 19.8962 6.50172 20.0408 6.69233 20.0408Z" fill="#C0CCDA"/>
<path d="M7.18933 20.0293H7.29679V19.0404H7.18933V20.0293Z" fill="#C0CCDA"/>
<path d="M7.76609 20.0408C7.86331 20.0408 7.95669 19.9794 7.99507 19.9141V20.0293H8.10124V19.0404H7.99507V19.4677C7.95669 19.4024 7.88761 19.3487 7.77632 19.3487C7.59211 19.3487 7.46419 19.4933 7.46419 19.6979V19.7082C7.46419 19.9167 7.59083 20.0408 7.76609 20.0408ZM7.7776 19.9525C7.66503 19.9525 7.5742 19.8719 7.5742 19.703V19.6928C7.5742 19.5304 7.65351 19.437 7.78655 19.437C7.91703 19.437 7.99891 19.5176 7.99891 19.689V19.6992C7.99891 19.8706 7.90168 19.9525 7.7776 19.9525Z" fill="#C0CCDA"/>
<path d="M8.58985 20.0408C8.7408 20.0408 8.85209 19.9704 8.87512 19.8361H8.76894C8.75487 19.9141 8.69475 19.9525 8.59113 19.9525C8.45425 19.9525 8.38134 19.8681 8.37622 19.7158H8.88024V19.6813C8.88024 19.4421 8.73441 19.3487 8.57962 19.3487C8.39541 19.3487 8.26621 19.4894 8.26621 19.6915V19.7018C8.26621 19.9077 8.40053 20.0408 8.58985 20.0408ZM8.38006 19.6301C8.39797 19.5112 8.47088 19.437 8.57962 19.437C8.68963 19.437 8.76127 19.492 8.7715 19.6301H8.38006Z" fill="#C0CCDA"/>
<path d="M9.04316 20.0293H9.14934V19.6621C9.14934 19.4971 9.23504 19.4549 9.36936 19.4485V19.3487C9.24912 19.3525 9.19155 19.405 9.14934 19.4805V19.3602H9.04316V20.0293Z" fill="#C0CCDA"/>
<path d="M9.87034 20.0293H9.97652V19.2451L10.4383 20.0293H10.5662V19.1146H10.4601V19.8706L10.0149 19.1146H9.87034V20.0293Z" fill="#C0CCDA"/>
<path d="M10.9559 20.0408C11.0544 20.0408 11.1146 20.0075 11.1645 19.9448V20.0293H11.2706V19.5879C11.2706 19.4011 11.1542 19.3487 11.0263 19.3487C10.8971 19.3487 10.7756 19.405 10.7615 19.5572H10.8677C10.8779 19.4753 10.9291 19.437 11.0212 19.437C11.1235 19.437 11.1645 19.4817 11.1645 19.5879V19.6365H11.0685C10.8971 19.6365 10.7334 19.689 10.7334 19.8438C10.7334 19.9806 10.8319 20.0408 10.9559 20.0408ZM10.9662 19.9563C10.8728 19.9563 10.8395 19.9128 10.8395 19.8438C10.8395 19.7453 10.938 19.712 11.0724 19.712H11.1645V19.7952C11.1645 19.8988 11.0788 19.9563 10.9662 19.9563Z" fill="#C0CCDA"/>
<path d="M11.4792 20.0293H11.5854V19.6199C11.5854 19.4997 11.6749 19.4408 11.7619 19.4408C11.854 19.4408 11.9039 19.4894 11.9039 19.6071V20.0293H12.0101V19.6199C12.0101 19.4997 12.0996 19.4408 12.1866 19.4408C12.2787 19.4408 12.3286 19.4894 12.3286 19.6071V20.0293H12.4348V19.6148C12.4348 19.4203 12.3299 19.3487 12.2096 19.3487C12.1265 19.3487 12.0267 19.3871 11.9807 19.4741C11.9461 19.3845 11.8706 19.3487 11.7849 19.3487C11.689 19.3487 11.6161 19.3999 11.5854 19.4626V19.3602H11.4792V20.0293Z" fill="#C0CCDA"/>
<path d="M12.9173 20.0408C13.0682 20.0408 13.1795 19.9704 13.2025 19.8361H13.0964C13.0823 19.9141 13.0222 19.9525 12.9185 19.9525C12.7817 19.9525 12.7087 19.8681 12.7036 19.7158H13.2076V19.6813C13.2076 19.4421 13.0618 19.3487 12.907 19.3487C12.7228 19.3487 12.5936 19.4894 12.5936 19.6915V19.7018C12.5936 19.9077 12.7279 20.0408 12.9173 20.0408ZM12.7075 19.6301C12.7254 19.5112 12.7983 19.437 12.907 19.437C13.017 19.437 13.0887 19.492 13.0989 19.6301H12.7075Z" fill="#C0CCDA"/>
<path d="M29.7762 19.7091H29.8875V18.7945H29.7839L29.5715 18.948V19.0516L29.7762 18.9045V19.7091Z" fill="#C0CCDA"/>
<path d="M30.4803 19.6285C30.3281 19.6285 30.2309 19.5083 30.2309 19.2767V19.2256C30.2309 19.0004 30.323 18.8725 30.4778 18.8725C30.6325 18.8725 30.7221 19.0107 30.7221 19.223V19.2742C30.7221 19.5057 30.6402 19.6285 30.4803 19.6285ZM30.4803 19.7206C30.7055 19.7206 30.8347 19.5415 30.8347 19.2755V19.2243C30.8347 18.9633 30.7029 18.783 30.4778 18.783C30.2539 18.783 30.117 18.9569 30.117 19.2268V19.278C30.117 19.5441 30.2616 19.7206 30.4803 19.7206Z" fill="#C0CCDA"/>
<path d="M30.8674 19.8984H30.9647L31.3369 18.7164H31.2397L30.8674 19.8984Z" fill="#C0CCDA"/>
<path d="M31.6101 19.7091H31.7214V18.7945H31.6178L31.4054 18.948V19.0516L31.6101 18.9045V19.7091Z" fill="#C0CCDA"/>
<path d="M31.8985 19.7091H32.5112V19.6183H32.0699L32.3219 19.3727C32.4345 19.2627 32.5061 19.1526 32.5061 19.0401C32.5061 18.8827 32.3987 18.783 32.2298 18.783C32.0558 18.783 31.9471 18.8968 31.933 19.0759H32.0366C32.0545 18.9326 32.1236 18.8725 32.2298 18.8725C32.3334 18.8725 32.3935 18.9339 32.3935 19.0362C32.3935 19.1296 32.3449 19.2128 32.2618 19.301L31.8985 19.6835V19.7091Z" fill="#C0CCDA"/>
<path d="M27.252 19.1773H27.3185L27.4765 18.72H27.4241L27.2878 19.1236L27.1516 18.72H27.0966L27.252 19.1773Z" fill="#575A65"/>
<path d="M27.4771 19.1773H27.5295L27.5737 19.0455H27.7623L27.8071 19.1773H27.8621L27.7073 18.72H27.6344L27.4771 19.1773ZM27.6683 18.766L27.7476 19.0014H27.589L27.6683 18.766Z" fill="#575A65"/>
<path d="M27.9426 19.1773H28.2074V19.1319H27.9983V18.72H27.9426V19.1773Z" fill="#575A65"/>
<path d="M28.2881 19.1773H28.3437V18.72H28.2881V19.1773Z" fill="#575A65"/>
<path d="M28.5179 19.1319V18.7647H28.58C28.706 18.7647 28.7572 18.8389 28.7572 18.9445V18.9496C28.7572 19.0615 28.6983 19.1319 28.5806 19.1319H28.5179ZM28.4623 19.1773H28.5819C28.7418 19.1773 28.8147 19.0769 28.8147 18.9502V18.9445C28.8147 18.8172 28.7405 18.72 28.5832 18.72H28.4623V19.1773Z" fill="#575A65"/>
<path d="M27.229 19.9235H27.2846V19.5116H27.4177V19.4662H27.0959V19.5116H27.229V19.9235Z" fill="#575A65"/>
<path d="M27.4935 19.9235H27.5491V19.7201H27.7896V19.9235H27.8453V19.4662H27.7896V19.6734H27.5491V19.4662H27.4935V19.9235Z" fill="#575A65"/>
<path d="M27.9607 19.9235H28.0164V19.7246H28.0867L28.223 19.9235H28.285L28.1449 19.7208C28.2076 19.7086 28.2581 19.6715 28.2581 19.596V19.5935C28.2581 19.502 28.1859 19.4662 28.0982 19.4662H27.9607V19.9235ZM28.0164 19.6805V19.511H28.1021C28.1641 19.511 28.2025 19.5314 28.2025 19.5935V19.596C28.2025 19.6523 28.1673 19.6805 28.1021 19.6805H28.0164Z" fill="#575A65"/>
<path d="M28.5198 19.9293C28.6375 19.9293 28.6931 19.8608 28.6931 19.7495V19.4662H28.6375V19.7419C28.6375 19.8538 28.594 19.8832 28.5211 19.8832C28.4449 19.8832 28.411 19.8461 28.411 19.7502V19.4662H28.3554V19.7566C28.3554 19.8679 28.4149 19.9293 28.5198 19.9293Z" fill="#575A65"/>
<path d="M2.4956 4.07426C2.49421 4.06038 2.49283 4.04734 2.49122 4.03154C2.50723 4.03053 2.51881 4.02906 2.53033 4.02906C2.60072 4.02884 2.67105 4.02748 2.74144 4.02929C2.89265 4.03324 3.01828 3.93879 3.06753 3.81313C3.13838 3.63269 3.04258 3.44266 2.87548 3.37845C2.829 3.36062 2.78194 3.35176 2.73257 3.35176C2.56794 3.35187 2.40338 3.35176 2.23875 3.35176C2.22942 3.35176 2.2202 3.35131 2.21081 3.3521C2.18518 3.35413 2.18184 3.35774 2.18057 3.38318C2.18023 3.39097 2.18057 3.39876 2.18057 3.4066C2.18057 3.70051 2.18057 3.99425 2.18057 4.28816C2.18057 4.30339 2.18057 4.31868 2.18057 4.33595C2.16318 4.33595 2.15079 4.33595 2.13927 4.33595C2.13098 4.30407 2.12925 3.35904 2.13731 3.31373C2.1501 3.31215 2.16421 3.30899 2.17815 3.30899C2.36928 3.30865 2.5604 3.31046 2.75158 3.30831C2.92588 3.30639 3.07789 3.42595 3.12184 3.58174C3.16522 3.73549 3.12853 3.87407 3.00681 3.98522C2.94846 4.03865 2.87519 4.06737 2.79766 4.07256C2.6991 4.07934 2.59928 4.07426 2.4956 4.07426Z" fill="#FFB23F"/>
<path d="M2.22998 4.33504C2.22998 4.02217 2.22998 3.71201 2.22998 3.39903C2.24357 3.3979 2.25504 3.39621 2.26656 3.39621C2.43118 3.39598 2.59564 3.39587 2.76026 3.39621C2.87564 3.39644 2.98831 3.48288 3.02731 3.58466C3.04885 3.64092 3.0511 3.69847 3.03883 3.75303C3.01584 3.85516 2.9553 3.93234 2.84978 3.96704C2.82518 3.97517 2.79868 3.98104 2.77282 3.9816C2.68918 3.98341 2.60554 3.9825 2.52202 3.98228C2.50912 3.98228 2.49409 3.98454 2.49109 3.96603C2.48867 3.95079 2.49789 3.93855 2.51488 3.93697C2.52928 3.93562 2.54408 3.93641 2.5586 3.93641C2.6249 3.93629 2.69137 3.93494 2.75767 3.93663C2.8602 3.93923 2.94995 3.86881 2.97904 3.78468C3.03013 3.63669 2.97351 3.53033 2.85387 3.4638C2.831 3.45105 2.80151 3.44451 2.77495 3.44417C2.61574 3.44225 2.45647 3.44304 2.29714 3.44293C2.29196 3.44293 2.28678 3.44417 2.27687 3.44552C2.27583 3.46155 2.27387 3.47785 2.27387 3.49399C2.27364 3.75534 2.27376 4.01658 2.27376 4.27794C2.27376 4.28708 2.2741 4.29611 2.27364 4.3053C2.27232 4.33549 2.26932 4.33763 2.22998 4.33504Z" fill="#FFB23F"/>
<path d="M2.36316 4.33504C2.34645 4.33504 2.33418 4.33504 2.31909 4.33504C2.31909 4.05327 2.31909 3.77448 2.31909 3.49191C2.33384 3.49044 2.34784 3.48773 2.36189 3.48773C2.49063 3.4874 2.61949 3.49067 2.74811 3.48661C2.85583 3.48322 2.94522 3.57102 2.95669 3.66739C2.96671 3.75168 2.92149 3.85618 2.81677 3.88298C2.78895 3.89009 2.75992 3.89494 2.73118 3.89573C2.66753 3.89765 2.6037 3.8963 2.54005 3.8963C2.52692 3.8963 2.51373 3.8963 2.50198 3.8963C2.48401 3.85697 2.48827 3.84941 2.52657 3.84918C2.59823 3.84884 2.66995 3.84726 2.7416 3.84952C2.82063 3.852 2.88324 3.8032 2.90254 3.73961C2.92155 3.67681 2.90427 3.61282 2.84361 3.56368C2.81591 3.54117 2.78342 3.53135 2.74823 3.53112C2.63273 3.53056 2.5173 3.53079 2.40181 3.53112C2.39029 3.53112 2.37882 3.53383 2.36327 3.53575C2.36316 3.80331 2.36316 4.06805 2.36316 4.33504Z" fill="#FFB23F"/>
<path d="M2.49422 3.79761C2.49249 3.76156 2.49479 3.75749 2.52503 3.75727C2.59542 3.75659 2.66576 3.75716 2.73614 3.75693C2.74939 3.75693 2.76293 3.75704 2.77572 3.75445C2.79507 3.7505 2.80941 3.73955 2.81183 3.71862C2.81333 3.70575 2.81471 3.69261 2.81402 3.67974C2.81172 3.63906 2.79432 3.62304 2.75049 3.62247C2.68281 3.6218 2.61507 3.62225 2.54738 3.62225C2.51979 3.62225 2.49214 3.62225 2.46075 3.62225C2.4596 3.64211 2.45775 3.65853 2.45775 3.67489C2.45752 3.87649 2.45764 4.07804 2.45764 4.27952C2.45764 4.28866 2.4581 4.29769 2.45752 4.30689C2.45568 4.33549 2.45107 4.33843 2.41357 4.33369C2.41357 4.08272 2.41357 3.83135 2.41357 3.57779C2.42625 3.57677 2.43656 3.5753 2.44681 3.5753C2.54635 3.57519 2.64588 3.57575 2.74548 3.57508C2.79369 3.57474 2.82808 3.59437 2.85181 3.63528C2.8809 3.68555 2.85964 3.76838 2.80901 3.79575C2.80129 3.79992 2.79162 3.80207 2.78269 3.80207C2.68983 3.80241 2.59698 3.80218 2.50401 3.80196C2.50159 3.8019 2.49917 3.79998 2.49422 3.79761Z" fill="#FFB23F"/>
<path d="M6.59529 3.53607C6.58665 3.54284 6.5787 3.54904 6.56908 3.55649C6.56136 3.55029 6.55387 3.54521 6.54765 3.53911C6.51902 3.51107 6.49276 3.4806 6.46205 3.45504C6.40463 3.40703 6.337 3.3791 6.26356 3.36082C6.18361 3.34095 6.1051 3.34423 6.02802 3.36601C5.9017 3.40184 5.80009 3.47276 5.73425 3.58645C5.68581 3.66996 5.65592 3.76035 5.66559 3.85717C5.68472 4.04856 5.77918 4.19035 5.96126 4.27239C6.05665 4.31533 6.1563 4.32345 6.25659 4.30382C6.36453 4.28272 6.45647 4.229 6.52905 4.14628C6.53596 4.1385 6.54137 4.12947 6.54828 4.12174C6.56107 4.10775 6.57438 4.10628 6.58613 4.11745C6.59834 4.12919 6.59258 4.13788 6.58336 4.15023C6.52743 4.22505 6.45336 4.27634 6.36868 4.31476C6.27422 4.3577 6.17376 4.36718 6.07347 4.35172C5.96944 4.33558 5.87509 4.29152 5.79687 4.22009C5.72429 4.15401 5.67412 4.07446 5.64474 3.9808C5.61703 3.89255 5.61312 3.80272 5.6346 3.71583C5.67337 3.55864 5.76542 3.43778 5.91547 3.36262C6.02756 3.30659 6.14605 3.29209 6.26707 3.31619C6.40157 3.34299 6.5109 3.41335 6.59177 3.52365C6.59298 3.5258 6.5931 3.52873 6.59529 3.53607Z" fill="#FFB23F"/>
<path d="M6.52443 4.08432C6.41067 4.24682 6.20941 4.31131 6.02036 4.25269C5.83119 4.19395 5.70775 4.03066 5.70752 3.83149C5.7074 3.63243 5.82808 3.47365 6.00607 3.41503C6.20364 3.34986 6.40715 3.4095 6.52696 3.58159C6.51878 3.5887 6.51049 3.59615 6.50029 3.605C6.49281 3.59948 6.48417 3.59541 6.47875 3.58887C6.45151 3.55541 6.42098 3.52573 6.38428 3.50231C6.33665 3.4719 6.28774 3.44595 6.22928 3.44143C6.20192 3.43929 6.17438 3.42857 6.14771 3.43094C5.99144 3.44493 5.868 3.51061 5.7953 3.6533C5.76529 3.71215 5.74652 3.77388 5.75043 3.83939C5.75873 3.97881 5.81921 4.08957 5.94029 4.16817C6.03591 4.23017 6.14178 4.23768 6.24771 4.21968C6.33377 4.20512 6.40761 4.15767 6.46447 4.08962C6.467 4.08658 6.46965 4.08376 6.47219 4.08071C6.49557 4.05363 6.49891 4.05385 6.52443 4.08432Z" fill="#FFB23F"/>
<path d="M6.45446 3.63306C6.44156 3.63938 6.43113 3.64435 6.41984 3.64988C6.37992 3.59768 6.33067 3.55779 6.26772 3.53708C6.14116 3.49561 6.02677 3.51734 5.93126 3.60942C5.77338 3.76159 5.81951 4.02543 6.02619 4.1174C6.15459 4.17444 6.30049 4.14251 6.39542 4.04032C6.39807 4.0375 6.39934 4.03355 6.40187 4.03073C6.42387 4.00641 6.42923 4.00664 6.45239 4.03254C6.39058 4.14634 6.22618 4.20835 6.10747 4.18742C5.90235 4.15125 5.79521 3.99016 5.79348 3.83398C5.79152 3.6567 5.9213 3.51028 6.08564 3.47931C6.23673 3.45093 6.38528 3.51356 6.45446 3.63306Z" fill="#FFB23F"/>
<path d="M6.35271 3.96348C6.3856 3.98667 6.3864 3.99005 6.36549 4.01262C6.21429 4.17591 5.96165 4.10775 5.89466 3.92156C5.84955 3.79624 5.90583 3.6391 6.04482 3.58031C6.15461 3.53387 6.2822 3.55734 6.36365 3.64948C6.38744 3.67628 6.38732 3.67719 6.3504 3.69682C6.28894 3.61975 6.20588 3.59142 6.10772 3.60688C6.05456 3.61523 6.01303 3.64429 5.97714 3.68373C5.90502 3.76295 5.90307 3.91095 5.99051 3.99355C6.04321 4.04326 6.106 4.06769 6.17979 4.06058C6.25133 4.05353 6.30588 4.01635 6.35271 3.96348Z" fill="#FFB23F"/>
<path d="M6.84557 3.29553C6.85997 3.29553 6.87259 3.29553 6.88434 3.29553C6.89436 3.32572 6.89586 4.31369 6.88595 4.35369C6.87386 4.35369 6.86113 4.35369 6.84546 4.35369C6.84557 4.00094 6.84557 3.64953 6.84557 3.29553Z" fill="#FFB23F"/>
<path d="M6.70168 4.35403C6.69028 4.3546 6.67766 4.35516 6.66211 4.35584C6.66211 4.00105 6.66211 3.64953 6.66211 3.29553C6.67663 3.29553 6.68924 3.29553 6.70134 3.29553C6.71124 3.326 6.71193 4.31527 6.70168 4.35403Z" fill="#FFB23F"/>
<path d="M6.79369 3.2976C6.79369 3.65047 6.79369 4.00075 6.79369 4.35057C6.75665 4.35689 6.75389 4.3552 6.7517 4.32445C6.75089 4.31407 6.75135 4.30369 6.75135 4.29325C6.75135 3.98015 6.75135 3.66706 6.75135 3.35386C6.75135 3.34347 6.75089 3.33309 6.75181 3.32265C6.75423 3.29568 6.75792 3.29343 6.79369 3.2976Z" fill="#FFB23F"/>
<path d="M6.97356 4.35354C6.94009 4.35422 6.93767 4.35286 6.93514 4.32798C6.93398 4.31647 6.93445 4.30456 6.93445 4.29294C6.93445 3.98007 6.93445 3.66709 6.93445 3.35422C6.93445 3.3426 6.93387 3.3307 6.93525 3.31919C6.93813 3.29532 6.94239 3.29329 6.97275 3.29741C6.98047 3.32675 6.98162 4.31162 6.97356 4.35354Z" fill="#FFB23F"/>
<path d="M7.04321 4.34945C7.07541 4.27113 7.10663 4.19614 7.13687 4.12065C7.16124 4.05977 7.18382 3.99816 7.20795 3.93727C7.2322 3.87606 7.25755 3.81534 7.28203 3.75424C7.30789 3.68963 7.33312 3.62475 7.35887 3.56014C7.39176 3.47765 7.42459 3.39516 7.45783 3.31289C7.46947 3.28395 7.49452 3.29473 7.52056 3.29303C7.66324 3.64466 7.80212 3.9972 7.9456 4.35379C7.92297 4.35379 7.90903 4.35379 7.8937 4.35379C7.76278 4.02659 7.63219 3.70047 7.49896 3.3674C7.48882 3.38151 7.47984 3.39025 7.47552 3.40075C7.42615 3.52245 7.37713 3.6441 7.3288 3.76626C7.28174 3.88503 7.23595 4.00419 7.189 4.12308C7.1621 4.19124 7.13422 4.25889 7.10663 4.32682C7.09373 4.35819 7.08832 4.36034 7.04321 4.34945Z" fill="#FFB23F"/>
<path d="M7.77417 3.30071C7.81029 3.28288 7.82538 3.29575 7.83632 3.32272C7.8805 3.43139 7.92468 3.54012 7.96806 3.64913C8.01477 3.76666 8.05999 3.88458 8.10682 4.00211C8.14824 4.10582 8.19103 4.20901 8.2328 4.31261C8.23752 4.32423 8.23902 4.33715 8.24201 4.34911C8.20163 4.3604 8.19875 4.35859 8.18631 4.32779C8.14386 4.22272 8.10037 4.11795 8.05826 4.01277C8.02814 3.93751 8.00026 3.8615 7.97013 3.78623C7.93425 3.69652 7.89652 3.60737 7.86057 3.51766C7.83552 3.45554 7.81213 3.39268 7.78776 3.33033C7.78402 3.32091 7.77941 3.312 7.77417 3.30071Z" fill="#FFB23F"/>
<path d="M8.03979 4.3546C8.0217 4.3546 8.00874 4.3546 7.99446 4.3546C7.85362 4.00241 7.71324 3.65134 7.57275 3.30016C7.61786 3.28526 7.62108 3.29316 7.63606 3.32707C7.66065 3.38276 7.68174 3.43986 7.70449 3.49634C7.73139 3.56315 7.75881 3.62956 7.78536 3.69642C7.81445 3.76955 7.84245 3.84295 7.87165 3.91608C7.91376 4.02125 7.95667 4.12603 7.99912 4.23109C8.01157 4.26207 8.02406 4.2931 8.03559 4.32441C8.03852 4.33242 8.03806 4.34179 8.03979 4.3546Z" fill="#FFB23F"/>
<path d="M8.14131 4.35328C8.12345 4.35328 8.10969 4.35328 8.0954 4.35328C7.95451 4.00131 7.81448 3.65148 7.67456 3.30166C7.71356 3.28755 7.72277 3.28992 7.73591 3.32118C7.75422 3.36502 7.77087 3.40954 7.78815 3.45372C7.81782 3.52933 7.84708 3.60499 7.87732 3.68037C7.9018 3.74125 7.92795 3.8014 7.9522 3.86228C7.98267 3.93857 8.01147 4.01547 8.04218 4.09176C8.07253 4.16725 8.10433 4.24201 8.1348 4.3175C8.13895 4.32783 8.13895 4.33957 8.14131 4.35328Z" fill="#FFB23F"/>
<path d="M7.4956 3.47247C7.52457 3.49939 7.53033 3.52241 7.51495 3.55553C7.48713 3.61528 7.46513 3.67768 7.44053 3.7389C7.40937 3.81632 7.37803 3.89367 7.3471 3.9712C7.31168 4.0599 7.2766 4.14871 7.24157 4.23752C7.22925 4.26861 7.21755 4.29998 7.20523 4.33107C7.19451 4.35809 7.18599 4.36058 7.14526 4.34878C7.26168 4.05753 7.37809 3.76655 7.4956 3.47247Z" fill="#FFB23F"/>
<path d="M7.24707 4.34739C7.34638 4.09868 7.44568 3.85014 7.54516 3.6012C7.57252 3.62196 7.58151 3.64413 7.57091 3.67071C7.53664 3.75704 7.50144 3.84291 7.46676 3.92902C7.44159 3.99114 7.41636 4.0532 7.39154 4.11544C7.36256 4.18822 7.33468 4.26141 7.30548 4.33419C7.29563 4.35874 7.28526 4.36088 7.24707 4.34739Z" fill="#FFB23F"/>
<path d="M7.34814 4.34765C7.43052 4.1412 7.51277 3.93491 7.59531 3.72778C7.62314 3.7521 7.63028 3.77501 7.61876 3.80316C7.56594 3.93322 7.51266 4.06294 7.45978 4.19299C7.44192 4.23717 7.42458 4.28147 7.40753 4.32598C7.39486 4.3591 7.38921 4.36181 7.34814 4.34765Z" fill="#FFB23F"/>
<path d="M7.8137 4.22324C7.70011 4.22324 7.5906 4.22324 7.48047 4.22324C7.49257 4.18064 7.49395 4.17918 7.53283 4.17906C7.6084 4.17884 7.68403 4.17884 7.75961 4.17906C7.79618 4.17929 7.79619 4.17985 7.8137 4.22324Z" fill="#FFB23F"/>
<path d="M7.76848 4.13429C7.75892 4.13553 7.74867 4.13779 7.73847 4.1379C7.6777 4.13824 7.61687 4.13846 7.5561 4.1379C7.51837 4.13756 7.51676 4.13463 7.52909 4.09316C7.54072 4.09237 7.55368 4.09067 7.56647 4.09067C7.62321 4.09045 7.68006 4.08988 7.73686 4.09101C7.76986 4.09169 7.77297 4.09711 7.76848 4.13429Z" fill="#FFB23F"/>
<path d="M7.73673 4.04255C7.6778 4.04255 7.6187 4.04255 7.55989 4.04255C7.55551 4.00153 7.55839 3.99769 7.59612 3.99713C7.63051 3.99656 7.6649 3.99656 7.69923 3.99713C7.72884 3.99769 7.73696 4.00762 7.73673 4.04255Z" fill="#FFB23F"/>
<path d="M3.76299 4.30359V3.5649C3.76299 3.54527 3.74675 3.52918 3.72653 3.52918H3.52792C3.50787 3.52918 3.49146 3.51327 3.49146 3.49347V3.34773C3.49146 3.32809 3.5077 3.31201 3.52792 3.31201H4.23734C4.25739 3.31201 4.2738 3.32792 4.2738 3.34773V3.49347C4.2738 3.5131 4.25756 3.52918 4.23734 3.52918H4.03873C4.01869 3.52918 4.00227 3.5451 4.00227 3.5649V4.30365C4.00227 4.32329 3.98602 4.33937 3.96581 4.33937H3.79945C3.77935 4.33931 3.76299 4.32329 3.76299 4.30359Z" fill="#FFB23F"/>
<path d="M5.12903 4.33932H4.95047C4.93641 4.33932 4.92345 4.33131 4.91746 4.31878L4.77029 4.01156C4.75059 3.9737 4.7192 3.95474 4.6764 3.95474H4.64074C4.6207 3.95474 4.60428 3.97065 4.60428 3.99045V4.30366C4.60428 4.3233 4.58804 4.33938 4.56782 4.33938H4.4078C4.38775 4.33938 4.37134 4.32346 4.37134 4.30366V3.34785C4.37134 3.32821 4.38758 3.31213 4.4078 3.31213H4.8037C4.91349 3.31213 4.99609 3.33916 5.05133 3.39304C5.10668 3.44693 5.13427 3.52491 5.13427 3.62692C5.13427 3.70467 5.11538 3.7704 5.07765 3.82429C5.05352 3.85876 5.02299 3.88607 4.98618 3.90599C4.96429 3.91784 4.96078 3.94802 4.98007 3.96371C5.00444 3.98346 5.02541 4.01161 5.04292 4.04789L5.16175 4.28797C5.17356 4.31179 5.15605 4.33932 5.12903 4.33932ZM4.8791 3.72589C4.90179 3.70749 4.91326 3.67731 4.91326 3.63561C4.91326 3.5929 4.90185 3.56203 4.8791 3.54307C4.85635 3.52412 4.81879 3.51469 4.76654 3.51469H4.63827C4.61822 3.51469 4.6018 3.5306 4.6018 3.55041V3.71799C4.6018 3.73762 4.61805 3.7537 4.63827 3.7537H4.76654C4.81873 3.75359 4.85635 3.74445 4.8791 3.72589Z" fill="#FFB23F"/>
<path d="M5.28125 4.3036V3.34785C5.28125 3.32821 5.29749 3.31213 5.31771 3.31213H5.48165C5.50169 3.31213 5.51811 3.32805 5.51811 3.34785V4.3036C5.51811 4.32324 5.50187 4.33932 5.48165 4.33932H5.31771C5.29755 4.33932 5.28125 4.3233 5.28125 4.3036Z" fill="#FFB23F"/>
<path d="M3.23911 3.30432H3.10035C3.08549 3.30432 3.07207 3.31312 3.06654 3.32672L3.05698 3.34991C3.05168 3.36266 3.05433 3.3775 3.064 3.38743C3.12201 3.44685 3.16296 3.52234 3.17938 3.6063C3.17973 3.60799 3.18019 3.6098 3.18088 3.61149L3.27869 3.86968C3.28756 3.89299 3.26993 3.91781 3.24453 3.91781H3.14061C3.12863 3.91781 3.11717 3.92334 3.11037 3.93305C3.03019 4.04843 2.89511 4.12432 2.74218 4.12432H2.73757L2.67237 4.28236C2.66269 4.30589 2.68032 4.33139 2.70618 4.33139H2.86493C2.88014 4.33139 2.89379 4.32214 2.89909 4.3082L2.96239 4.14187C2.96769 4.12788 2.98129 4.11868 2.99655 4.11868H3.34746C3.36267 4.11868 3.37632 4.12793 3.38162 4.14187L3.44492 4.3082C3.45022 4.3222 3.46382 4.33139 3.47908 4.33139H3.63386C3.65972 4.33139 3.67735 4.30572 3.66767 4.28236L3.27252 3.32655C3.26722 3.31312 3.25397 3.30432 3.23911 3.30432Z" fill="#FFB23F"/>
<path d="M2.4956 4.07426C2.49421 4.06038 2.49283 4.04734 2.49122 4.03154C2.50723 4.03053 2.51881 4.02906 2.53033 4.02906C2.60072 4.02884 2.67105 4.02748 2.74144 4.02929C2.89265 4.03324 3.01828 3.93879 3.06753 3.81313C3.13838 3.63269 3.04258 3.44266 2.87548 3.37845C2.829 3.36062 2.78194 3.35176 2.73257 3.35176C2.56794 3.35187 2.40338 3.35176 2.23875 3.35176C2.22942 3.35176 2.2202 3.35131 2.21081 3.3521C2.18518 3.35413 2.18184 3.35774 2.18057 3.38318C2.18023 3.39097 2.18057 3.39876 2.18057 3.4066C2.18057 3.70051 2.18057 3.99425 2.18057 4.28816C2.18057 4.30339 2.18057 4.31868 2.18057 4.33595C2.16318 4.33595 2.15079 4.33595 2.13927 4.33595C2.13098 4.30407 2.12925 3.35904 2.13731 3.31373C2.1501 3.31215 2.16421 3.30899 2.17815 3.30899C2.36928 3.30865 2.5604 3.31046 2.75158 3.30831C2.92588 3.30639 3.07789 3.42595 3.12184 3.58174C3.16522 3.73549 3.12853 3.87407 3.00681 3.98522C2.94846 4.03865 2.87519 4.06737 2.79766 4.07256C2.6991 4.07934 2.59928 4.07426 2.4956 4.07426Z" fill="#FFB23F"/>
<path d="M2.22998 4.33504C2.22998 4.02217 2.22998 3.71201 2.22998 3.39903C2.24357 3.3979 2.25504 3.39621 2.26656 3.39621C2.43118 3.39598 2.59564 3.39587 2.76026 3.39621C2.87564 3.39644 2.98831 3.48288 3.02731 3.58466C3.04885 3.64092 3.0511 3.69847 3.03883 3.75303C3.01584 3.85516 2.9553 3.93234 2.84978 3.96704C2.82518 3.97517 2.79868 3.98104 2.77282 3.9816C2.68918 3.98341 2.60554 3.9825 2.52202 3.98228C2.50912 3.98228 2.49409 3.98454 2.49109 3.96603C2.48867 3.95079 2.49789 3.93855 2.51488 3.93697C2.52928 3.93562 2.54408 3.93641 2.5586 3.93641C2.6249 3.93629 2.69137 3.93494 2.75767 3.93663C2.8602 3.93923 2.94995 3.86881 2.97904 3.78468C3.03013 3.63669 2.97351 3.53033 2.85387 3.4638C2.831 3.45105 2.80151 3.44451 2.77495 3.44417C2.61574 3.44225 2.45647 3.44304 2.29714 3.44293C2.29196 3.44293 2.28678 3.44417 2.27687 3.44552C2.27583 3.46155 2.27387 3.47785 2.27387 3.49399C2.27364 3.75534 2.27376 4.01658 2.27376 4.27794C2.27376 4.28708 2.2741 4.29611 2.27364 4.3053C2.27232 4.33549 2.26932 4.33763 2.22998 4.33504Z" fill="#FFB23F"/>
<path d="M2.36316 4.33504C2.34645 4.33504 2.33418 4.33504 2.31909 4.33504C2.31909 4.05327 2.31909 3.77448 2.31909 3.49191C2.33384 3.49044 2.34784 3.48773 2.36189 3.48773C2.49063 3.4874 2.61949 3.49067 2.74811 3.48661C2.85583 3.48322 2.94522 3.57102 2.95669 3.66739C2.96671 3.75168 2.92149 3.85618 2.81677 3.88298C2.78895 3.89009 2.75992 3.89494 2.73118 3.89573C2.66753 3.89765 2.6037 3.8963 2.54005 3.8963C2.52692 3.8963 2.51373 3.8963 2.50198 3.8963C2.48401 3.85697 2.48827 3.84941 2.52657 3.84918C2.59823 3.84884 2.66995 3.84726 2.7416 3.84952C2.82063 3.852 2.88324 3.8032 2.90254 3.73961C2.92155 3.67681 2.90427 3.61282 2.84361 3.56368C2.81591 3.54117 2.78342 3.53135 2.74823 3.53112C2.63273 3.53056 2.5173 3.53079 2.40181 3.53112C2.39029 3.53112 2.37882 3.53383 2.36327 3.53575C2.36316 3.80331 2.36316 4.06805 2.36316 4.33504Z" fill="#FFB23F"/>
<path d="M2.49422 3.79761C2.49249 3.76156 2.49479 3.75749 2.52503 3.75727C2.59542 3.75659 2.66576 3.75716 2.73614 3.75693C2.74939 3.75693 2.76293 3.75704 2.77572 3.75445C2.79507 3.7505 2.80941 3.73955 2.81183 3.71862C2.81333 3.70575 2.81471 3.69261 2.81402 3.67974C2.81172 3.63906 2.79432 3.62304 2.75049 3.62247C2.68281 3.6218 2.61507 3.62225 2.54738 3.62225C2.51979 3.62225 2.49214 3.62225 2.46075 3.62225C2.4596 3.64211 2.45775 3.65853 2.45775 3.67489C2.45752 3.87649 2.45764 4.07804 2.45764 4.27952C2.45764 4.28866 2.4581 4.29769 2.45752 4.30689C2.45568 4.33549 2.45107 4.33843 2.41357 4.33369C2.41357 4.08272 2.41357 3.83135 2.41357 3.57779C2.42625 3.57677 2.43656 3.5753 2.44681 3.5753C2.54635 3.57519 2.64588 3.57575 2.74548 3.57508C2.79369 3.57474 2.82808 3.59437 2.85181 3.63528C2.8809 3.68555 2.85964 3.76838 2.80901 3.79575C2.80129 3.79992 2.79162 3.80207 2.78269 3.80207C2.68983 3.80241 2.59698 3.80218 2.50401 3.80196C2.50159 3.8019 2.49917 3.79998 2.49422 3.79761Z" fill="#FFB23F"/>
<path d="M2.6275 15.0914C2.82748 15.0914 2.97374 14.9361 2.97374 14.7451C2.97374 14.5541 2.82748 14.3989 2.6275 14.3989C2.43049 14.3989 2.28125 14.5541 2.28125 14.7451C2.28125 14.9361 2.43049 15.0914 2.6275 15.0914Z" fill="#C0CCDA"/>
<path d="M4.24539 15.0914C4.44538 15.0914 4.59164 14.9361 4.59164 14.7451C4.59164 14.5541 4.44538 14.3989 4.24539 14.3989C4.04839 14.3989 3.89915 14.5541 3.89915 14.7451C3.89915 14.9361 4.04839 15.0914 4.24539 15.0914Z" fill="#C0CCDA"/>
<path d="M5.86329 15.0914C6.06328 15.0914 6.20954 14.9361 6.20954 14.7451C6.20954 14.5541 6.06328 14.3989 5.86329 14.3989C5.66629 14.3989 5.51705 14.5541 5.51705 14.7451C5.51705 14.9361 5.66629 15.0914 5.86329 15.0914Z" fill="#C0CCDA"/>
<path d="M7.48119 15.0914C7.68118 15.0914 7.82744 14.9361 7.82744 14.7451C7.82744 14.5541 7.68118 14.3989 7.48119 14.3989C7.28419 14.3989 7.13494 14.5541 7.13494 14.7451C7.13494 14.9361 7.28419 15.0914 7.48119 15.0914Z" fill="#C0CCDA"/>
<path d="M10.5159 15.0914C10.7158 15.0914 10.8621 14.9361 10.8621 14.7451C10.8621 14.5541 10.7158 14.3989 10.5159 14.3989C10.3189 14.3989 10.1696 14.5541 10.1696 14.7451C10.1696 14.9361 10.3189 15.0914 10.5159 15.0914Z" fill="#C0CCDA"/>
<path d="M12.1338 15.0914C12.3337 15.0914 12.48 14.9361 12.48 14.7451C12.48 14.5541 12.3337 14.3989 12.1338 14.3989C11.9368 14.3989 11.7875 14.5541 11.7875 14.7451C11.7875 14.9361 11.9368 15.0914 12.1338 15.0914Z" fill="#C0CCDA"/>
<path d="M13.7517 15.0914C13.9516 15.0914 14.0979 14.9361 14.0979 14.7451C14.0979 14.5541 13.9516 14.3989 13.7517 14.3989C13.5546 14.3989 13.4054 14.5541 13.4054 14.7451C13.4054 14.9361 13.5546 15.0914 13.7517 15.0914Z" fill="#C0CCDA"/>
<path d="M15.3695 15.0914C15.5695 15.0914 15.7158 14.9361 15.7158 14.7451C15.7158 14.5541 15.5695 14.3989 15.3695 14.3989C15.1725 14.3989 15.0233 14.5541 15.0233 14.7451C15.0233 14.9361 15.1725 15.0914 15.3695 15.0914Z" fill="#C0CCDA"/>
<path d="M18.4042 15.0914C18.6042 15.0914 18.7505 14.9361 18.7505 14.7451C18.7505 14.5541 18.6042 14.3989 18.4042 14.3989C18.2072 14.3989 18.058 14.5541 18.058 14.7451C18.058 14.9361 18.2072 15.0914 18.4042 15.0914Z" fill="#C0CCDA"/>
<path d="M20.0221 15.0914C20.2221 15.0914 20.3684 14.9361 20.3684 14.7451C20.3684 14.5541 20.2221 14.3989 20.0221 14.3989C19.8251 14.3989 19.6759 14.5541 19.6759 14.7451C19.6759 14.9361 19.8251 15.0914 20.0221 15.0914Z" fill="#C0CCDA"/>
<path d="M21.64 15.0914C21.84 15.0914 21.9863 14.9361 21.9863 14.7451C21.9863 14.5541 21.84 14.3989 21.64 14.3989C21.443 14.3989 21.2938 14.5541 21.2938 14.7451C21.2938 14.9361 21.443 15.0914 21.64 15.0914Z" fill="#C0CCDA"/>
<path d="M23.2579 15.0914C23.4579 15.0914 23.6042 14.9361 23.6042 14.7451C23.6042 14.5541 23.4579 14.3989 23.2579 14.3989C23.0609 14.3989 22.9117 14.5541 22.9117 14.7451C22.9117 14.9361 23.0609 15.0914 23.2579 15.0914Z" fill="#C0CCDA"/>
<path d="M27.3895 15.2467C27.6994 15.2467 27.877 15.0093 27.877 14.5798V14.4983C27.877 14.1249 27.7175 13.9183 27.4112 13.9183C27.1376 13.9183 26.9636 14.0923 26.9636 14.3515C26.9636 14.5961 27.1376 14.7755 27.3895 14.7755C27.5381 14.7755 27.6632 14.7085 27.7248 14.6034C27.7211 14.9477 27.5997 15.118 27.3931 15.118C27.2264 15.118 27.1539 15.0401 27.1249 14.9133H26.9727C27.0071 15.1217 27.1503 15.2467 27.3895 15.2467ZM27.4131 14.6523C27.2373 14.6523 27.1249 14.5309 27.1249 14.3442C27.1249 14.1612 27.2409 14.0416 27.4112 14.0416C27.5852 14.0416 27.7103 14.1594 27.7103 14.3714C27.7103 14.5399 27.587 14.6523 27.4131 14.6523Z" fill="#C0CCDA"/>
<path d="M28.6779 15.2322H28.8392L29.3249 13.9582V13.9365H28.4713V14.0633H29.1292L28.6779 15.2322Z" fill="#C0CCDA"/>
<path d="M30.3703 15.2485C30.5896 15.2485 30.8161 15.1199 30.8161 14.8607C30.8161 14.694 30.7183 14.5816 30.5679 14.5273C30.6875 14.4747 30.7672 14.3841 30.7672 14.2536C30.7672 14.0506 30.5715 13.9201 30.3703 13.9201C30.171 13.9201 29.9716 14.047 29.9716 14.2572C29.9716 14.3841 30.0441 14.4819 30.1674 14.5291C30.0296 14.578 29.9227 14.6904 29.9227 14.8643C29.9227 15.1217 30.1583 15.2485 30.3703 15.2485ZM30.3703 15.1199C30.2199 15.1199 30.084 15.0292 30.084 14.8589C30.084 14.6867 30.2199 14.5979 30.3739 14.5979C30.528 14.5979 30.6548 14.6849 30.6548 14.8553C30.6548 15.0274 30.5298 15.1199 30.3703 15.1199ZM30.3758 14.4729C30.2435 14.4729 30.1311 14.395 30.1311 14.259C30.1311 14.1249 30.2362 14.0434 30.3703 14.0434C30.5044 14.0434 30.6077 14.1304 30.6077 14.2554C30.6077 14.3931 30.5135 14.4729 30.3758 14.4729Z" fill="#C0CCDA"/>
<path d="M32.1113 15.2322H32.2653V14.9604H32.4447V14.8317H32.2653V13.9365H32.0551L31.4625 14.9096V14.9604H32.1113V15.2322ZM31.6618 14.8317L32.1113 14.0561V14.8317H31.6618Z" fill="#C0CCDA"/>
<path d="M24.6235 10.9679H25.225V10.8993H24.7071V9.90082H24.6235V10.9679Z" fill="#575A65"/>
<path d="M26.2815 10.9784C26.5471 10.9784 26.674 10.8246 26.674 10.5694V9.90082H26.5904V10.5575C26.5904 10.8097 26.4874 10.9082 26.283 10.9082C26.0845 10.9082 25.9815 10.8052 25.9815 10.5769V9.90082H25.8994V10.5858C25.8994 10.8411 26.0412 10.9784 26.2815 10.9784Z" fill="#575A65"/>
<path d="M27.3711 10.9679H27.4562L27.78 10.4784L28.1039 10.9679H28.1979L27.8338 10.4172L28.174 9.90082H28.0875L27.792 10.353L27.4935 9.90082H27.4024L27.7397 10.4157L27.3711 10.9679Z" fill="#575A65"/>
<path d="M29.2944 10.9784C29.5601 10.9784 29.687 10.8246 29.687 10.5694V9.90082H29.6034V10.5575C29.6034 10.8097 29.5004 10.9082 29.2959 10.9082C29.0974 10.9082 28.9945 10.8052 28.9945 10.5769V9.90082H28.9124V10.5858C28.9124 10.8411 29.0542 10.9784 29.2944 10.9784Z" fill="#575A65"/>
<path d="M30.4819 10.9679H30.5655V10.4814H30.7729L31.1072 10.9679H31.1997L30.861 10.4754C31.0207 10.453 31.1371 10.3709 31.1371 10.1933V10.1874C31.1371 9.98141 30.9819 9.90082 30.7744 9.90082H30.4819V10.9679ZM30.5655 10.4142V9.96947H30.7789C30.9445 9.96947 31.0535 10.0232 31.0535 10.1874V10.1933C31.0535 10.3485 30.9505 10.4142 30.7789 10.4142H30.5655Z" fill="#575A65"/>
<path d="M32.1578 10.9679H32.2413V10.4948L32.5861 9.90082H32.5025L32.201 10.4232L31.8847 9.90082H31.7921L32.1578 10.4933V10.9679Z" fill="#575A65"/>
<circle cx="32.6137" cy="4.01188" r="3.38614" fill="#E7FBF3"/>
<circle cx="32.6405" cy="4.03852" r="2.50575" fill="#D0F7E7"/>
<circle cx="32.614" cy="4.01198" r="1.69307" fill="#00D67D"/>
<path fill-rule="evenodd" clip-rule="evenodd" d="M32.4939 4.41818C32.4741 4.41818 32.4551 4.40981 32.4415 4.39507L32.0915 4.0151C32.0643 3.9856 32.0658 3.93916 32.0947 3.91143C32.1237 3.8837 32.1693 3.88517 32.1964 3.91466L32.4932 4.23681L33.0982 3.56169C33.1251 3.53168 33.1706 3.5297 33.2 3.55699C33.2292 3.58429 33.2313 3.63073 33.2045 3.66059L32.547 4.39426C32.5336 4.40937 32.5144 4.41803 32.4944 4.41818H32.4939Z" fill="white"/>
<path d="M5.25471 11.8207L2.52735 11.8207C2.31654 11.8207 2.13208 11.6494 2.13208 11.4254L2.13208 9.58082C2.13208 9.37001 2.30336 9.18555 2.52735 9.18555L5.25471 9.18555C5.46552 9.18555 5.64997 9.35684 5.64997 9.58082L5.64997 11.4254C5.64997 11.6494 5.46552 11.8207 5.25471 11.8207Z" fill="#F9CE64"/>
<path d="M3.22566 10.9643C3.41012 10.6744 3.39694 10.4372 3.35741 10.2923C3.31789 10.1737 3.26518 10.0815 3.22566 10.042C3.41012 9.7521 3.39694 9.51494 3.35741 9.37001C3.33106 9.29096 3.30471 9.23825 3.27836 9.18555L3.18613 9.18555C3.21248 9.22508 3.25201 9.29096 3.29154 9.38319C3.34424 9.58082 3.30471 9.79163 3.17295 10.0024L2.13208 10.0024L2.13208 10.0683L3.15978 10.0683C3.18613 10.1078 3.25201 10.1869 3.27836 10.3055C3.34424 10.5031 3.29154 10.7139 3.15978 10.9247L2.13208 10.9247L2.13208 11.0038L3.15978 11.0038C3.18613 11.0301 3.25201 11.1092 3.27836 11.2278C3.33106 11.4122 3.30471 11.623 3.17296 11.8207L3.25201 11.8207C3.39694 11.5572 3.38377 11.3464 3.34424 11.2014C3.31789 11.0828 3.25201 10.9906 3.22566 10.9643Z" fill="#AD6500"/>
<path d="M4.60883 10.0816L5.63653 10.0816L5.63653 10.0157L4.5693 10.0157L4.55613 10.0289C4.55613 10.0289 4.45072 10.1343 4.41119 10.2924C4.37167 10.4374 4.35849 10.6745 4.54295 10.9644C4.5166 11.0039 4.45072 11.083 4.41119 11.2147C4.38484 11.3465 4.37167 11.5573 4.5166 11.8208L4.59565 11.8208C4.47707 11.6232 4.43755 11.4124 4.49025 11.2279C4.52977 11.1093 4.58248 11.0303 4.60883 11.0039L5.63653 11.0039L5.63653 10.938L4.60883 10.938C4.47707 10.7272 4.42437 10.5164 4.49025 10.3188C4.52977 10.187 4.59565 10.108 4.60883 10.0816Z" fill="#AD6500"/>
<path d="M3.44946 9.42295L3.44946 9.48883L4.33223 9.48883L4.33223 9.42295L3.44946 9.42295Z" fill="#AD6500"/>
<path d="M3.44946 11.531L3.44946 11.5969L4.33223 11.5969L4.33223 11.531L3.44946 11.531Z" fill="#AD6500"/>
</svg>
