<svg width="35" height="35" viewBox="0 0 35 35" fill="none" xmlns="http://www.w3.org/2000/svg">
<path d="M29.442 30.1436C35.9273 23.6583 35.9273 13.1536 29.442 6.66828C22.9568 0.183002 12.452 0.183002 5.96674 6.66828C-0.518536 13.1536 -0.518536 23.6583 5.96674 30.1436C12.452 36.6188 22.9568 36.6188 29.442 30.1436Z" fill="#A20000"/>
<path d="M28.3393 28.3393C34.8245 21.854 34.8245 11.3492 28.3393 4.86396C21.854 -1.62132 11.3492 -1.62132 4.86396 4.86396C-1.62132 11.3492 -1.62132 21.854 4.86396 28.3393C11.3492 34.8145 21.854 34.8145 28.3393 28.3393Z" fill="#CC2E2E"/>
<path opacity="0.3" d="M15.3186 4.2124C18.5963 3.89164 21.864 4.86393 24.4401 6.91878C27.0161 8.97362 28.6801 11.9506 29.091 15.2183C29.091 15.098 29.081 14.9778 29.061 14.8575C28.7402 11.5196 27.0963 8.45239 24.5102 6.31736C21.9241 4.18233 18.5963 3.16994 15.2584 3.50072C11.9206 3.81145 8.84333 5.45533 6.71832 8.04142C4.59331 10.6275 3.57091 13.9554 3.90168 17.2932C3.91171 17.4135 3.93176 17.5338 3.94178 17.6541C3.71124 14.3763 4.77374 11.1387 6.89875 8.62279C9.02375 6.11689 12.0409 4.53315 15.3186 4.2124Z" fill="black"/>
<path d="M14.216 34.594C14.0055 34.3334 13.825 34.0527 13.6747 33.752C13.4943 33.4614 13.3539 33.1606 13.2336 32.8499C13.4441 33.1105 13.6246 33.3912 13.7749 33.6919C13.9453 33.9826 14.0957 34.2833 14.216 34.594Z" fill="#323643"/>
<path d="M11.4896 33.722C11.2891 33.4714 11.1187 33.2008 10.9684 32.9101C10.798 32.6395 10.6476 32.3488 10.5374 32.0581C10.7378 32.3087 10.9082 32.5793 11.0586 32.87C11.239 33.1306 11.3793 33.4213 11.4896 33.722Z" fill="#323643"/>
<path d="M8.9935 32.5192C8.79303 32.2686 8.62263 31.9979 8.47228 31.7072C8.30187 31.4366 8.15152 31.1459 8.04126 30.8452C8.24173 31.0958 8.41213 31.3664 8.56249 31.6571C8.73289 31.9378 8.87322 32.2285 8.9935 32.5192Z" fill="#323643"/>
<path d="M17.1129 34.9448C16.9024 34.6842 16.722 34.4036 16.5717 34.1029C16.3912 33.8222 16.2409 33.5215 16.1206 33.2108C16.3311 33.4714 16.5115 33.752 16.6619 34.0527C16.8423 34.3334 16.9927 34.6341 17.1129 34.9448Z" fill="#323643"/>
<path d="M19.789 34.7945C19.5785 34.5339 19.398 34.2532 19.2477 33.9525C19.0673 33.6719 18.9169 33.3712 18.7966 33.0604C19.0071 33.321 19.1876 33.6017 19.3379 33.9024C19.5083 34.1831 19.6687 34.4838 19.789 34.7945Z" fill="#323643"/>
<path d="M22.4152 34.2231C22.2047 33.9625 22.0243 33.6818 21.8739 33.3811C21.6935 33.1005 21.5431 32.7997 21.4229 32.489C21.6333 32.7496 21.8138 33.0303 21.9641 33.331C22.1446 33.6117 22.2949 33.9124 22.4152 34.2231Z" fill="#323643"/>
<path d="M24.821 33.3411C24.6105 33.0805 24.43 32.7998 24.2797 32.4991C24.0993 32.2184 23.9489 31.9177 23.8286 31.607C24.0391 31.8676 24.2095 32.1583 24.3699 32.449C24.5503 32.7296 24.7007 33.0303 24.821 33.3411Z" fill="#323643"/>
<path d="M27.1264 31.9979C26.9159 31.7373 26.7355 31.4566 26.5851 31.1559C26.4047 30.8752 26.2543 30.5745 26.134 30.2638C26.3445 30.5244 26.525 30.8051 26.6753 31.1058C26.8557 31.3864 27.0061 31.6771 27.1264 31.9979Z" fill="#323643"/>
<path d="M29.121 30.3439C28.9105 30.0833 28.7301 29.8026 28.5797 29.5019C28.3993 29.2212 28.2489 28.9205 28.1287 28.6098C28.3392 28.8704 28.5196 29.1511 28.6699 29.4518C28.8504 29.7324 29.0007 30.0332 29.121 30.3439Z" fill="#323643"/>
<path d="M30.705 28.61C30.4945 28.3494 30.3141 28.0687 30.1637 27.768C29.9833 27.4874 29.8329 27.1866 29.7126 26.8759C29.9231 27.1365 30.1036 27.4172 30.2539 27.7179C30.4243 27.9986 30.5747 28.2993 30.705 28.61Z" fill="#323643"/>
<path d="M32.1383 26.6052C31.9278 26.3446 31.7474 26.0639 31.5971 25.7632C31.4166 25.4825 31.2663 25.1818 31.146 24.8711C31.3565 25.1317 31.5369 25.4124 31.6873 25.7131C31.8677 25.9937 32.018 26.2944 32.1383 26.6052Z" fill="#323643"/>
<path d="M33.3009 24.3299C33.0904 24.0692 32.91 23.7886 32.7597 23.4879C32.5792 23.2072 32.4289 22.9065 32.3086 22.5958C32.5191 22.8564 32.6895 23.1471 32.8499 23.4377C33.0303 23.7184 33.1807 24.0091 33.3009 24.3299Z" fill="#323643"/>
<path d="M34.0426 21.7738C33.8321 21.5132 33.6517 21.2325 33.5014 20.9318C33.3209 20.6512 33.1706 20.3505 33.0503 20.0397C33.2608 20.3003 33.4412 20.581 33.5916 20.8817C33.772 21.1624 33.9223 21.4631 34.0426 21.7738Z" fill="#323643"/>
<path d="M34.3933 19.0574C34.1527 18.7266 33.9322 18.3858 33.7518 18.025C33.5413 17.6842 33.3508 17.3233 33.1904 16.9424C33.431 17.2632 33.6515 17.614 33.8319 17.9749C34.0525 18.3257 34.2429 18.6866 34.3933 19.0574Z" fill="#323643"/>
<path d="M34.0227 15.2384C33.7821 14.9076 33.5616 14.5668 33.3811 14.206C33.1707 13.8652 32.9802 13.5043 32.8198 13.1234C33.0604 13.4542 33.2809 13.795 33.4714 14.1558C33.6919 14.5067 33.8723 14.8675 34.0227 15.2384Z" fill="#323643"/>
<path d="M15.1386 14.206C15.1887 14.6971 15.2388 15.1983 15.2889 15.6894C15.4393 17.1729 15.5896 18.6665 15.74 20.15C15.77 20.4507 15.8302 20.7514 15.9004 21.0421C15.9906 21.3929 16.1409 21.4931 16.5118 21.4631C16.7423 21.443 16.9629 21.423 17.1834 21.3929C17.2335 21.3929 17.2736 21.3829 17.3337 21.3728C17.3538 21.5633 17.3738 21.7437 17.3939 21.9342C16.1409 22.0645 14.888 22.1848 13.625 22.3151C13.6049 22.1346 13.5849 21.9542 13.5649 21.7537C13.7453 21.7337 13.9157 21.7237 14.0861 21.7036C14.2565 21.6836 14.4269 21.6535 14.5873 21.6134C14.8679 21.5332 15.0183 21.3227 15.0383 21.0521C15.0684 20.6912 15.0784 20.3304 15.0584 19.9695C14.9481 18.3658 14.8278 16.772 14.6975 15.1682C14.6474 14.4966 14.5572 13.8351 14.477 13.1735C14.4369 12.8427 14.3467 12.7525 14.0159 12.7626C13.8455 12.7726 13.6751 12.7926 13.5047 12.8127C13.4847 12.6322 13.4746 12.4819 13.4546 12.3115C13.4947 12.3015 13.5448 12.2914 13.5849 12.2914C14.1963 12.2313 14.8178 12.1712 15.4292 12.101C15.5395 12.091 15.5896 12.121 15.6397 12.2113C17.1132 14.637 18.5867 17.0527 20.0602 19.4684C20.0902 19.5084 20.1103 19.5586 20.1504 19.6187C20.1704 19.5586 20.1905 19.5084 20.2105 19.4684C21.1628 16.8121 22.115 14.1458 23.0572 11.4896C23.0973 11.3693 23.1574 11.3192 23.2878 11.3091C23.9794 11.249 24.661 11.1688 25.3526 11.1087C25.4027 11.1087 25.4428 11.0986 25.493 11.0986C25.513 11.269 25.523 11.4194 25.5431 11.5998C25.4027 11.6098 25.2524 11.6299 25.1121 11.6399C24.6209 11.69 24.5207 11.8003 24.5708 12.2914C24.7612 14.2962 24.9617 16.3109 25.1622 18.3156C25.2223 18.9171 25.3025 19.5084 25.3827 20.1099C25.4228 20.3905 25.533 20.4807 25.8237 20.4908C25.9841 20.4908 26.1345 20.4807 26.2948 20.4607C26.3851 20.4507 26.4753 20.4406 26.5655 20.4306C26.5855 20.6211 26.6056 20.8015 26.6256 20.9919C25.3727 21.1222 24.1197 21.2425 22.8668 21.3728C22.8467 21.1924 22.8267 21.012 22.8066 20.8115C22.957 20.7915 23.0973 20.7814 23.2477 20.7614C23.3679 20.7414 23.4882 20.7213 23.6085 20.7013C23.8591 20.6411 23.9593 20.5108 23.9694 20.2602C23.9694 20.1299 23.9694 19.9996 23.9593 19.8793C23.7689 17.9047 23.5684 15.92 23.378 13.9453C23.3679 13.805 23.3479 13.6547 23.3078 13.5143C23.2878 13.5544 23.2777 13.5845 23.2577 13.6246C22.2453 16.2708 21.2329 18.907 20.2205 21.5533C20.2005 21.6034 20.1504 21.6836 20.1103 21.6836C20.0602 21.6735 20 21.6234 19.9599 21.5733C18.3862 19.1576 16.8125 16.7419 15.2388 14.3262C15.2087 14.2861 15.1887 14.246 15.1586 14.206C15.1787 14.206 15.1586 14.206 15.1386 14.206Z" fill="#C0CCDA"/>
<path d="M9.18459 13.1435C9.34496 14.6971 9.49532 16.2207 9.6557 17.7443C9.60558 17.7543 9.56548 17.7643 9.52539 17.7643C9.19461 17.7944 8.85381 17.8245 8.52303 17.8646C8.41277 17.8746 8.3827 17.8445 8.36265 17.7343C8.24237 16.5214 8.11206 15.3086 7.98175 14.0957C7.97173 13.9554 7.94166 13.815 7.92161 13.6747C7.89154 13.4843 7.80133 13.4041 7.61088 13.4141C7.38033 13.4241 7.13977 13.4442 6.90922 13.4642C6.85911 13.4642 6.80899 13.4742 6.74885 13.4843C6.7288 13.3339 6.71878 13.1936 6.70875 13.0432C6.73882 13.0332 6.77892 13.0232 6.80899 13.0232C8.28246 12.8728 9.74591 12.7225 11.2194 12.5821C12.4523 12.4719 13.7153 13.394 13.9859 14.6069C14.1964 15.5291 14.0661 16.3911 13.4246 17.1228C13.0337 17.5739 12.5224 17.8445 11.9611 18.0149C11.059 18.2956 10.1268 18.3858 9.20463 18.476C8.3426 18.5562 7.48057 18.5963 6.62856 18.456C6.35793 18.4058 6.08729 18.3357 5.81665 18.2755C5.81665 18.2655 5.82667 18.2455 5.82667 18.2354C6.02715 18.2555 6.23764 18.2655 6.43811 18.2755C7.44048 18.3257 8.43281 18.2956 9.42515 18.1553C10.0065 18.0751 10.5779 17.9748 11.1292 17.7643C11.6303 17.5739 12.0413 17.2732 12.342 16.8321C12.5625 16.5014 12.6828 16.1505 12.6929 15.7496C12.7029 15.3086 12.6628 14.8775 12.5024 14.4565C12.2318 13.7248 11.3898 13.0432 10.4977 13.0733C10.0566 13.0933 9.62562 13.1134 9.18459 13.1435Z" fill="#C0CCDA"/>
<path d="M11.3594 22.0043C11.3795 22.1747 11.3995 22.3552 11.4095 22.5456C10.1666 22.6759 8.92369 22.7962 7.67074 22.9265C7.65069 22.7461 7.63064 22.5657 7.6106 22.3752C7.81107 22.3452 8.01154 22.3151 8.21201 22.285C8.57286 22.2249 8.68312 22.0946 8.70317 21.7337C8.70317 21.6535 8.70317 21.5633 8.69315 21.4831C8.62298 20.7013 8.55282 19.9094 8.48265 19.1276C8.48265 19.0775 8.47263 19.0374 8.47263 18.9872C8.90364 18.9471 9.31461 18.897 9.74563 18.8569C9.75565 18.9171 9.75565 18.9672 9.76567 19.0173C9.85589 19.8192 9.9461 20.6311 10.0363 21.433C10.0463 21.5332 10.0664 21.6335 10.0965 21.7337C10.1466 21.9342 10.2568 22.0344 10.4673 22.0444C10.768 22.0344 11.0587 22.0144 11.3594 22.0043Z" fill="#C0CCDA"/>
<path d="M14.6771 14.2561C14.7272 14.7473 14.7774 15.2485 14.8275 15.7396C14.9778 17.2231 15.1282 18.7166 15.2785 20.2001C15.3086 20.5008 15.3688 20.8015 15.4389 21.0922C15.5291 21.4431 15.6795 21.5433 16.0504 21.5132C16.2809 21.4932 16.5014 21.4731 16.7219 21.4431C16.7721 21.4431 16.8122 21.433 16.8723 21.423C16.8924 21.6135 16.9124 21.7939 16.9324 21.9843C15.6795 22.1146 14.4265 22.2349 13.1636 22.3652C13.1435 22.1848 13.1235 22.0044 13.1034 21.8039C13.2838 21.7839 13.4542 21.7738 13.6247 21.7538C13.7951 21.7337 13.9655 21.7037 14.1258 21.6636C14.4065 21.5834 14.5568 21.3729 14.5769 21.1023C14.607 20.7414 14.617 20.3806 14.5969 20.0197C14.4867 18.4159 14.3664 16.8222 14.2361 15.2184C14.186 14.5468 14.0958 13.8853 14.0156 13.2237C13.9755 12.8929 13.8853 12.8027 13.5545 12.8127C13.3841 12.8227 13.2137 12.8428 13.0433 12.8628C13.0232 12.6824 13.0132 12.5321 12.9932 12.3617C13.0333 12.3516 13.0834 12.3416 13.1235 12.3416C13.7349 12.2815 14.3564 12.2213 14.9678 12.1512C15.0781 12.1411 15.1282 12.1712 15.1783 12.2614C16.6518 14.6871 18.1253 17.1028 19.5987 19.5185C19.6288 19.5586 19.6488 19.6087 19.6889 19.6689C19.709 19.6087 19.729 19.5586 19.7491 19.5185C20.7013 16.8623 21.6536 14.196 22.5958 11.5397C22.6359 11.4194 22.696 11.3693 22.8263 11.3593C23.518 11.2992 24.1996 11.219 24.8912 11.1588C24.9413 11.1588 24.9814 11.1488 25.0315 11.1488C25.0516 11.3192 25.0616 11.4696 25.0816 11.65C24.9413 11.66 24.791 11.6801 24.6506 11.6901C24.1595 11.7402 24.0592 11.8505 24.1094 12.3416C24.2998 14.3463 24.5003 16.3611 24.7007 18.3658C24.7609 18.9672 24.8411 19.5586 24.9213 20.16C24.9614 20.4407 25.0716 20.5309 25.3623 20.5409C25.5227 20.5409 25.673 20.5309 25.8334 20.5109C25.9236 20.5008 26.0138 20.4908 26.1041 20.4808C26.1241 20.6712 26.1441 20.8517 26.1642 21.0421C24.9112 21.1724 23.6583 21.2927 22.4053 21.423C22.3853 21.2426 22.3652 21.0622 22.3452 20.8617C22.4956 20.8416 22.6359 20.8316 22.7862 20.8116C22.9065 20.7915 23.0268 20.7715 23.1471 20.7514C23.3977 20.6913 23.4979 20.561 23.5079 20.3104C23.5079 20.1801 23.5079 20.0498 23.4979 19.9295C23.3075 17.9548 23.107 15.9702 22.9165 13.9955C22.9065 13.8552 22.8865 13.7048 22.8464 13.5645C22.8263 13.6046 22.8163 13.6347 22.7963 13.6748C21.7839 16.321 20.7715 18.9572 19.7591 21.6034C19.7391 21.6536 19.6889 21.7337 19.6488 21.7337C19.5987 21.7237 19.5386 21.6736 19.4985 21.6235C17.9248 19.2078 16.3511 16.7921 14.7774 14.3764C14.7473 14.3363 14.7272 14.2962 14.6972 14.2561C14.7072 14.2461 14.6872 14.2561 14.6771 14.2561Z" fill="white"/>
<path d="M8.71266 13.1836C8.87304 14.7372 9.02339 16.2608 9.18377 17.7844C9.13365 17.7944 9.09356 17.8044 9.05346 17.8044C8.72269 17.8345 8.38188 17.8646 8.0511 17.9047C7.94084 17.9147 7.91077 17.8846 7.89072 17.7744C7.77044 16.5615 7.64013 15.3487 7.50983 14.1358C7.4998 13.9955 7.46973 13.8551 7.44969 13.7148C7.41962 13.5244 7.3294 13.4442 7.13895 13.4542C6.90841 13.4642 6.66784 13.4843 6.4373 13.5043C6.38718 13.5043 6.33706 13.5143 6.27692 13.5244C6.25688 13.374 6.24685 13.2337 6.23683 13.0833C6.2669 13.0733 6.30699 13.0633 6.33706 13.0633C7.81054 12.9129 9.27398 12.7626 10.7475 12.6222C11.9804 12.512 13.2433 13.4341 13.514 14.647C13.7245 15.5692 13.5942 16.4312 12.9527 17.1629C12.5617 17.614 12.0505 17.8846 11.4892 18.055C10.5871 18.3357 9.65488 18.4259 8.73271 18.5161C7.87068 18.5963 7.00865 18.6364 6.15664 18.4961C5.886 18.4459 5.61536 18.3758 5.34473 18.3156C5.34473 18.3056 5.35475 18.2856 5.35475 18.2755C5.55522 18.2956 5.76572 18.3056 5.96619 18.3156C6.96855 18.3658 7.96089 18.3357 8.95323 18.1954C9.5346 18.1152 10.1059 18.0149 10.6572 17.8044C11.1584 17.614 11.5694 17.3133 11.8701 16.8722C12.0906 16.5415 12.2109 16.1906 12.2209 15.7897C12.231 15.3487 12.1909 14.9176 12.0305 14.4966C11.7598 13.7649 10.9179 13.0833 10.0258 13.1134C9.58472 13.1334 9.16372 13.1635 8.71266 13.1836Z" fill="white"/>
<path d="M10.8975 22.0545C10.9176 22.2249 10.9376 22.4053 10.9476 22.5957C9.7047 22.726 8.46178 22.8463 7.20882 22.9766C7.18878 22.7962 7.16873 22.6158 7.14868 22.4253C7.34915 22.3953 7.54963 22.3652 7.7501 22.3351C8.11095 22.275 8.22121 22.1447 8.24126 21.7838C8.24126 21.7036 8.24126 21.6134 8.23123 21.5332C8.16107 20.7514 8.0909 19.9595 8.02074 19.1777C8.02074 19.1276 8.01071 19.0875 8.01071 19.0373C8.44173 18.9973 8.8527 18.9471 9.28371 18.907C9.29373 18.9672 9.29374 19.0173 9.30376 19.0674C9.39397 19.8693 9.48418 20.6812 9.5744 21.4831C9.58442 21.5833 9.60447 21.6836 9.63454 21.7838C9.68466 21.9843 9.79492 22.0845 10.0054 22.0946C10.2961 22.0745 10.5868 22.0645 10.8975 22.0545Z" fill="white"/>
</svg>
