<svg width="31" height="35" viewBox="0 0 31 35" fill="none" xmlns="http://www.w3.org/2000/svg">
<path d="M2.53473 10.4774C1.13484 10.4774 0 11.6091 0 13.0052C0 14.4012 1.13484 15.5329 2.53473 15.5329C1.13484 15.5329 0 16.6644 0 18.0605C0 19.4565 1.13484 20.5882 2.53473 20.5882H6.17647V10.2941L2.53473 10.4774Z" fill="#DD9F68"/>
<path d="M11.3235 31.0445C11.5092 31.2647 11.7025 31.478 11.9044 31.6836C13.9165 33.733 16.6953 35 19.7656 35C25.9057 35 30.8823 29.9303 30.8823 23.6765" fill="#DD9F68"/>
<path d="M23.6764 2.09287V27.4601H19.1549C19.3035 27.7703 19.478 28.0672 19.6773 28.347C19.9416 28.7188 20.0929 29.1612 20.0929 29.6206V29.78C20.0929 30.9573 19.1519 31.9118 17.9915 31.9118H5.15092C4.01152 31.9118 3.08813 30.9748 3.08813 29.8197V2.09287C3.08813 0.937004 4.01152 0 5.15092 0H21.6149C22.7527 0 23.6764 0.937004 23.6764 2.09287Z" fill="#405968"/>
<path d="M6.17637 31.9118H4.74002C3.82758 31.9118 3.08813 30.9748 3.08813 29.8197V2.09287C3.08813 0.937004 3.82758 0 4.74002 0H6.17637C5.26394 0 4.52427 0.937004 4.52427 2.09287V29.8197C4.52427 30.9748 5.26394 31.9118 6.17637 31.9118Z" fill="#273C47"/>
<path d="M3.08813 3.08826H23.6764V25.7353H3.08813V3.08826Z" fill="#6ADBBD"/>
<path d="M20.5881 3.08826L3.08813 20.5883V11.7275L11.7276 3.08826H20.5881Z" fill="#A6F7E0"/>
<path d="M23.6764 4.11768V8.91149L7.5109 25.7353H3.08813V25.5456L23.6764 4.11768Z" fill="#A6F7E0"/>
<path d="M3.08813 3.08826H4.11755V25.7353H3.08813V3.08826Z" fill="#4FBF9F"/>
<path d="M18.3993 8.23529H13.5124C13.4406 8.23529 13.3823 8.29353 13.3823 8.36537V13.2523C13.3823 13.3241 13.4406 13.3823 13.5124 13.3823H18.3993C18.4711 13.3823 18.5294 13.3241 18.5294 13.2523V8.36537C18.5294 8.29353 18.4711 8.23529 18.3993 8.23529Z" fill="#FFC325"/>
<path d="M13.3823 10.2941C13.3823 9.72558 14.5345 9.26465 15.9559 9.26465C17.3772 9.26465 18.5294 9.7257 18.5294 10.2942C18.5294 10.8626 17.3772 11.3235 15.9559 11.3235C14.5345 11.3235 13.3823 10.8626 13.3823 10.2941Z" fill="#006891"/>
<path fill-rule="evenodd" clip-rule="evenodd" d="M13.6586 9.94531C13.5364 10.0577 13.4749 10.1756 13.4749 10.2941C13.4749 10.4126 13.5364 10.5305 13.6586 10.6429C13.7808 10.7553 13.9601 10.8586 14.1856 10.9463C14.6364 11.1217 15.2622 11.2312 15.9559 11.2312C16.6495 11.2312 17.2754 11.1217 17.7261 10.9464C17.9516 10.8586 18.131 10.7553 18.2531 10.6429C18.3753 10.5306 18.4368 10.4127 18.4368 10.2942C18.4368 10.1756 18.3753 10.0577 18.2531 9.94538C18.1309 9.83298 17.9516 9.72963 17.7261 9.64187C17.2753 9.46647 16.6495 9.35697 15.9559 9.35697C15.2622 9.35697 14.6364 9.46644 14.1856 9.64182C13.9601 9.72957 13.7808 9.83291 13.6586 9.94531ZM14.152 9.55582C14.6159 9.37531 15.2537 9.26465 15.9559 9.26465C16.658 9.26465 17.2958 9.37533 17.7597 9.55587C17.9915 9.64608 18.1823 9.75463 18.3159 9.87751C18.4495 10.0004 18.5294 10.1412 18.5294 10.2942C18.5294 10.4471 18.4495 10.5879 18.3159 10.7108C18.1823 10.8337 17.9915 10.9422 17.7597 11.0324C17.2958 11.2128 16.658 11.3235 15.9559 11.3235C15.2537 11.3235 14.6159 11.2128 14.152 11.0323C13.9202 10.9421 13.7294 10.8336 13.5958 10.7107C13.4622 10.5878 13.3823 10.4471 13.3823 10.2941C13.3823 10.1411 13.4622 10.0004 13.5958 9.87745C13.7294 9.75456 13.9202 9.64602 14.152 9.55582Z" fill="#006891"/>
<path fill-rule="evenodd" clip-rule="evenodd" d="M14.5162 11.3235C14.4476 11.3235 14.3977 11.2371 14.4155 11.1491L14.5672 10.3967C14.5794 10.3362 14.6207 10.2941 14.6679 10.2941H14.8113C14.8689 10.2941 14.9156 10.3561 14.9156 10.4326V10.8978C14.9156 10.8987 14.9162 10.8995 14.9169 10.8995C14.9174 10.8995 14.9178 10.8991 14.9181 10.8985L15.1114 10.3719C15.1289 10.3243 15.1653 10.2941 15.2051 10.2941H15.337C15.4055 10.2941 15.4554 10.3804 15.4377 10.4684L15.2859 11.2208C15.2737 11.2814 15.2322 11.3235 15.185 11.3235C15.1165 11.3235 15.0663 11.2371 15.084 11.1492L15.1816 10.6651C15.1818 10.6641 15.1812 10.6632 15.1805 10.6632C15.1801 10.6632 15.1797 10.6635 15.1795 10.664L14.945 11.25C14.9269 11.2952 14.8915 11.3235 14.8529 11.3235H14.8466C14.789 11.3235 14.7423 11.2615 14.7423 11.185V10.6658C14.7423 10.6644 14.7414 10.6632 14.7403 10.6632C14.7394 10.6632 14.7386 10.664 14.7384 10.6651L14.6264 11.2208C14.6142 11.2814 14.5729 11.3235 14.5257 11.3235H14.5162Z" fill="white"/>
<path fill-rule="evenodd" clip-rule="evenodd" d="M15.7589 11.3235C15.6536 11.3235 15.577 11.2204 15.6042 11.1153L15.6924 10.7753C15.7142 10.6914 15.653 10.6091 15.569 10.6091C15.485 10.6091 15.4238 10.5267 15.4456 10.4428L15.4539 10.4108C15.4718 10.3419 15.5321 10.2941 15.6011 10.2941H16.3181C16.4183 10.2941 16.4912 10.3923 16.4653 10.4923C16.4474 10.5612 16.3871 10.6091 16.3181 10.6091H16.2247C16.1523 10.6091 16.0889 10.6593 16.0702 10.7316L15.9484 11.2009C15.9297 11.2732 15.8664 11.3234 15.794 11.3235L15.7589 11.3235Z" fill="#FFC325"/>
<path fill-rule="evenodd" clip-rule="evenodd" d="M16.6032 11.3235C16.5166 11.3235 16.4528 11.2371 16.4752 11.1492L16.6669 10.3968C16.6823 10.3362 16.7345 10.2941 16.7942 10.2941H16.887C16.9472 10.2941 16.9998 10.337 17.0147 10.3983L17.1228 10.8435C17.123 10.8443 17.1236 10.8449 17.1244 10.8449C17.1252 10.8449 17.1258 10.8443 17.126 10.8436L17.2399 10.3967C17.2553 10.3362 17.3079 10.2941 17.3676 10.2941C17.4542 10.2941 17.518 10.3804 17.4956 10.4684L17.3039 11.2208C17.2885 11.2814 17.2363 11.3235 17.1766 11.3235H17.0966C17.0371 11.3235 16.985 11.2816 16.9694 11.2213L16.851 10.7626C16.8508 10.7618 16.8501 10.7613 16.8493 10.7613C16.8485 10.7613 16.8479 10.7618 16.8477 10.7626L16.7309 11.2208C16.7155 11.2814 16.6629 11.3235 16.6032 11.3235Z" fill="white"/>
<path d="M21.6177 3.08826H23.6765V25.7353H21.6177V3.08826Z" fill="#A6F7E0"/>
<path d="M22.647 2.05884H23.6764V25.7353H22.647V2.05884Z" fill="#405968"/>
<path d="M16.2567 11.1012C15.1693 12.177 15.1693 13.9211 16.2567 14.9969L20.4588 19.1542C20.0897 19.423 19.7423 19.7348 19.424 20.0899C17.2954 22.4673 17.3333 26.4382 19.5054 28.7771C22.0274 31.4924 26.2852 31.5811 28.9208 29.0434C30.2349 27.7781 30.8843 26.0973 30.8823 24.4114C30.8801 22.7184 30.2214 21.0201 28.9192 19.732L20.1949 11.1012C19.1074 10.0251 17.3442 10.0251 16.2567 11.1012Z" fill="#FFC994"/>
<path d="M21.0354 18.5294L16.3506 14.8091C15.7444 14.3278 15.4412 13.697 15.4412 13.0663C15.4412 12.4356 15.7444 11.8048 16.3506 11.3235C16.2565 11.3983 16.2121 11.5055 16.2121 11.6383C16.2121 12.1216 16.8049 12.9377 17.7562 13.6931L21.0354 16.2972C21.8117 16.9135 21.8117 17.9128 21.0354 18.5294Z" fill="#DD9F68"/>
<path d="M28.8234 28.9186C28.8019 28.9438 28.7789 28.9674 28.7566 28.9918C26.9298 30.9381 24.2604 32.6555 22.0569 31.5798C21.3224 31.2212 20.6398 29.4133 20.0573 28.7192C18.0502 26.3272 18.0155 22.2668 19.9822 19.8363C20.0594 19.741 20.1379 19.6479 20.2195 19.5588C20.177 19.6068 20.1358 19.6573 20.097 19.7106C19.0342 21.1514 19.8625 24.3431 21.9077 26.6931C24.2819 29.4215 27.3842 30.4226 28.7817 28.9637C28.7954 28.9492 28.8094 28.9339 28.8234 28.9186Z" fill="#DD9F68"/>
<path d="M14.9054 28.8237H10.8304C10.5343 28.8237 10.2942 28.5934 10.2942 28.3091C10.2942 28.0249 10.5343 27.7943 10.8304 27.7943H14.9054C15.2011 27.7943 15.4412 28.0249 15.4412 28.3091C15.4412 28.5934 15.2011 28.8237 14.9054 28.8237Z" fill="#273C47"/>
<path d="M14.9054 2.05883H10.8304C10.5343 2.05883 10.2942 1.8283 10.2942 1.54412C10.2942 1.25995 10.5343 1.02942 10.8304 1.02942H14.9054C15.2011 1.02942 15.4412 1.25995 15.4412 1.54412C15.4412 1.8283 15.2011 2.05883 14.9054 2.05883Z" fill="#273C47"/>
<path d="M6.33265 24.7015C6.17867 24.7015 6.02547 24.7015 5.87149 24.7015C5.82303 24.7015 5.82147 24.7001 5.84491 24.6614C6.00593 24.3937 6.16851 24.1267 6.32874 23.859C6.41082 23.7212 6.49914 23.587 6.57652 23.4462C6.6156 23.3754 6.58981 23.3346 6.50227 23.3251C6.42176 23.3163 6.34203 23.3054 6.26465 23.2842C5.76284 23.1449 5.39704 22.8568 5.23133 22.3907C5.0414 21.8575 5.17427 21.3797 5.60886 20.9873C5.95512 20.6743 6.37877 20.5562 6.85478 20.5956C6.94154 20.6029 7.02752 20.6175 7.11194 20.6379C7.13773 20.6437 7.14164 20.6547 7.13461 20.6765C7.07989 20.8509 7.02518 21.0259 6.97281 21.201C6.96343 21.2338 6.9478 21.2389 6.91731 21.2309C6.80788 21.201 6.69689 21.1966 6.58434 21.2083C6.19821 21.2484 5.85586 21.5438 5.84491 21.9443C5.83632 22.2521 6.04736 22.538 6.36626 22.6562C6.70705 22.7824 7.12054 22.6905 7.35268 22.433C7.50588 22.263 7.55981 22.0639 7.52386 21.8444C7.51213 21.7736 7.49728 21.7809 7.58483 21.7576C7.77007 21.7087 7.95688 21.6642 8.14447 21.6248C8.17574 21.6182 8.19059 21.627 8.19841 21.654C8.21169 21.6985 8.21795 21.7444 8.2242 21.7904C8.26563 22.0814 8.18668 22.3484 8.04521 22.6044C7.85449 22.9487 7.65517 23.2872 7.45508 23.6271C7.25263 23.9714 7.05488 24.3186 6.85635 24.6658C6.84071 24.6935 6.82352 24.7059 6.78756 24.7059C6.63514 24.7037 6.48273 24.7052 6.33031 24.7052C6.33265 24.703 6.33265 24.7023 6.33265 24.7015Z" fill="#017151"/>
<path d="M7.20552 21.1033C7.21658 21.3624 6.99807 21.5842 6.76257 21.6135C6.52366 21.6429 6.31791 21.5174 6.22609 21.3224C6.09941 21.0535 6.22439 20.7391 6.49985 20.6278C6.80168 20.5058 7.1205 20.6768 7.19787 21.0018C7.20552 21.0348 7.20552 21.0686 7.20552 21.1033Z" fill="#CEEA02"/>
<path d="M5.14799 25.2638C5.14799 25.1374 5.14993 25.0096 5.14702 24.8832C5.14605 24.8238 5.16062 24.7934 5.19365 24.7751C5.32966 24.7036 5.46664 24.6716 5.60557 24.7584C5.6318 24.7751 5.65608 24.7645 5.68134 24.7538C5.79404 24.7051 5.90673 24.6838 6.0204 24.7401C6.11269 24.7858 6.16224 24.8878 6.17098 25.0431C6.18264 25.2562 6.17195 25.4693 6.17098 25.6809C6.17098 25.722 6.15932 25.7312 6.13503 25.7327C6.0408 25.7403 6.0408 25.7418 6.04177 25.5957C6.04274 25.4389 6.04566 25.2805 6.04274 25.1237C6.03983 24.9289 5.99125 24.8665 5.8669 24.8923C5.8193 24.903 5.76004 24.8893 5.727 24.9395C5.69106 24.9943 5.72603 25.0826 5.72506 25.1572C5.72215 25.3293 5.72312 25.5013 5.72409 25.6748C5.72409 25.719 5.71243 25.7327 5.6862 25.7312C5.56865 25.7281 5.59294 25.7464 5.59197 25.5911C5.59099 25.416 5.60557 25.241 5.59099 25.0674C5.58128 24.9502 5.55408 24.9076 5.47927 24.8954C5.42098 24.8862 5.36269 24.903 5.30537 24.9091C5.27428 24.9121 5.27623 24.9471 5.27623 24.9806C5.27623 25.2014 5.27623 25.4221 5.27623 25.6429C5.27623 25.6946 5.27817 25.7357 5.2296 25.7312C5.14799 25.7251 5.14799 25.7297 5.14702 25.6414C5.14799 25.518 5.14799 25.3917 5.14799 25.2638Z" fill="#017151"/>
<path d="M6.39663 24.8469C6.39663 24.8779 6.39829 24.9101 6.39663 24.9412C6.39332 24.9811 6.41484 24.9922 6.47442 24.9877C6.60847 24.9767 6.74253 24.9678 6.87493 24.9966C7.04043 25.0321 7.15132 25.1064 7.18607 25.2195C7.22248 25.3426 7.21255 25.4657 7.12484 25.5811C7.06526 25.6587 6.97092 25.7042 6.84514 25.723C6.68957 25.7452 6.53731 25.7374 6.39001 25.7008C6.25595 25.6676 6.17982 25.6021 6.17817 25.5034C6.17651 25.2539 6.17817 25.0055 6.17651 24.756C6.17651 24.7216 6.19141 24.7038 6.24768 24.7072C6.26919 24.7083 6.29236 24.7094 6.31388 24.7072C6.38174 24.7005 6.4016 24.7227 6.39663 24.7648C6.39332 24.7914 6.39663 24.8192 6.39663 24.8469ZM6.39663 25.326C6.39498 25.326 6.39167 25.326 6.39001 25.326C6.39332 25.3848 6.39663 25.4436 6.40325 25.5023C6.40656 25.5278 6.41484 25.5533 6.44628 25.5722C6.5522 25.6354 6.89645 25.6188 6.94444 25.4957C6.97258 25.4236 6.99575 25.3526 6.98416 25.2772C6.97092 25.1951 6.8981 25.1386 6.78059 25.1142C6.66474 25.0909 6.55055 25.1075 6.43801 25.1219C6.39994 25.1264 6.39663 25.1486 6.39663 25.1696C6.39663 25.2229 6.39663 25.2739 6.39663 25.326Z" fill="#017151"/>
<path d="M6.17637 7.20589C7.88196 7.20589 9.26461 5.82324 9.26461 4.11765C9.26461 2.41207 7.88196 1.02942 6.17637 1.02942C4.47078 1.02942 3.08813 2.41207 3.08813 4.11765C3.08813 5.82324 4.47078 7.20589 6.17637 7.20589Z" fill="#50B651"/>
<path opacity="0.663" fill-rule="evenodd" clip-rule="evenodd" d="M9.26158 3.90546C9.26158 5.72825 7.87954 7.2059 6.17505 7.2059C4.47056 7.2059 3.08813 5.72825 3.08813 3.90546C3.08813 3.09912 3.10927 2.97924 3.40613 2.52019C3.40613 2.52019 3.39081 3.03869 3.74642 3.34724C3.96753 3.53894 4.19829 3.40055 4.62068 3.19256C5.07761 2.96737 5.44906 2.8221 5.73888 2.86043C6.17543 2.91824 7.52102 3.78222 8.22327 3.61018C8.78428 3.47302 8.72508 2.05884 8.72508 2.05884C9.33779 2.69854 9.26158 3.1309 9.26158 3.90546Z" fill="url(#paint0_linear)"/>
<path opacity="0.586" fill-rule="evenodd" clip-rule="evenodd" d="M8.23535 6.17649C9.10091 5.11834 9.24479 3.9061 8.66698 2.53978C8.66991 2.54256 8.70566 2.38224 8.77423 2.05884C9.08173 2.54282 9.24525 3.14019 9.26476 3.85095C9.26461 4.77157 8.92147 5.54675 8.23535 6.17649Z" fill="url(#paint1_linear)"/>
<path opacity="0.744" fill-rule="evenodd" clip-rule="evenodd" d="M7.02692 1.72903C6.60351 1.5388 6.11776 1.15614 6.18233 1.07578C6.2469 0.995414 7.08499 1.00924 7.50846 1.19947C7.93193 1.3897 8.29234 1.96034 8.22783 2.04071C8.16331 2.12107 7.45033 1.91926 7.02692 1.72903Z" fill="url(#paint2_radial)"/>
<path fill-rule="evenodd" clip-rule="evenodd" d="M7.72049 4.11767C7.43625 4.11767 7.20581 3.8872 7.20581 3.60294C7.20581 3.31868 7.43625 3.08826 7.72049 3.08826C8.00474 3.08826 8.23522 3.31868 8.23522 3.60294C8.23522 3.8872 8.00479 4.11767 7.72049 4.11767ZM7.72414 3.95439C7.90155 3.95439 8.04555 3.79704 8.04555 3.60294C8.04555 3.40884 7.90155 3.25163 7.72414 3.25163C7.54674 3.25163 7.40274 3.40898 7.40274 3.60303C7.40274 3.79709 7.54674 3.95439 7.72414 3.95439Z" fill="white"/>
<path fill-rule="evenodd" clip-rule="evenodd" d="M5.76088 3.09046H6.1765V4.72107C6.1765 4.86965 5.92091 5.02441 5.67183 5.09102C5.55407 5.12248 5.33679 5.14117 5.01997 5.14708V4.98487C5.32985 4.96374 5.539 4.92158 5.64744 4.8584C5.71001 4.80523 5.74912 4.7431 5.76099 4.678V4.19894C5.64989 4.34309 5.50999 4.43865 5.34127 4.48563C5.1659 4.54349 4.80895 4.53398 4.66323 4.48563C4.51751 4.43728 4.30376 4.30998 4.20577 4.12038C4.17864 4.06804 4.11114 3.92563 4.11819 3.77474C4.1245 3.63104 4.2023 3.47899 4.26696 3.41649C4.37799 3.30976 4.55304 3.1761 4.81821 3.12023C4.94774 3.09292 5.1878 3.08311 5.53841 3.09078V3.25209C5.27787 3.24134 5.11533 3.24671 5.05077 3.26823C4.95394 3.30038 4.73536 3.34005 4.66323 3.63136C4.5911 3.92268 4.66533 4.16107 4.89401 4.23572C4.97234 4.26144 5.11091 4.29185 5.23897 4.26504C5.485 4.2136 5.71651 4.03017 5.73418 3.90589C5.75198 3.77979 5.76088 3.50798 5.76088 3.09046Z" fill="white"/>
<path fill-rule="evenodd" clip-rule="evenodd" d="M9.26461 4.51462C8.97018 6.05128 7.71392 7.20589 6.20898 7.20589C4.48541 7.20589 3.08813 5.69137 3.08813 3.82319C3.08813 2.66259 3.62738 1.63853 4.44905 1.02942C3.78141 1.62955 3.3563 2.53616 3.3563 3.54997C3.3563 5.35831 4.70878 6.82418 6.37706 6.82418C7.73569 6.82418 8.88468 5.85209 9.26461 4.51462Z" fill="url(#paint3_radial)"/>
<path fill-rule="evenodd" clip-rule="evenodd" d="M6.69108 0C4.70127 0 3.08813 1.61308 3.08813 3.6029C3.08813 5.59273 4.70127 7.20588 6.69108 7.20588C8.68088 7.20588 10.294 5.59273 10.294 3.6029C10.294 1.61308 8.68088 0 6.69108 0ZM6.69108 6.6453C5.01089 6.6453 3.64879 5.28318 3.64879 3.60298C3.64879 2.55917 4.17445 1.63814 4.97545 1.09033C5.48061 0.744344 6.07879 0.559638 6.69108 0.56058C8.37126 0.56058 9.73337 1.92262 9.73337 3.6029C9.73348 3.81182 9.71217 4.02019 9.66978 4.22476C9.38277 5.6068 8.15813 6.64523 6.69108 6.64523V6.6453Z" fill="#405968"/>
<path d="M16.167 16.4705C16.4175 16.474 16.6566 16.5228 16.8798 16.6394C17.0766 16.7429 17.2371 16.8875 17.3466 17.0869C17.4178 17.2185 17.4645 17.3626 17.4843 17.5118C17.525 17.7981 17.4838 18.0752 17.3918 18.346C17.3378 18.5049 17.263 18.6539 17.182 18.8003C17.017 19.0982 16.805 19.3564 16.5584 19.5853C16.242 19.8793 15.895 20.1366 15.5238 20.3526C15.38 20.436 15.2309 20.506 15.0705 20.5488C14.9722 20.5761 14.8708 20.5893 14.769 20.588C14.635 20.5852 14.5302 20.5226 14.4486 20.417C14.3734 20.3223 14.3346 20.2025 14.3396 20.0803C14.3405 20.0463 14.3453 20.0126 14.3539 19.9797C14.4024 19.8027 14.4683 19.6332 14.5669 19.4786C14.6422 19.3605 14.732 19.2557 14.8494 19.1807C14.9799 19.0972 15.1219 19.0615 15.2754 19.096C15.3234 19.1075 15.3685 19.1291 15.4081 19.1593C15.5091 19.2335 15.5038 19.3498 15.4553 19.4241C15.4137 19.4887 15.3673 19.5498 15.3163 19.6069C15.23 19.7023 15.1384 19.7926 15.0489 19.8849C14.9697 19.9666 14.8953 20.0523 14.835 20.15C14.8037 20.2007 14.7749 20.2524 14.7663 20.3133C14.7554 20.3896 14.794 20.4416 14.869 20.4487C14.9078 20.452 14.9469 20.448 14.9843 20.4368C15.0995 20.4041 15.2066 20.3513 15.3117 20.2944C15.4738 20.2064 15.6235 20.0987 15.7694 19.9852C15.9462 19.8475 16.1181 19.7039 16.2765 19.5443C16.457 19.3626 16.6178 19.1652 16.7409 18.9374C16.8308 18.7711 16.897 18.5954 16.9265 18.407C16.9525 18.241 16.938 18.0794 16.8631 17.927C16.8271 17.8517 16.7707 17.7886 16.7007 17.7454C16.6684 17.7254 16.6327 17.7117 16.5955 17.7051C16.4603 17.6805 16.3294 17.7007 16.2008 17.7447C16.0668 17.7907 15.9424 17.8579 15.8215 17.9313C15.5592 18.0911 15.2965 18.2508 15.0465 18.4308C14.9211 18.5209 14.7996 18.6168 14.6768 18.7106C14.5658 18.7953 14.4556 18.881 14.3344 18.9503C14.2359 19.0078 14.1294 19.0493 14.0186 19.0733C13.8813 19.1019 13.7548 19.0754 13.6385 18.9987C13.5178 18.9192 13.4334 18.8101 13.3963 18.6657C13.3727 18.5745 13.382 18.4841 13.4023 18.3941C13.4321 18.2619 13.4885 18.1422 13.5589 18.0288C13.733 17.7485 13.9519 17.5107 14.2065 17.3074C14.5838 17.0062 14.9989 16.7743 15.4479 16.6065C15.6784 16.5199 15.9215 16.4739 16.167 16.4705Z" fill="white"/>
<path d="M12.8156 22.3499C12.8136 22.2504 12.7987 22.1609 12.7235 22.0833C12.6868 22.0458 12.636 22.0178 12.578 22.0028C12.4283 21.9619 12.2759 21.9667 12.1273 22.0018C12.0081 22.0299 11.8932 22.0682 11.7766 22.1024C11.7536 22.1089 11.7326 22.1173 11.7048 22.1267C11.6499 22.0228 11.5959 21.9219 11.5394 21.8164C11.6212 21.7868 11.6983 21.7566 11.7779 21.7307C11.9612 21.6708 12.1512 21.6298 12.3511 21.6206C12.5509 21.6113 12.7481 21.6194 12.93 21.6934C13.1357 21.7765 13.2842 21.8966 13.3464 22.0713C13.3553 22.0942 13.3607 22.1178 13.3624 22.1416C13.3703 22.3684 13.381 22.5952 13.3823 22.822C13.3831 22.977 13.3697 23.1322 13.3637 23.2873C13.3627 23.3085 13.3511 23.3287 13.3313 23.3437C13.1891 23.4632 13.0152 23.5458 12.8181 23.6012C12.6068 23.6601 12.3817 23.6848 12.1572 23.6737C11.95 23.665 11.7711 23.6002 11.6198 23.4927C11.4686 23.3852 11.3629 23.2554 11.3334 23.0964C11.2931 22.8785 11.3754 22.6895 11.5806 22.534C11.7125 22.434 11.875 22.3823 12.0582 22.364C12.2608 22.3439 12.4641 22.3492 12.6674 22.3497L12.8156 22.3499ZM12.789 22.704C12.777 22.7022 12.7649 22.701 12.7528 22.7002C12.6837 22.6992 12.6139 22.6973 12.5445 22.6981C12.4612 22.6991 12.3776 22.6994 12.2949 22.7053C12.2093 22.7116 12.1263 22.7306 12.06 22.7742C11.95 22.8466 11.9173 22.9412 11.9441 23.0478C11.9775 23.1796 12.074 23.2717 12.246 23.3109C12.3346 23.3311 12.4285 23.3342 12.5191 23.3197C12.6033 23.3079 12.6819 23.2792 12.7466 23.2364C12.7576 23.2299 12.7666 23.2217 12.773 23.2123C12.7795 23.203 12.7832 23.1926 12.784 23.1821C12.7867 23.1358 12.7945 23.0895 12.7949 23.0432C12.7959 22.9372 12.7938 22.8311 12.7926 22.725C12.792 22.718 12.7907 22.711 12.789 22.704Z" fill="white"/>
<path d="M17.4997 22.6883C17.2534 22.6883 17.0117 22.6802 16.7667 22.6901C16.768 22.7166 16.7687 22.7417 16.7703 22.7662C16.7766 22.8665 16.7906 22.9639 16.8181 23.0558C16.8394 23.1307 16.8726 23.1963 16.9146 23.2465C16.9812 23.3244 17.0572 23.3372 17.1369 23.3213C17.2028 23.3082 17.2642 23.2711 17.3254 23.2337C17.3535 23.2166 17.3813 23.1983 17.4115 23.1793C17.4402 23.2718 17.4683 23.3627 17.4976 23.4563C17.4922 23.4623 17.4872 23.469 17.4815 23.474C17.3621 23.5832 17.2339 23.6535 17.0954 23.6721C16.9691 23.689 16.8486 23.657 16.7395 23.5494C16.6652 23.476 16.6132 23.3725 16.5697 23.2566C16.5161 23.1124 16.4836 22.9519 16.4746 22.7863C16.4564 22.4844 16.498 22.2034 16.5994 21.9431C16.6701 21.7622 16.7757 21.664 16.9078 21.6301C17.0293 21.5972 17.1544 21.6293 17.2624 21.721C17.3229 21.7715 17.3651 21.851 17.3998 21.9402C17.4457 22.0578 17.4699 22.1874 17.4815 22.3217C17.4909 22.4299 17.4939 22.5395 17.4995 22.6489C17.5002 22.6602 17.4997 22.6719 17.4997 22.6883ZM17.2012 22.3446C17.1869 22.2437 17.1771 22.1406 17.1343 22.055C17.1127 22.0125 17.0825 21.9825 17.0485 21.9698C16.9581 21.9329 16.8673 21.9971 16.8284 22.129C16.8145 22.176 16.8064 22.227 16.7963 22.2764C16.7917 22.2988 16.7888 22.3221 16.7852 22.3446C16.8095 22.3546 17.1763 22.355 17.2013 22.3449L17.2012 22.3446Z" fill="white"/>
<path d="M17.5019 21.6776L18.1054 21.6175V21.6654C18.1054 22.116 18.1057 22.5666 18.1064 23.0173C18.1064 23.0997 18.1076 23.1822 18.1087 23.2648C18.1097 23.3462 18.1614 23.3877 18.2967 23.412C18.3427 23.4193 18.3894 23.425 18.4365 23.4292C18.4653 23.4323 18.4944 23.4338 18.5294 23.4362V23.6715C18.5262 23.6731 18.5223 23.6742 18.5182 23.6747C18.3468 23.6787 18.1761 23.6771 18.0094 23.649C17.9085 23.6323 17.8144 23.604 17.7331 23.5658C17.5815 23.4945 17.5198 23.399 17.504 23.2913C17.4994 23.2597 17.5 23.2278 17.5001 23.1962C17.5001 22.7032 17.5007 22.2103 17.5019 21.7174V21.6776Z" fill="white"/>
<path d="M14.8023 23.6763H14.4155C14.415 23.6577 14.4143 23.6407 14.4142 23.6239C14.4138 23.3565 14.4134 23.0891 14.4132 22.8218C14.4127 22.6081 14.4115 22.3945 14.4116 22.1809C14.4117 22.1422 14.4143 22.1035 14.4194 22.0652C14.4251 22.0215 14.445 21.9851 14.4726 21.9544C14.6245 21.7842 14.8065 21.6822 15.0141 21.6382C15.1442 21.6108 15.2775 21.6106 15.4076 21.6376C15.4145 21.639 15.4214 21.6408 15.4281 21.6428C15.4314 21.6438 15.4346 21.6456 15.441 21.6485C15.3971 21.777 15.3436 21.8998 15.2931 22.0212C15.2329 22.0212 15.1758 22.0192 15.1188 22.0217C15.0205 22.0254 14.924 22.0531 14.8356 22.1028C14.8106 22.117 14.8012 22.1346 14.8013 22.1678C14.8024 22.6544 14.8026 23.141 14.8021 23.6275L14.8023 23.6763Z" fill="white"/>
<defs>
<linearGradient id="paint0_linear" x1="6.0558" y1="2.50954" x2="6.5073" y2="6.32318" gradientUnits="userSpaceOnUse">
<stop stop-color="#123214"/>
<stop offset="0.46" stop-color="#3E7C37"/>
<stop offset="0.91" stop-color="#5FBB46"/>
</linearGradient>
<linearGradient id="paint1_linear" x1="8.88809" y1="2.34216" x2="8.88809" y2="5.25355" gradientUnits="userSpaceOnUse">
<stop stop-color="white" stop-opacity="0"/>
<stop offset="0.64" stop-color="white" stop-opacity="0.43"/>
<stop offset="1" stop-color="white" stop-opacity="0.42"/>
</linearGradient>
<radialGradient id="paint2_radial" cx="0" cy="0" r="1" gradientUnits="userSpaceOnUse" gradientTransform="translate(7.25661 1.57115) rotate(22.2627) scale(1.15275 0.418689)">
<stop offset="0.13" stop-color="white"/>
<stop offset="0.29" stop-color="white" stop-opacity="0.69"/>
<stop offset="0.45" stop-color="white" stop-opacity="0.4"/>
<stop offset="0.59" stop-color="white" stop-opacity="0.18"/>
<stop offset="0.69" stop-color="white" stop-opacity="0.05"/>
<stop offset="0.74" stop-color="white" stop-opacity="0"/>
</radialGradient>
<radialGradient id="paint3_radial" cx="0" cy="0" r="1" gradientUnits="userSpaceOnUse" gradientTransform="translate(6.74414 3.0438) rotate(42.1249) scale(3.63294 4.00477)">
<stop offset="0.86" stop-opacity="0"/>
<stop offset="0.98" stop-opacity="0.47"/>
<stop offset="1"/>
</radialGradient>
</defs>
</svg>
